<?xml version="1.0" standalone="no"?>
<!DOCTYPE svg PUBLIC "-//W3C//DTD SVG 1.1//EN" "http://www.w3.org/Graphics/SVG/1.1/DTD/svg11.dtd" >
<svg xmlns="http://www.w3.org/2000/svg">
<metadata>
This is a custom SVG webfont generated by Font Squirrel.
Copyright   : Copyright c 2010 Kimberly Geswein kimberlygesweincom
Designer    : Kimberly Geswein
Foundry     : Kimberly Geswein
</metadata>
<defs>
<font id="CoveredByYourGraceRegular" horiz-adv-x="422" >
<font-face units-per-em="1024" ascent="819" descent="-205" />
<missing-glyph horiz-adv-x="410" />
<glyph unicode=" "  horiz-adv-x="410" />
<glyph unicode="&#x09;" horiz-adv-x="410" />
<glyph unicode="&#xa0;" horiz-adv-x="410" />
<glyph unicode="!" horiz-adv-x="121" d="M18 34q0 10 7.5 19t14.5 15h16q17 0 28.5 -7.5t11.5 -25.5q0 -6 -4 -12.5t-10.5 -12t-14.5 -8.5t-15 -2q-10 2 -22 12t-12 22zM18 367q0 11 0.5 19.5t4.5 19.5v342q0 3 4.5 6.5t10 6.5t11 5t7.5 2q17 0 25.5 -12t13.5 -25q0 -8 -0.5 -26.5t-0.5 -39t0.5 -39.5t0.5 -26 q0 -5 0.5 -21.5t1.5 -36t1.5 -36.5t0.5 -21q0 -5 -0.5 -21t-1 -34.5t-1.5 -36.5t-1 -26q-2 -18 -10 -32t-29 -14q-22 0 -30 12t-8 34z" />
<glyph unicode="&#x22;" horiz-adv-x="253" d="M147 676q-4 16 6.5 23t23.5 7q17 0 26 -11.5t12 -26.5q1 -12 2.5 -40t3.5 -59l4 -60q2 -29 2 -40v-23q0 -10 -0.5 -15.5t-2.5 -9.5t-7 -7.5t-14 -7.5h-3q-18 0 -26 15t-11 35.5t-2.5 40.5t-0.5 30q-1 9 -2.5 30t-3.5 44.5t-4 44.5t-3 30zM43 506q1 17 3 43l4 51l3 43 q2 18 2 19l8 25q0 1 6 1.5t9 0.5q29 0 35 -16t6 -42q0 -50 -4 -101t-10 -100q-1 -18 -19 -18q-13 0 -21.5 9.5t-13 22t-6.5 26.5t-2 23v13z" />
<glyph unicode="#" horiz-adv-x="441" d="M148 198q-1 4 -2 13.5t-2.5 19.5t-3 19t-1.5 12v10v12q0 6 -2 10.5t-6 5.5q-12 -6 -24.5 -10t-26.5 -4q-8 0 -20.5 3t-17.5 11q-2 23 10.5 32.5t28 14.5t29 11t13.5 21q0 16 -1 29.5t-3 30.5h-1q-1 0 -2 1q-9 0 -16.5 -4t-15 -9.5t-15 -9.5t-17.5 -4q-14 0 -27 9t-13 26 q0 5 8 12.5t10 8.5l76 43l9 8l2 23q1 9 1 19t1 16v73q3 11 11.5 13.5t20.5 2.5q10 0 15.5 -6t10.5 -14q0 -4 1 -14.5t2 -22.5l1 -22v-14q-1 -5 -1 -9t1 -7.5t4 -4.5l14 4q10 4 12 5q4 0 4 4q5 27 5.5 61t-0.5 57q4 11 11.5 14t18.5 3q18 0 26.5 -12.5t10.5 -30t1 -35.5 t-1 -30q13 0 25.5 3.5t25.5 3.5q6 0 9 -6t3 -11q0 -8 -7.5 -15.5t-17 -14t-19.5 -11.5t-15 -6q-5 -4 -4.5 -11.5t0.5 -12.5v-7q0 -6 0.5 -13t1 -12.5t2.5 -5.5h4l14 7l22 11l22 11l15 9l21 10q12 6 23 6q8 0 9.5 -2.5t1.5 -9.5q0 -1 -0.5 -1.5t-0.5 -2.5v-4l-6 -9l-9 -11 l-9 -12q-4 -5 -5 -7l-5 -5q-3 -3 -3 -4l-90 -59q-4 -3 -4 -5v-7q0 -36 6.5 -71t6.5 -71v-31q-2 -11 -10.5 -12.5t-16.5 -1.5q-12 0 -19 2.5t-12 15.5l-12 65l-10 66h-4q-8 0 -17 -5.5t-9 -13.5q0 -25 4.5 -51t4.5 -52q0 -15 -7 -27t-24 -12q-11 0 -13 2.5t-11 5.5zM181 462 v-12q0 -9 1 -19t2.5 -17t4.5 -5l31 18v67q0 5 -7 5l-2 -1q-3 -2 -15 -8t-15 -8v-20z" />
<glyph unicode="$" horiz-adv-x="342" d="M179 22q-1 4 -3 14t-5 21t-5 21t-3 14v5l-4 25l-5 37l-6 37q-2 17 -3 23q-3 3 -11 4l-15 2q-8 1 -14 2.5t-6 5.5q-12 7 -14 14.5t4.5 13.5t20 9t31.5 1q0 11 0.5 29t0 37.5t-2.5 38t-6 30.5q-11 -2 -31.5 1.5t-40.5 10.5t-35.5 18t-15.5 26q0 30 15 59.5t32 52.5l15 19 l23 28l22 28q11 13 16 18q0 3 1 11t1 17l1 16q1 8 1 11v13l3 28q3 19 5.5 41.5t4.5 42.5l4 27q3 13 11 27.5t22 14.5q13 0 21.5 -7.5t13.5 -17.5v-24q0 -35 -6 -70t-6 -70q16 0 29.5 6t30.5 6q16 0 26.5 -9t10.5 -24q0 -12 -3 -16.5t-8.5 -6t-12.5 -1.5t-15 -2 q-5 -1 -15.5 -5t-21 -10t-18.5 -13t-8 -15v-164l4 -4q12 0 30 -2t35.5 -7.5t31 -15.5t17.5 -26q1 -2 1 -12v-14q0 -22 -11 -42.5t-27 -39.5t-35 -36l-33 -29v-30l30 -185q0 -5 -3 -10t-8 -9.5t-10 -7.5t-8 -3q-12 0 -22 4t-18 18zM209 354q1 -3 2 -9.5t2 -6.5h5q1 0 12.5 11 t17.5 18q4 6 10 13.5t6 16.5v4q-3 0 -9.5 0.5t-14 1t-14 1.5t-8.5 2h-3q-4 0 -6 -5v-23v-24zM87 485q0 -6 4 -8.5t9 -3t11 -0.5h10q2 0 7 -0.5t5 4.5v82q-6 0 -13.5 -9t-15 -21t-12.5 -24.5t-5 -19.5z" />
<glyph unicode="&#x26;" horiz-adv-x="348" d="M309 220q3 -5 0.5 -13.5t-7 -17.5t-10 -16t-10.5 -8q-26 -8 -56 -2q-57 10 -98.5 34.5t-69.5 70.5q-3 3 -9 14l-6 13q-11 29 0 55t41 36q4 2 12 3.5t18 3t19 3t15 3.5q-17 21 -40.5 36.5t-50.5 41.5q-2 2 -3.5 5t-2.5 4q-16 27 11 35q9 8 28.5 16.5t43.5 15t50.5 9 t49.5 -1t40.5 -15t23.5 -33.5q9 -11 1 -19.5t-18 -12.5q-13 -5 -25.5 -4.5t-26 1.5t-27.5 1t-30 -5l-6 -3q15 -12 33 -24l36 -23q18 -11 32.5 -22t22.5 -22q6 -9 3.5 -19t-13.5 -13q-18 -6 -33 -8t-30 -3t-30 -2.5t-33 -7.5q-17 -8 -12 -22t21 -29t37 -27.5t37 -16.5 q9 -3 31 0q1 0 9.5 1t9.5 2q10 0 13.5 -3.5t8.5 -10.5zM159 -17q-4 20 -7 48t-8 48q2 13 10.5 22t21.5 12q25 4 38 -9t16 -34q2 -9 5.5 -28t4 -38t-4 -33.5t-17.5 -14.5h-26q-10 0 -17 2t-10.5 8t-5.5 17zM119 667q-1 9 -1 14v10q0 4 0.5 9.5t-0.5 15.5q1 13 10 22.5 t22 11.5q26 4 37.5 -8.5t16.5 -32.5l3 -29q2 -19 1.5 -38.5t-6 -34t-18.5 -14.5q-17 0 -28 8t-18.5 19t-11.5 23.5t-7 23.5z" />
<glyph unicode="'" horiz-adv-x="129" d="M23 505q0 7 1.5 25t3 38t2.5 38t1 26q7 25 32 25q22 0 31 -12.5t9 -32.5q0 -6 -0.5 -23.5t-2.5 -40t-4.5 -47t-6.5 -44.5t-10 -33t-13 -12q-14 2 -22 10.5t-13 19.5t-6.5 23.5t-1.5 23.5v16z" />
<glyph unicode="(" horiz-adv-x="257" d="M17 199q-2 -12 0 4.5t6.5 50t12 79t17 92t20.5 88.5t24 70q13 35 33.5 66.5t43.5 60.5q5 7 11 12t16 5q14 0 25 -10.5t11 -26.5q0 -13 -6.5 -27t-15.5 -27.5t-18.5 -26t-14.5 -22.5q-17 -36 -34.5 -87.5t-31.5 -105.5t-21.5 -103.5t-2.5 -80.5q0 -39 9 -75.5t43 -62.5 l13 -10l20 -14l20 -14q10 -6 14 -8q0 -2 0.5 -5t0.5 -4q0 -11 -9.5 -14t-18.5 -3q-37 0 -67.5 19t-52 48t-34 64t-13.5 68z" />
<glyph unicode=")" horiz-adv-x="270" d="M17 26q0 8 10.5 19t15.5 18q20 29 38 52.5t34 53.5q6 13 11 29.5t13 28.5q15 53 23 102t8 103q0 60 -9 121t-26 119q-3 12 -11 23l-16 22q-8 10 -14 20t-6 22q0 11 10 21t22 10q19 0 35 -12.5t29 -30.5t22 -37.5t13 -33.5q8 -25 13.5 -54t9.5 -59.5t5.5 -60.5t2.5 -57 q0 -59 -7.5 -116t-27.5 -114q0 -2 -4.5 -11.5t-9.5 -21.5l-10 -24l-9 -19q-6 -11 -20 -34.5t-31.5 -47t-36.5 -41t-34 -17.5q-5 0 -12.5 1.5t-14.5 4.5t-11.5 8t-4.5 13z" />
<glyph unicode="*" horiz-adv-x="437" d="M59 186l14 10l13 10q-20 -5 -38 -5q-34 0 -34 35q0 9 3.5 16t0.5 16q4 1 14 2.5t12 1.5h34q10 2 24.5 5.5t28.5 6.5q-17 17 -38.5 31t-36.5 34q-19 26 7 48q8 5 15.5 7.5t13.5 10.5q3 -2 11 -9l9 -10q0 -1 3 -4.5t7 -7.5l6 -9q3 -4 4 -4q7 -8 19 -19l23 -19l13 142 q2 17 8 20t20 3q2 0 7.5 -0.5t7.5 -0.5q8 -6 14 -17v-36q0 -29 -1.5 -57t-2.5 -57l118 77q14 8 20.5 5t14.5 -14q2 -2 4.5 -6.5t3.5 -5.5q2 -12 -5 -20q-3 -3 -14 -12t-14 -11q-5 -4 -9.5 -7t-9.5 -6l38 6q8 -2 14.5 -3t11.5 -3.5t8 -8t3 -16.5v-3q-9 -9 -19 -12.5t-20.5 -6 t-20.5 -5.5t-20 -10l-70 -17l97 -87q6 -14 10 -25t-12 -24q-1 0 -2 -1q-12 1 -21.5 6.5t-17.5 12.5t-17 13.5t-20 10.5l-51 39q3 -18 5.5 -36t2.5 -35q0 -19 -13 -30.5t-31 -11.5h-3l-22 21q1 23 1 47.5t-4 48.5l-29 -28q-14 -14 -29 -27q-15 -11 -32 -8.5t-28 17.5l-3 3z " />
<glyph unicode="+" horiz-adv-x="437" d="M179 104q2 29 1 59t-9 59h-4q-29 0 -58.5 -10.5t-60.5 -10.5q-34 0 -34 35q0 9 3.5 16t0.5 16q4 1 14 2.5t12 1.5h34q10 2 26 6l31 7q15 3 26 6l10 3l16 181q2 17 8 20t20 3q2 0 7.5 -0.5t7.5 -0.5q8 -6 14 -17v-36q0 -34 -2 -67t-2 -67h4l143 26q8 -2 14.5 -3t11.5 -3.5 t8 -8t3 -16.5v-3q-9 -9 -19 -12.5t-20.5 -6t-20.5 -5.5t-20 -10l-100 -24q-5 -2 -5 -5v-8q0 -26 4.5 -52.5t4.5 -53.5q0 -19 -13 -30.5t-31 -11.5h-3zM145 298v-4h-8v4h8z" />
<glyph unicode="," horiz-adv-x="133" d="M18 -10q1 4 3 20l6 36q3 20 6 36.5t3 20.5q1 7 2 15.5t4 15.5t9 11.5t16 4.5q19 0 30.5 -8.5t11.5 -28.5v-8q0 -5 -1 -6l-4 -21l-5 -30q-3 -16 -5 -30.5t-3 -19.5q-7 -9 -8.5 -23t-3.5 -26.5t-8 -22t-23 -9.5q-9 0 -14.5 5.5t-9 13.5t-5 17t-1.5 16v21z" />
<glyph unicode="-" horiz-adv-x="409" d="M54 253q0 17 12 24.5t26 10.5l251 25q17 0 32 -6t15 -26q0 -5 -6.5 -11t-14.5 -11t-17 -8.5t-13 -1.5l-247 -27q-13 0 -25.5 8.5t-12.5 22.5z" />
<glyph unicode="." horiz-adv-x="129" d="M22 38q0 14 10.5 26t24.5 12q17 0 27.5 -9t20.5 -20v-3q0 -17 -11.5 -30.5t-30.5 -13.5q-13 0 -27 12t-14 26z" />
<glyph unicode="/" horiz-adv-x="266" d="M20 -29q5 48 13 91l17 90v8l143 739q3 17 11 23.5t25 6.5h2q19 -10 24.5 -16.5t5.5 -26.5q0 -12 -3 -25t-5 -25q-1 -3 -3 -14l-6 -24l-6 -24q-2 -11 -3 -14v-4l-113 -566q-9 -57 -19.5 -113.5t-18.5 -113.5q-3 -12 -12.5 -17.5t-20.5 -5.5t-21 7.5t-10 20.5v3z" />
<glyph unicode="0" horiz-adv-x="336" d="M26 179q0 60 7 121l14 118q0 8 4 12t8 9q0 1 2 4t2 4q15 36 49 60.5t73 24.5q22 0 37 -5.5t26 -16t20 -24.5l20 -33q8 -18 13 -41t7.5 -47t3.5 -47.5t1 -43.5q-2 -33 -7.5 -69.5t-17.5 -71t-32.5 -63.5t-52.5 -48q-13 -8 -28.5 -15t-30.5 -7q-35 0 -57.5 17.5t-36 44.5 t-19 58.5t-5.5 58.5zM101 139q1 -7 3.5 -18t7 -22t11.5 -19t18 -8q8 0 15.5 4t12.5 8q26 20 41.5 48t23.5 59.5t10 64t2 62.5v13q0 9 -0.5 18.5t-0.5 18.5v12q-1 11 -5 29.5t-11 36t-18.5 30.5t-27.5 13q-9 0 -21 -5.5t-22.5 -13.5t-18 -18.5t-7.5 -20.5q0 -8 4.5 -13 t4.5 -15v-11q-1 -3 -3 -18l-6 -30l-6 -30q-2 -15 -3 -18q-4 -25 -4.5 -51t-0.5 -50v-11q0 -8 0.5 -17t0.5 -17v-11z" />
<glyph unicode="1" horiz-adv-x="141" d="M27 38q-2 23 -2 43l-1 39q-1 20 -1 39v43q0 78 8.5 154.5t12.5 154.5q0 9 -0.5 23.5t2.5 28t11 22t25 7.5q16 -2 25 -13t14 -26q-10 -101 -18.5 -201.5t-8.5 -203.5q0 -24 2.5 -48t2.5 -48q0 -8 -1 -17t-4 -17t-9.5 -13.5t-16.5 -5.5q-18 0 -27 12t-14 27z" />
<glyph unicode="2" horiz-adv-x="477" d="M82 38q0 8 1.5 12t7.5 13l54 85q28 42 50.5 86.5t36.5 91.5t14 98q-30 0 -53 -18t-44 -40t-41 -40t-43 -18q-7 0 -15 1.5t-15 5t-12 10t-5 15.5v2q6 13 17 25.5t24 24t26 21.5l23 18q14 12 32 25t37.5 24.5t40.5 19t42 7.5q36 0 50 -22.5t14 -57.5q0 -66 -22.5 -129.5 t-54.5 -120.5v-4l-26 -46h9q42 24 90.5 40.5t95.5 27.5h4q18 0 30 -6t12 -28q0 -15 -8 -26q-8 -2 -20.5 -6t-21.5 -2l-98 -35l-160 -84q-16 -8 -32 -8q-14 0 -27 11.5t-13 26.5z" />
<glyph unicode="3" horiz-adv-x="399" d="M162 38q0 9 1.5 14.5t11.5 10.5q1 1 5 1.5t8.5 1.5t8 1.5t4.5 0.5q6 1 13.5 5.5t15 10t13.5 10.5t9 7q29 25 39.5 55t10.5 67v14q0 9 -0.5 18.5t-3.5 17t-9 10.5q-2 1 -9 1h-10q-23 0 -43.5 -9.5t-40 -21t-40 -21t-44.5 -9.5q-16 0 -25 10.5t-9 25.5q0 16 19 43t43 57 l47 60q23 29 32 50h-8q-23 0 -42 -9.5t-36 -20.5t-33.5 -20.5t-34.5 -9.5q-13 0 -27 6.5t-14 23.5q0 14 15 28.5t39 27t53.5 23.5t58 19t52.5 12.5t37 4.5q37 0 37 -39v-13q-17 -45 -41 -80.5t-48 -75.5h10q14 0 25.5 2t25.5 2q40 0 63 -25.5t33 -62.5q0 -5 0.5 -20.5 t0.5 -19.5q0 -67 -28 -114.5t-83 -85.5q-28 -22 -61 -22q-16 0 -28.5 11.5t-12.5 26.5z" />
<glyph unicode="4" horiz-adv-x="410" d="M215 245h-4q-21 0 -41.5 -4t-41 -9t-41 -9t-41.5 -4h-4q-11 8 -21.5 20t-8.5 27q1 6 10 13.5t12 12.5q1 2 6 10l10 19l11 18q5 9 7 11q0 4 4 4l93 161q0 1 1.5 2t2.5 2l10 13l15 19l15 19l10 13q5 7 11 8t14 1q7 0 15 -2t15 -6t12 -11t5 -16v-212q18 0 32.5 9.5t33.5 9.5 q35 0 35 -37q0 -8 -2.5 -16t-10.5 -11l-88 -34v-3q0 -56 10.5 -111t10.5 -109q0 -16 -8 -29.5t-25 -13.5q-6 0 -11.5 0.5t-10.5 3.5q-5 4 -13 12t-8 10v8zM130 300q4 0 13.5 2t20.5 4t20.5 3.5t14.5 2.5q1 1 5.5 2.5t6.5 2.5q1 0 2.5 2t1.5 3v125l-4 6l-81 -145v-8z" />
<glyph unicode="5" horiz-adv-x="427" d="M115 35q0 10 4.5 18t11 14.5t14 12.5t13.5 12l13 16l19 22l17 22q8 10 10 13l19 27q11 16 15 31q-1 0 -4 0.5t-4 0.5q-18 0 -38.5 -12t-34.5 -22h-4q-13 -9 -24 -18l-21 -16l-18 -13q-11 -8 -18 -10t-25 -2q-12 0 -19 6t-11 15t-5.5 19.5t-1.5 19.5q0 19 3 38t1 37 l25 156q7 13 8.5 25t4 21.5t10 15t26.5 5.5q15 0 22.5 -6t17.5 -18h6q19 0 37.5 5t36.5 3l135 25q1 1 6 1h8q17 0 27.5 -9t10.5 -28q0 -26 -26 -31l-122 -25h-9q-32 -5 -60.5 -9t-57.5 -13q-2 -1 -5 -2t-3 -2l-22 -127v-16q36 23 73 38.5t81 20.5q12 0 25.5 -2.5t25.5 -8.5 t20 -15.5t8 -24.5q0 -20 -6.5 -39t-17 -37.5t-23.5 -35.5l-25 -32q-5 -5 -16 -17l-24 -27l-24 -27q-12 -13 -17 -18q-5 -3 -15.5 -7.5t-17.5 -4.5q-14 0 -24.5 11t-10.5 24z" />
<glyph unicode="6" horiz-adv-x="326" d="M69 -58q0 21 6.5 40.5t6.5 39.5q0 7 -4 12.5t-10 10.5l-11 11q-6 6 -9 12q-14 23 -19.5 48.5t-5.5 51.5v6q19 97 33 158l22 96q8 36 13 52t7 23l9 21q5 12 11 21t15 15t23 6q13 0 22 -11t9 -25q5 10 1 -2t-12 -40l-21 -68q-12 -39 -23 -82.5t-20 -88t-11 -82.5 q0 -5 0.5 -20t0.5 -20l4 -14q3 -8 9 -12q2 4 7 13l12 21l12 20l8 15q7 12 21 29t30.5 32.5t34.5 27t33 11.5q12 0 20 -5.5t12.5 -14.5t6.5 -20t2 -21q0 -33 -11.5 -65t-32 -59t-48 -47t-60.5 -29q-3 -11 -10.5 -26.5t-7.5 -26.5q0 -9 2.5 -17.5t2.5 -17.5q0 -17 -11 -28 t-28 -11q-13 0 -21 6t-12.5 15t-6 19.5t-1.5 19.5zM211 132q-15 -19 -16.5 -28t3.5 -10.5t14 2.5t16 10q17 15 20.5 31t-1 24t-14.5 3t-22 -32z" />
<glyph unicode="7" horiz-adv-x="362" d="M199 46q0 37 2.5 74t1.5 75l42 294v12q0 2 0.5 7.5t-4.5 6.5q-40 -13 -89 -27.5t-93 -14.5h-21q-11 6 -19.5 15t-10.5 23q-2 15 9 23t26 11.5t30 4.5t23 3q27 5 50.5 10.5t46 12t45.5 14.5t49 18h6q17 0 31 -11t14 -29v-11l-51 -278q-1 -4 -2 -18t-2.5 -31t-2.5 -33 t-1 -24t-0.5 -29t-0.5 -44.5t0.5 -44.5t0.5 -29q-8 -17 -15.5 -21.5t-25.5 -4.5q-20 0 -29.5 14.5t-9.5 31.5z" />
<glyph unicode="8" horiz-adv-x="330" d="M96 105q0 42 10.5 76t24.5 72v13l-31 25q-15 14 -30 30t-27.5 32.5t-20.5 34.5q-2 2 -3 11t-2 11v2q0 28 16 55.5t41 49.5t53.5 35.5t54.5 13.5q26 -4 47 -16.5t33 -31t14 -41t-10 -46.5q-2 -7 -9 -25l-14 -39l-14 -38q-7 -18 -10 -25q-3 -9 -3.5 -8t-0.5 -7v-6l31 -38 q16 -18 29 -37.5t21.5 -41t8.5 -46.5q0 -23 -10.5 -44.5t-27.5 -38t-39 -27t-44 -10.5q-23 0 -39.5 9t-27.5 23.5t-16 33.5t-5 39zM157 109q0 -17 2.5 -31.5t22.5 -14.5q10 0 21 6.5t19.5 16.5t13 22t1.5 23q-2 7 -8.5 19t-14 24.5t-15.5 23t-13 13.5q-7 -5 -12.5 -18.5 t-9 -29.5t-5.5 -31t-2 -23zM88 420q0 -8 10 -22t23 -28.5t25 -25t17 -10.5h2q17 29 31.5 70.5t14.5 76.5v8q-2 1 -10 3t-11 2q-18 0 -30 -2t-21 -7t-17.5 -14t-20.5 -24q-4 -5 -8.5 -12t-4.5 -15z" />
<glyph unicode="9" horiz-adv-x="322" d="M177 43q0 1 1 8.5t2.5 16t3 15.5t1.5 9q0 1 0.5 9t1.5 18.5t1.5 21t0.5 16.5q5 79 11.5 158.5t6.5 159.5v19q-15 -12 -27 -28.5t-25 -32.5t-29 -27.5t-38 -13.5q-21 -2 -35.5 5.5t-24 20.5t-13.5 30t-4 35q-1 26 8 56t25.5 59t38.5 53t47.5 37.5t53.5 14t56 -18.5 q9 -8 12 -21l5 -21q11 -4 24.5 -14t13.5 -24q0 -74 -8 -147.5t-13 -148.5q-5 -71 -7.5 -141t-9.5 -141q-7 -14 -15 -20t-25 -6t-29.5 13.5t-10.5 29.5zM183 646q-21 0 -39.5 -21.5t-32 -50t-21.5 -57.5t-8 -44h6l26 25l81 114v5q0 5 -3.5 17t-8.5 12z" />
<glyph unicode=":" horiz-adv-x="135" d="M22 154q0 14 8.5 27.5t22.5 13.5q9 0 19.5 -4t19.5 -11t14 -16.5t4 -20.5q-2 -14 -15 -22t-24 -8q-18 0 -33.5 10.5t-15.5 30.5zM26 358q-2 20 16 29t34 9q4 0 9.5 -4.5t11 -11t9.5 -13t4 -9.5q4 -14 -9 -23.5t-25 -9.5q-14 0 -31 8t-19 25z" />
<glyph unicode=";" horiz-adv-x="135" d="M-19 -190q0 2 0.5 6t0.5 5l44 197v65q0 1 7 7.5t11 8.5q1 0 3.5 0.5t3.5 0.5q25 0 37 -15.5t12 -37.5q0 -25 -5 -53q-2 -9 -5 -24l-4 -28l-5 -23l-2 -10l-5 -8l-26 -114q-2 -10 -10.5 -16.5t-19.5 -4.5q-37 4 -37 44zM35 241q0 5 2.5 12.5t7 14.5t10.5 12t13 5t15 -5 t14.5 -12t11 -15t4.5 -14v-13q-2 -4 -10.5 -11.5t-11.5 -9.5h-4q-18 0 -35 8t-17 28z" />
<glyph unicode="&#x3c;" horiz-adv-x="453" d="M190 119q-3 0 -13.5 -0.5t-23.5 -1.5t-23.5 -1.5t-13.5 -0.5h-30q-12 0 -25 1.5t-23.5 6t-17.5 13.5t-7 25q0 14 8.5 22.5t17.5 19.5l12 15l18 23l18 22q8 11 11 16q3 10 10.5 16.5t11.5 16.5l105 165q6 9 9.5 20.5t8 21.5t11.5 16.5t21 6.5q22 0 35.5 -16t15.5 -36 q1 -2 -0.5 -6.5t-3.5 -6.5l-126 -198q-5 -11 -15 -23l-20 -22q-10 -12 -17.5 -24t-7.5 -23q65 0 127 -3.5t127 -10.5q3 -6 9 -9l13 -8q6 -3 10.5 -8t4.5 -15q0 -40 -41 -40q-14 0 -22.5 5t-20.5 7q-38 8 -76 11t-77 3z" />
<glyph unicode="=" horiz-adv-x="420" d="M63 170q21 22 48.5 35t58 23t62 19t60.5 23q22 7 33.5 9.5t28.5 2.5q13 0 29 -5t18 -20q-1 -4 -5.5 -15.5t-6.5 -13.5t-9.5 -7t-11.5 -7q-32 -5 -63.5 -17.5t-63 -26.5t-63 -25.5t-63.5 -14.5q-17 0 -34.5 10.5t-17.5 29.5zM17 290q-2 19 9 26.5t25 11.5q22 8 45.5 15 t56.5 14l81 18l116 26h5q4 0 9.5 -2t11 -5.5t9.5 -7.5t4 -8q0 -13 -7 -24.5t-18 -16.5q-72 -26 -142.5 -41.5t-142.5 -39.5q-7 0 -17.5 2t-20 6t-16.5 10.5t-8 15.5z" />
<glyph unicode="&#x3e;" horiz-adv-x="431" d="M106 109q0 7 4.5 14t11 13t13.5 11t13 8l160 224q4 6 4 11v3l-274 105q-2 0 -5.5 4.5t-6.5 10.5l-7 12q-3 5 -3 7q-1 7 5.5 12.5t15 9t17.5 5t12 1.5q39 -23 80.5 -39t83.5 -30l86 -29q43 -14 85 -33q7 -9 10 -14.5t3 -13.5q0 -20 -13.5 -34t-24.5 -30l-45 -65l-41 -62 q-21 -31 -45.5 -61t-55.5 -61q-2 -3 -11.5 -9t-13.5 -8q-8 -2 -18 0t-19 7t-15 13t-6 18z" />
<glyph unicode="?" horiz-adv-x="366" d="M171 44q0 14 12 27t28 13q19 0 37 -10.5t18 -33.5q0 -21 -13 -28.5t-30 -7.5q-19 0 -35.5 9.5t-16.5 30.5zM104 283q6 27 19 50.5t28.5 45t32.5 42.5t31 44q2 3 7.5 12.5l11.5 20.5l12 23q5 11 7 16q5 11 4 14t-1 13q-40 0 -72.5 -15.5t-65.5 -37.5q-15 -10 -27 -22 t-31 -12q-15 0 -32 11.5t-17 29.5q0 6 1.5 7.5t7.5 5.5q29 23 57 42.5t57.5 34t62 23t70.5 8.5q32 0 55.5 -15t23.5 -50q0 -23 -8 -47t-20 -47t-26 -44l-27 -39q-8 -12 -21 -27t-25 -31.5t-21 -33t-9 -29.5q0 -8 7 -12t7 -12q0 -18 -11 -25.5t-27 -7.5q-26 0 -43.5 18.5 t-17.5 43.5v2z" />
<glyph unicode="@" horiz-adv-x="762" d="M22 190q0 37 16 87.5t43 105t64 107.5t78 95t85 68t86 26q32 0 52.5 -19.5t33 -51t18.5 -70t8 -77t1.5 -72.5t-0.5 -55q0 -23 -4 -49t-15 -48.5t-29.5 -37t-46.5 -14.5q-38 0 -56 22.5t-30 54.5q-4 9 -4 13t-5 13l-2 -2q-2 -2 -2 -3l-19 -35q-11 -19 -24.5 -35t-31 -26 t-39.5 -10q-21 0 -36.5 15.5t-15.5 35.5q0 30 12 59t30.5 55t40.5 49l40 44q14 14 36.5 26t39.5 12q22 0 36 -13t28 -29q0 -3 0.5 -13t0.5 -12q0 -29 -5 -56.5t-5 -56.5q0 -7 2.5 -19t10.5 -17q11 9 16.5 22.5t7.5 29t2 30.5v27q2 33 4 70t-1.5 69t-17 56t-41.5 31 q-29 0 -61.5 -22t-62.5 -54t-54.5 -67t-36.5 -61l-11 -26l-17 -40l-17 -41l-10 -28l-5 -17q-2 -7 -3 -13.5t-1 -12.5v-16q0 -36 14.5 -60.5t38 -40.5t53.5 -23t61 -7h20q7 1 20.5 4l27.5 6l24 4q10 2 12 3l240 115q11 5 21 16l21 21q10 10 21 18t23 8q13 0 29.5 -7t16.5 -23 q0 -9 -5.5 -17.5t-14 -16.5t-17 -14.5t-14.5 -10.5l-16 -11l-21 -14l-18 -12q-8 -5 -9 -5q-8 -5 -29 -15l-44 -21l-45 -22l-30 -14q-12 -3 -22.5 -10t-23.5 -11q-45 -14 -86 -24t-89 -10q-41 0 -83.5 12t-78 36t-58 59.5t-22.5 82.5zM233 310q-7 -16 -7 -23.5t4.5 -7.5t13 6 t18.5 17q30 31 34.5 45t-4.5 13t-26.5 -14.5t-32.5 -35.5z" />
<glyph unicode="A" horiz-adv-x="509" d="M25 63q0 60 8 119t14 118q0 3 1 13.5t2.5 22.5t3 22.5t1.5 13.5v4l42 312q-2 20 6.5 35.5t31.5 15.5q25 3 41.5 -6.5t27.5 -24.5t18 -33t15 -33l12 -33l18 -48l25 -71l34 -102l4 -4q7 4 26 13l41 19l41 19q19 9 27 12q1 2 5.5 3.5t6.5 2.5h2q10 0 15 -7.5t5 -14.5 q0 -11 -5 -19t-11.5 -14.5t-14 -12.5t-11.5 -13l-99 -50q-4 -5 -4 -8q0 -8 8 -25l14 -27q3 -6 10 -22l15 -33l15 -32l11 -22v-3q0 -36 -36 -36q-11 0 -23 2.5t-18 14.5l-67 143h-9q-38 -29 -81 -57t-88 -48q-7 -36 -8.5 -73t0.5 -74q-8 -11 -16 -16.5t-22 -5.5t-21 6.5 t-10 16t-3 20.5v20zM114 257q30 12 58 32l55 37q3 2 7.5 4t8.5 5t10 7v8l-92 262l-4 4q-3 -6 -7.5 -34t-10 -72.5l-12.5 -102.5l-13 -124v-26z" />
<glyph unicode="B" horiz-adv-x="515" d="M88 203l-4 88q-3 46 -8 89q-4 0 -13 0.5t-18 3.5t-16 7.5t-7 11.5q0 11 5.5 22.5t13.5 22t17 19.5l14 14v152q0 13 13 19.5t24 6.5q28 0 36 -13t9 -29.5t0.5 -31.5t10.5 -19q18 9 34 19t31.5 18t32 13t35.5 5q9 0 19.5 -2t19.5 -6.5t15 -12t6 -19.5q0 -22 -6 -40.5 t-15 -36t-19 -34.5t-18 -35q4 0 15 -1.5t23 -2.5t23 -2.5t15 -1.5q16 -3 37.5 -10t40 -19t31.5 -28.5t13 -37.5q0 -23 -8.5 -46t-20.5 -41q-4 -6 -12 -17l-16 -22l-14 -19q-7 -9 -8 -10l-191 -165q-10 -8 -17 -10.5t-17 -2.5q-7 0 -20.5 1.5t-27.5 4.5t-24.5 8t-11.5 13 l-22 169v8zM186 88h1q5 0 15 3t13 6l14 11l20 17l21 17q9 8 14 11l41 34q23 20 44 42.5t35.5 46.5t14.5 47q0 15 -10 23.5t-24.5 13.5t-30 6.5t-26.5 1.5q-21 0 -39 -7t-34 -18t-31 -24l-29 -27q-3 -3 -8.5 -6t-10.5 -7t-8.5 -8t-2.5 -9zM262 541q-2 -1 -7 -4t-10 -7t-10 -7 t-7 -4l-10 -8l-23 -18l-23 -18q-11 -9 -11 -10v-77h4l6 7l15 17q8 9 16 19l13 16q3 5 11.5 16t10.5 14q3 6 8 15l10 18l8 15l3 6v10h-4z" />
<glyph unicode="C" horiz-adv-x="431" d="M23 153l19 154q7 54 10 80q4 30 4 35l19 67q10 36 26.5 67t42.5 52t67 21q18 0 32.5 -2.5t27.5 -8.5t25.5 -14.5t26.5 -20.5q10 -9 11.5 -11t1.5 -12q0 -13 -9 -25t-26 -12q-14 0 -23 6.5t-17.5 15t-18 15t-24.5 6.5q-16 0 -28 -8.5t-20.5 -21.5t-13 -29t-6.5 -30 l-47 -320q0 -2 -0.5 -9.5t-0.5 -11.5v-17q0 -11 2 -21.5t7 -18t15 -7.5q6 0 11 4q48 32 82.5 74.5t65.5 90.5q1 2 5.5 9.5t9 16t8.5 17.5l6 12q6 13 9 27t7.5 26t13.5 19.5t28 7.5q14 0 27 -12t13 -28v-2q-25 -72 -64.5 -133t-87.5 -121q-30 -36 -69 -58t-87 -22h-5 q-45 17 -60.5 50.5t-15.5 78.5v24z" />
<glyph unicode="D" horiz-adv-x="523" d="M141 32q0 9 6.5 16t6.5 15q0 2 -4 5t-5 4q-10 15 -11 34t-1 36q0 92 1 182t1 182q-10 0 -19 -5l-19 -10q-10 -5 -21 -9.5t-24 -4.5h-16q-2 3 -10 5.5t-8 6.5v30q5 3 8.5 8.5t5.5 9.5l101 50l4 5q-2 28 3 45t35 17q8 0 17.5 -3t18 -8t13 -13t2.5 -18q50 -2 99 -7.5t88 -24 t63.5 -54.5t24.5 -99q0 -57 -22 -114t-63 -98l-190 -189q-14 -14 -23.5 -20t-27.5 -6q-15 0 -24.5 8.5t-9.5 23.5zM226 122h-4l8 5q1 1 7.5 6.5l14.5 12.5l16 15q8 7 13 12l49 51q25 27 46 57.5t34.5 64t13.5 70.5q0 35 -13 59.5t-34.5 40t-50.5 22.5t-62 7q-3 0 -17.5 -1.5 t-20.5 -6.5v-415z" />
<glyph unicode="E" d="M78 22q-10 40 -15 75.5t-7 75.5q-1 23 0 39.5t-4 36.5q-1 4 -4.5 6t-7 5t-6.5 7.5t-3 14.5q0 8 3 14l7 11q4 6 7.5 12.5t3.5 15.5v15q0 10 -2 34t-4 51t-3.5 51t-2.5 33q-1 17 -9 30t-8 30q0 32 13 45t46 13q7 0 11.5 -6t10.5 -6h4q3 1 9 2.5t8 1.5l131 56q47 20 71 29 t32.5 10t14.5 -2q12 -2 16.5 -7.5t4.5 -16.5q0 -10 -3 -20t-14 -15l-131 -63l-4 -4l-110 -47q-6 -2 -7 -10t-1 -13q0 -8 2 -29l4 -43q2 -23 4.5 -40.5t3.5 -17.5h1l1 1q11 8 35 27l49 40l44 36q19 15 20 15q11 0 20 -11t9 -23t-5 -27t-16 -23l-156 -139v-5q0 -5 -0.5 -11 t-0.5 -12v-11q0 -36 5 -71.5t5 -71.5h4q1 0 9 8t12 13l9 13l26 33l48 61l77 96l11 12q8 8 10 8q3 3 12.5 2.5t13.5 -2.5q5 -2 13 -11t8 -17q0 -12 -12.5 -31.5t-29.5 -40.5l-34 -40q-17 -20 -26 -32l-34 -54q-19 -31 -42 -59.5t-50.5 -49t-58.5 -20.5q-15 0 -21.5 5 t-16.5 18z" />
<glyph unicode="F" horiz-adv-x="427" d="M34 249q0 9 2.5 15t6 11.5t6 11t2.5 13.5q0 30 -4 59.5t-8.5 59.5t-8.5 59.5t-4 59.5q0 21 7.5 29t29.5 8q17 0 28.5 -8.5t22.5 -21.5h5l26 15l41 23l41 22q19 11 27 16q17 9 33 15t35 6q10 0 15 -3t5 -16v-2q-4 -20 -14 -32.5t-23.5 -21.5t-28 -15.5t-27.5 -14.5 q-30 -21 -50.5 -34t-35 -21t-23 -13.5t-13.5 -11.5q0 -3 -0.5 -11.5t-0.5 -10.5q0 -30 1 -60t12 -58l233 110q7 3 10.5 3.5t10.5 0.5q4 0 13 -3t9 -8q0 -23 -15.5 -41t-37.5 -33t-46 -26l-42 -20q-4 -2 -9 -3t-7 -5l-105 -55q-5 -3 -5.5 -5.5t-0.5 -7.5q0 -2 0.5 -5t0.5 -4 l21 -164q3 -24 -11.5 -38t-35.5 -14q-4 0 -10 1.5t-12 4t-10.5 7t-5.5 10.5l-25 197q0 4 -4 7t-8.5 6t-8.5 7t-4 10z" />
<glyph unicode="G" horiz-adv-x="501" d="M374 -87q-15 60 -21.5 127.5t-8.5 126.5q-9 -5 -15 -15.5t-10.5 -22t-9.5 -23t-12 -19.5q-23 -26 -50 -47.5t-64 -21.5q-30 0 -59.5 13t-53 34.5t-38 49.5t-14.5 59q0 43 14 87.5t34 82.5l12 21l18 27l18 26q8 11 11 14l109 115q22 23 55.5 33.5t62.5 12.5q15 2 25 -4.5 t10 -21.5q0 -12 -9.5 -18.5t-22.5 -10.5t-27 -7.5t-22 -8.5q-53 -43 -96 -96.5t-77 -111.5q-11 -35 -23 -67t-12 -70q0 -3 0.5 -13.5t0.5 -13.5q10 -24 30.5 -44t48.5 -20q14 0 29 9t23 22q4 5 14 20l20 32l20 32q10 15 13 21t8.5 15.5l10.5 18.5l8 17q3 7 3 8v4 q-14 -4 -28 -6.5t-29 -2.5q-9 0 -19.5 1.5t-20 5.5t-16 11t-6.5 19q0 5 1 12t4 11q8 7 21.5 10.5t29.5 5.5l31 3q15 1 28 6q11 4 26 11l32 13q16 6 33 11t31 7q3 0 8.5 -2t11.5 -5t10 -6.5t4 -6.5q0 -22 -12 -30.5t-31 -20.5q3 -40 -2.5 -80t-5.5 -80q0 -48 2 -98t10 -97 q1 -2 3 -10.5t4.5 -17.5t4.5 -17t2 -10v-2q0 -14 -10.5 -27.5t-24.5 -13.5q-15 0 -28.5 10t-16.5 24z" />
<glyph unicode="H" horiz-adv-x="367" d="M131 257h-3q0 -41 1.5 -80.5t1.5 -81.5q0 -12 -0.5 -23.5t-3.5 -21t-10.5 -15t-22.5 -5.5q-28 0 -39 29q-5 47 -6 92.5t-6 93.5q-2 14 -11.5 27t-9.5 25q0 9 6.5 15t6.5 17q0 78 -4.5 154.5t-4.5 153.5v17q7 10 14 12t19 2q29 0 37 -17.5t9 -42.5l9 -266q1 -3 3.5 -9.5 t7.5 -6.5q7 0 26 3.5t40 8t38 10t20 10.5q0 7 0.5 25t0.5 25q0 42 -1 83t-4 83q0 7 -3 33.5t-6 57.5l-5 57q-3 27 -3 34q-1 1 -1 6v8q0 13 9.5 19t20.5 6q24 0 35.5 -15t16.5 -37q1 -11 3 -37t5 -56l6 -57l3 -36v-16q0 -5 1.5 -19.5t2.5 -19.5v-410q5 -17 6.5 -28t1.5 -26 q0 -12 -6.5 -25.5t-22.5 -13.5q-14 0 -25.5 7t-20 18t-13.5 24.5t-5 27.5v206z" />
<glyph unicode="I" horiz-adv-x="154" d="M23 566q8 11 14.5 14.5t18.5 3.5q16 0 30.5 -9t16.5 -26q4 -28 4.5 -56.5t-0.5 -56.5l-1 -57q0 -29 2 -57q4 -68 12.5 -141t8.5 -141q0 -20 -8 -30t-31 -10q-19 0 -29 13t-14.5 31t-5.5 36.5t-1 29.5q0 8 -1.5 33.5t-3 60t-3.5 73l-4 73.5l-4 60q-1 25 -1 33v62v61z" />
<glyph unicode="J" horiz-adv-x="323" d="M10 255q0 13 7 25t23 12q9 0 15 -6t10.5 -14.5t8.5 -17t9 -13.5q7 -6 24 -26l36 -42l33 -40q15 -19 17 -23q2 -2 6 -6.5t6 -6.5l4 4q0 1 0.5 10t0.5 20v23v18q0 86 -2.5 170.5t-2.5 170.5v141q3 14 12.5 20.5t22.5 6.5q14 0 27.5 -6t17.5 -21q-2 -125 3.5 -246t5.5 -245 v-42q0 -28 -4.5 -55t-17 -47t-36.5 -20q-2 0 -5.5 0.5t-4.5 0.5q-5 2 -18 10t-15 12l-165 185q-12 13 -15 23.5t-3 24.5z" />
<glyph unicode="K" horiz-adv-x="592" d="M76 143q-11 5 -20.5 16t-9.5 22q0 14 8.5 24t8.5 24q0 23 -5.5 46t-2.5 47l-29 282v2q0 12 10 25t23 11q3 0 8.5 -1.5t12.5 -4t12.5 -5.5t8.5 -6q2 -2 7 -12t6 -13q8 -29 7.5 -64.5t1.5 -66.5q1 -11 2.5 -34.5t4 -47t5.5 -41t6 -17.5l2 1q51 51 89.5 105.5t63.5 121.5 q0 2 2 8l4 13q2 6 3.5 12.5t2.5 9.5l1 6q1 6 3 12.5t4.5 12.5t5.5 6h46q7 0 11.5 -5t7.5 -12t4 -13.5t1 -10.5q0 -1 -1.5 -4.5t-2.5 -4.5v-8q-8 -28 -17 -51t-19.5 -45t-23.5 -44l-28 -47q-5 -8 -16 -17.5t-14 -20.5l-92 -109l-13 -26h4q43 11 82.5 16t78.5 7t79 2t85 1 q1 0 7 0.5t12 1.5t11.5 1.5t7.5 0.5h9q11 0 24.5 -4t17.5 -18q4 -11 -3.5 -23.5t-17.5 -17.5q-3 -1 -10.5 -2t-15.5 -2.5t-15 -3t-10 -1.5h-13q-21 -1 -52.5 -1t-60.5 -1q-34 -1 -72 -2l-148 -30v-6q0 -22 6.5 -43t6.5 -43q0 -20 -10 -35.5t-33 -15.5q-12 0 -26 13t-17 25z " />
<glyph unicode="L" horiz-adv-x="447" d="M32 155q0 77 2.5 153t2.5 154q0 45 -4.5 90t-4.5 90q0 14 8.5 24t22.5 10q24 0 36 -10t17 -25t5 -34v-37q0 -4 0.5 -20t1.5 -34.5t1.5 -34.5t0.5 -20v-33q0 -65 -2 -129t-2 -130v-42q0 -5 1.5 -13.5t2.5 -8.5h8l237 94q8 7 14 7.5t14 0.5q5 0 13 -0.5t15.5 -3t13 -7 t5.5 -13.5q0 -23 -25 -40q-32 -17 -66 -31.5t-69 -23.5l-5 -4q-48 -13 -89.5 -38t-86.5 -46h-9q-27 0 -40 18t-17 42.5t-3 51t1 43.5z" />
<glyph unicode="M" horiz-adv-x="585" d="M34 30q-2 111 -5 222q-4 110 -4 221v29q0 20 0.5 43t0.5 43v28q4 16 12 25.5t25 9.5t30 -10.5t21 -24.5l144 -278q1 -2 7 -12t9 -14q1 -1 3 -2t2 -2l4 9l85 299q9 14 13.5 31.5t10 34.5t14 32t25.5 25h8q27 0 40 -15.5t18 -38t4.5 -47t0.5 -42.5q0 -7 2 -27l3 -47 q2 -27 4 -57.5t3.5 -57.5t3 -47t1.5 -26v-4q1 -9 4 -30l7 -44l6 -45q3 -21 5 -29q1 -5 3.5 -15t6.5 -21l6 -22q3 -10 5 -14q-4 -23 -11.5 -35.5t-32.5 -12.5q-3 0 -9 0.5t-7 0.5q-3 2 -11.5 10t-9.5 11l-16 55l-30 228v9q-1 18 -1 38.5t-0.5 41.5t-2.5 42t-8 39l-5 -6 l-72 -290q-1 -11 -2 -23.5t-5 -24t-12 -19.5t-23 -9q-6 -1 -13 2t-14 8t-12.5 11.5t-6.5 12.5l-127 202l-21 42v-86q0 -61 2.5 -119.5t2.5 -119.5v-18q0 -12 -0.5 -26t-0.5 -26v-18q-4 -12 -11.5 -21t-21.5 -9q-19 0 -29.5 6.5t-17.5 23.5z" />
<glyph unicode="N" horiz-adv-x="445" d="M23 125q0 61 2.5 122.5t5.5 123t4.5 123t-0.5 122.5q3 11 11 16.5t19 5.5q21 0 32 -7.5t16 -20.5t6 -29l2 -32q12 -22 28.5 -42.5t29.5 -41.5q0 -1 1.5 -4.5t2.5 -3.5l15 -23l19 -28l15 -24l7 -10l4 -5l58 -84q4 -4 7 -4h2q-13 106 -21 216.5t-8 218.5v50q8 13 27 13 t28 -9t12 -22.5t3 -29t1 -28.5q0 -1 1 -3.5t2.5 -11t2.5 -26.5l4 -48q3 -31 5.5 -78t6.5 -115v-18l34 -223q1 -8 8.5 -24.5t7.5 -25.5q0 -21 -12 -34t-34 -13q-3 0 -8 2.5t-10 5.5t-9.5 6.5t-6.5 5.5l-161 229q-1 0 -2 3.5t-2 5.5q-6 9 -16 22.5l-19 26.5l-16 24 q-7 10 -7 11l-5 4q-5 -95 -8 -191.5t0 -192.5q-2 -12 -12.5 -21t-21.5 -9q-20 0 -31.5 10.5t-19.5 27.5v87z" />
<glyph unicode="O" horiz-adv-x="330" d="M22 177q1 6 0 32t-0.5 64.5t2 84.5t7 93t16 90.5t27.5 75.5q6 27 29 37.5t65 12.5q27 0 46 -14t32.5 -34.5t23.5 -44.5l18 -43v-5q7 -20 10.5 -59.5t5 -83t1.5 -83.5v-61q0 -30 -8 -71.5t-25.5 -78.5t-45.5 -63t-67 -26q-33 0 -58.5 17t-43 43.5t-26.5 57.5t-9 59z M119 110q2 -11 11.5 -22.5t22.5 -11.5h8q42 38 55 87.5t13 104.5q0 13 -1 40t-3.5 60.5t-6.5 70.5t-10 69.5t-14 56.5t-19 33q-1 -1 -2.5 -4t-1.5 -4q-21 -26 -38 -71t-25.5 -106.5t-7 -138t18.5 -164.5z" />
<glyph unicode="P" horiz-adv-x="526" d="M141 199q1 20 -0.5 40t-3.5 40q-1 5 -2.5 16t-1.5 13q0 1 -2 4.5t-2 4.5l2 2q3 3 2 3v193h-4q-12 -14 -28 -30t-38 -16q-16 0 -30.5 11t-14.5 29v2q0 1 1 3l2 4q1 3 2 5l112 98v55q0 10 12 15.5t20 5.5q13 0 24 -6.5t22 -6.5q10 0 18 6t16 11q38 23 73.5 35t79.5 12 q19 0 45.5 -3.5t51 -12.5t41.5 -25t17 -41q0 -45 -18 -86t-50 -73q-42 -40 -78.5 -71.5t-81.5 -63.5q-1 -1 -2 -2.5t-2 -2.5l-97 -67q-5 -4 -5 -15v-13q0 -29 3.5 -57.5t7.5 -57.5t7.5 -58t3.5 -58q0 -16 -7.5 -28.5t-26.5 -12.5q-14 0 -29.5 11.5t-17.5 26.5zM221 392 l182 139q12 9 24.5 23.5t23 31t17.5 34.5t7 34q0 10 -8.5 15.5t-19.5 8t-22 2.5h-19q-45 0 -82.5 -20.5t-71.5 -43.5q-2 -2 -8 -5.5t-12 -8t-10.5 -8.5t-4.5 -7v-190z" />
<glyph unicode="Q" horiz-adv-x="519" d="M322 80q-10 11 -19 22t-20 20l-2 1q-4 0 -15.5 -16.5t-30 -37t-43 -37t-55.5 -16.5q-30 0 -51 17t-34.5 42.5t-19.5 54.5t-6 53q0 15 2.5 29t1.5 28l10 46l16 70l17 71l11 46q1 6 6 20l10 30l11 31l7 20q5 4 7.5 8t5 7t6 5t10.5 2q15 0 31.5 -7t20.5 -24q2 -8 0 -8.5 t4 -7.5q14 5 29 6.5t29 1.5q27 0 42.5 -16.5t23 -40t9.5 -49t2 -44.5q0 -9 -1 -22l-2 -27q-1 -14 -1.5 -27.5t0.5 -22.5l-21 -97q-1 0 7 -10l14 -16l5 -5l9 -9q5 -5 9 -9.5t5 -5.5q2 -1 3 -4l3 -5l206 -215q1 -1 4 -7t5 -9v-1q0 -1 1 -2q0 -17 -11 -28.5t-26 -11.5 q-8 0 -17.5 1.5t-14.5 6.5zM110 199q-5 -23 0 -44t13 -41q2 -4 5.5 -13t8.5 -9q9 0 21.5 9.5t24.5 23t20 28t8 24.5q0 13 -8.5 21t-8.5 21q0 15 5.5 21t13.5 8t16.5 3t15.5 6q5 4 9.5 22t8 39t5.5 40.5t2 27.5v25q0 14 -1 28.5t-3.5 28.5t-7.5 26h-6q-20 0 -36.5 -11 t-29 -27t-22.5 -34.5t-17 -33.5q-2 -5 -6 -14t-2 -16z" />
<glyph unicode="R" horiz-adv-x="768" d="M76 232l-10 21q-3 8 -3 19q0 9 2.5 16.5t2.5 16.5q0 22 -1.5 41t-3.5 42q-1 3 -7 5t-13 5.5t-12.5 10.5t-5.5 20q0 12 5.5 20.5t11.5 16t11.5 16t5.5 20.5q0 5 -1 18.5t-1.5 28.5t-1 28.5t-0.5 18.5v2v2l6 15q3 6 6 9t8 4.5t13 1.5q21 0 31 -8t14 -18.5t5 -19.5t5 -10 l72 63h4q35 23 74 35.5t82 12.5q13 0 31.5 -3t35 -10.5t28 -19.5t11.5 -30q0 -20 -5 -41t-13.5 -41.5t-20 -39t-24.5 -31.5q-5 -11 -64 -56l-176 -134l480 -30q10 -1 27.5 -1.5t34 -3.5t28.5 -11.5t12 -25.5q0 -9 -2.5 -14.5t-6 -9t-8 -6.5t-8.5 -8h-17h-17q-20 2 -42 5 l-50 7q-28 4 -66 8t-91 7t-123.5 5t-163.5 2q-1 0 -2.5 -3t-1.5 -5q0 -38 6.5 -74.5t6.5 -72.5q0 -7 -1.5 -15.5t-5.5 -16t-10 -12.5t-15 -5q-6 0 -14 2.5t-15.5 7.5t-13.5 11t-7 14zM143 453q0 -25 1 -47t3 -48h3q1 0 5 2t20 13l49 33l93 63q12 7 26 24t26 37t20 39.5 t8 32.5q0 10 -10 10h-16q-15 0 -34 -5t-45.5 -20t-63 -43t-85.5 -75v-16z" />
<glyph unicode="S" horiz-adv-x="549" d="M173 36q16 22 35.5 33t39.5 18l41 13q21 7 41 22q11 6 31 18t39.5 26.5t34 28.5t14.5 24q0 1 -1 1q-2 0 -2 1l-2 2q-5 2 -16 5t-13 4q-129 15 -207.5 26.5t-121 24.5t-56.5 30t-14 43q0 10 4 22t9.5 24t11.5 22t11 16q16 20 42 36t56 28t60 21l56 16q28 2 56.5 13.5 t56.5 15.5q14 0 23 -11t9 -23q0 -17 -6.5 -25.5t-17 -13t-23.5 -7t-26 -5.5l-22 -6q-14 -3 -28 -7l-25 -7q-11 -3 -13 -4l-58 -25q-28 -11 -48.5 -23t-32 -25.5t-10.5 -29.5v-1q10 -14 45 -21t82.5 -12t100 -10t96.5 -15t73 -27t30 -46q0 -11 -4.5 -26t-12.5 -23 q-25 -28 -59.5 -58t-74.5 -55.5t-82.5 -43t-83.5 -20.5q-14 0 -26 10.5t-12 25.5z" />
<glyph unicode="T" horiz-adv-x="449" d="M218 439l-3 21l-3 24l-2 19l-1 8h-8l-114 -34q-5 -8 -17 -8h-17q-14 0 -28.5 12.5t-14.5 27.5q0 11 7.5 21.5t18.5 14.5l161 51q3 11 11.5 22.5t22.5 11.5t23.5 -7t21.5 -11q9 1 30 6l44 10l45 11l29 7q12 2 18 5t19 3q17 0 35 -10t18 -30q0 -13 -9 -22.5t-22 -12.5 l-190 -48v-9q0 -31 5.5 -61t3.5 -60l34 -309v-22q0 -12 -0.5 -24.5t-4 -22.5t-11.5 -16.5t-24 -6.5q-12 0 -25.5 10t-14.5 24l-38 397v8z" />
<glyph unicode="U" d="M297 141q-11 -21 -26.5 -47t-36 -49.5t-44 -39.5t-50.5 -16q-34 0 -54 20t-30.5 49.5t-13.5 62t-3 58.5v26q1 8 2.5 24t4 36.5t4.5 43t4.5 43t4 36.5t2.5 24q-4 10 -2.5 20.5t7 19t14.5 14t20 5.5q3 0 10.5 -2t15.5 -6t14 -8.5t6 -8.5v-38q-14 -108 -18 -172t-3 -99.5 t6 -48.5t10 -18q12 -5 23.5 -2.5t27.5 18.5t38.5 49.5t54.5 89.5q2 3 4 11l4 11q-2 66 -0.5 133t4.5 133q4 10 13 16t19 6q4 0 12 -3t16 -8.5t14 -11.5t6 -12v-295q7 -45 11 -90.5t11 -90.5q0 -5 3 -20l5 -34l5 -33q3 -15 4 -19v-12q0 -36 -39 -39q-17 -2 -28.5 14.5 t-18.5 43t-11.5 59.5t-7.5 64t-6 56.5t-8 36.5z" />
<glyph unicode="V" horiz-adv-x="522" d="M42 477q-11 8 -21 26t-10 32q0 15 12 23t25 8q16 0 27 -6t21.5 -20t23.5 -38l35 -60q21 -37 53 -87.5t79 -117.5q3 -8 11 -19l10 -15l4 8l55 207l4 9l39 139q-3 18 8 32t28 14t34.5 -11.5t17.5 -30.5v-4l-114 -427q0 -2 -2 -12.5t-4 -22.5l-4 -26q-2 -12 -3 -19 q-1 -9 -1.5 -19.5t-4 -19t-10.5 -14.5t-21 -6q-24 0 -36 13t-18 31.5t-10 39t-13 34.5z" />
<glyph unicode="W" horiz-adv-x="517" d="M243 342l-4 4q-6 -24 -7 -48l-2 -49q0 -8 -0.5 -27t-1.5 -40.5t-1.5 -41t-0.5 -26.5q-3 -12 -13 -21t-23 -9q-5 0 -12.5 1.5t-15 4t-14 6.5t-7.5 9l-63 221l-46 181q-1 1 -4 7t-6 13.5t-5.5 14.5t-2.5 11q0 14 13.5 22.5t24.5 8.5q37 0 47 -31l55 -199q5 2 6.5 11t1.5 11 q0 1 2 10l5 32l11.5 61t20.5 100q8 10 19 13.5t25 3.5q13 0 20.5 -4t10.5 -18l68 -286q2 -5 4 -11t4 -11l7 59l6 50q3 24 6 51.5t8 63.5l12 85l17 117q3 20 17.5 25t32.5 5q1 0 4.5 -1.5t4.5 -2.5q2 -1 8 -2t8 -2l7 -16q3 -6 3 -14q-2 10 -7 -9t-12.5 -62t-16 -106.5 t-16.5 -143t-14.5 -172t-10.5 -191.5q-3 0 -10 1t-14.5 3t-13.5 5t-8 8z" />
<glyph unicode="X" horiz-adv-x="467" d="M203 169q-1 -2 -6 -10.5t-7 -11.5q-8 -11 -14.5 -33t-15.5 -43.5t-21 -38t-29 -16.5q-6 0 -14.5 2.5t-15.5 7t-12 11t-5 13.5q0 14 6.5 24t6.5 23l63 130q1 2 2.5 7t2.5 7v3v1q-20 28 -40 59l-35 59l-27 47q-12 21 -16 29q-8 10 -8 21t5.5 19.5t15.5 14t22 5.5 q17 0 27 -6t17 -20l34 -69q17 -33 39 -66h1q6 7 11.5 21t12.5 41l16 69l26 105q2 9 12.5 17.5t18.5 8.5h4q14 -3 22 -4.5t12 -5t5.5 -11.5t2.5 -23q-1 -15 -6.5 -40t-13 -55t-16.5 -62t-18 -59l-16 -49q-7 -21 -11 -29v-9l194 -194q6 -6 7.5 -11.5t1.5 -12.5 q0 -16 -9.5 -25.5t-24.5 -9.5q-14 0 -29.5 7.5t-26.5 18.5l-143 143h-8z" />
<glyph unicode="Y" horiz-adv-x="424" d="M226 -6q1 5 2.5 19t4.5 30l4 29q2 13 3 19q5 45 12.5 89.5t7.5 89.5v15l-16 8q-4 2 -20 13l-35 25l-39 29q-19 14 -29 23q-6 4 -19 16l-28 25l-28 26l-18 17q-8 8 -15 18.5t-7 21.5q0 17 13 24.5t28 7.5q10 0 21 -2.5t19 -10.5q38 -42 85 -84t96 -72l4 13l42 270 q2 11 12.5 14t19.5 3q26 0 39.5 -12.5t13.5 -41.5v-2q0 -1 -1.5 -5t-3 -9t-2.5 -9.5t-1 -5.5q-3 -12 -8 -46.5t-11 -81.5l-13 -105l-14 -114l-14 -111q-7 -54 -13 -95q1 -10 1.5 -23t-3.5 -25t-12.5 -20t-23.5 -8q-19 0 -33.5 10t-20.5 28z" />
<glyph unicode="Z" horiz-adv-x="748" d="M74 38q0 2 1.5 6.5t2.5 6.5q4 7 17 26l40 60l69 108l109 173h-28l-195 -30h-10q-7 0 -17 3.5t-19 9t-15 12.5t-6 15q0 15 8 22.5t20 11t25 3.5h23l215 29q1 0 13 0.5t17 0.5h28q15 0 27.5 -3.5t20.5 -12.5t8 -27q0 -10 -6.5 -19.5t-13.5 -14.5l-165 -265 q-15 -10 -23.5 -30.5t-19.5 -34.5q2 -3 5 -3.5t6 -0.5h6l469 64q13 0 29.5 -8t16.5 -25q0 -15 -6 -24.5t-19 -18.5q-26 0 -69.5 -1.5t-110 -9t-159.5 -22t-218 -39.5q-3 -1 -7 -1h-9q-7 0 -17.5 2t-20 6t-16 11t-6.5 18v2z" />
<glyph unicode="[" horiz-adv-x="412" d="M47 -42q0 41 4 81t4 81q0 37 -3 74t-5 74q-2 48 -2 95t-2 95q-3 49 -5.5 102.5t-7.5 99.5q-2 17 -5 33t-3 33v7q1 3 9 11t12 10q14 7 35.5 9t35.5 8l69 31q34 15 66 32q3 8 14 8h19q27 0 27 -25q0 -10 -6 -18t-14.5 -14t-18 -10.5t-16.5 -7.5l-144 -64l-4 -4v-14v-20 l22 -335q12 -167 7 -336q-1 -3 0.5 -9.5t3.5 -8.5h7h7l173 77q6 -2 12.5 1.5t13.5 3.5q17 0 29 -7.5t12 -25.5q0 -6 -1 -15t-8 -12l-270 -110q-3 -1 -6 -1h-8q-32 0 -42.5 21t-10.5 50z" />
<glyph unicode="\" horiz-adv-x="563" d="M10 879v1q0 17 14.5 26.5t28.5 9.5q17 0 27.5 -7.5t18.5 -21.5l427 -795q14 -15 19.5 -26t5.5 -30q0 -18 -8.5 -27.5t-28.5 -9.5q-12 0 -26.5 5.5t-20.5 17.5z" />
<glyph unicode="]" horiz-adv-x="420" d="M138 -57q-1 4 -5.5 15.5t-6.5 14.5v2q0 12 14 19t32.5 11t35.5 5t23 1h18q13 0 28 -0.5t28 -1t17 -0.5v8q-1 25 -7 70l-16 125l-25 200q-15 120 -34 294q0 2 0.5 8.5t0.5 14t-0.5 14t-0.5 9.5v11l-1 14q-1 7 -2 12l-1 5l-5 4l-131 -13q-1 -1 -5.5 -2.5t-6.5 -1.5 q-8 0 -21 1.5t-25 6t-21 11.5t-9 19q0 23 16.5 30t34.5 8q5 0 23.5 1.5t40 3t39.5 3t23 1.5q19 1 39 4.5t37 3.5q19 0 36.5 -5.5t23.5 -27.5q0 -1 -0.5 -6t-1 -11t-1.5 -11t-1 -6v-22q0 -19 1.5 -40.5t5 -56t9.5 -87.5l15 -135l21 -197l27 -275q0 -1 0.5 -5t0.5 -6 q0 -14 -7 -25t-21 -11q-19 0 -36 2.5t-36 2.5q-23 0 -47 -2t-47 -7q-2 0 -6.5 -1.5t-9.5 -3t-9 -2.5t-5 -1q-2 0 -7.5 0.5t-11.5 1.5t-11.5 2.5t-8.5 3.5z" />
<glyph unicode="^" horiz-adv-x="354" d="M115 821q1 2 3.5 8.5t5.5 13.5l6 13q3 7 4 10q4 8 14.5 9.5t20.5 1.5q8 0 14 -1.5t12 -7.5l11 -18l19 -26l18 -26l12 -16q1 -1 4 -4.5t3 -4.5q3 -4 10 -15l15 -22l15 -23q7 -11 10 -15q3 -5 3.5 -7.5t0.5 -7.5q0 -11 -9 -15t-24 -4q-13 0 -23.5 5.5t-15.5 13.5l-67 99 l-4 -3q-3 -4 -6 -11t-11 -21l-20 -37q-13 -22 -36 -58q-2 -2 -10.5 -5t-11.5 -3q-6 0 -15.5 2.5t-17.5 6.5t-12.5 9.5t-0.5 12.5z" />
<glyph unicode="_" horiz-adv-x="596" d="M17 40q0 5 4 15.5t9 12.5l505 98q2 0 9.5 -0.5t9.5 -0.5q4 -7 8.5 -11t8.5 -8.5t6.5 -11t2.5 -18.5t-12 -21t-23 -11l-465 -84h-1q-24 0 -35 8t-27 26v6z" />
<glyph unicode="`" horiz-adv-x="250" d="M234 608q-11 -18 -28.5 -15t-35.5 15.5t-34.5 29t-24.5 25.5l-11 11q-6 6 -9.5 13t-4 14t5.5 15q11 15 25 19t30 -7q15 -21 31 -33t29.5 -23.5t21.5 -25.5t5 -38z" />
<glyph unicode="a" horiz-adv-x="399" d="M256 279l-21 -38l-24 -48q-13 -26 -28.5 -51.5t-32 -46.5t-34.5 -35.5t-37 -17.5q-8 0 -18 1.5t-20 5t-16.5 10t-6.5 17.5q1 102 15 185.5t44 147t77 105.5t114 60q2 0 7.5 0.5t7.5 0.5q30 1 43.5 -27.5t20 -90t9 -158t10.5 -231.5q3 -11 3.5 -19t0.5 -19q0 -15 -9 -22.5 t-23 -7.5q-29 0 -41 16t-16 43q0 1 -1.5 16t-4 34.5t-4.5 39.5t-3 33v4q-2 10 -2.5 25t-2.5 29q-2 17 -3 34zM234 477q-27 -20 -53 -54t-37 -66q-5 -15 -11 -41t-10.5 -51.5t-7.5 -47t-3 -27.5q1 0 2.5 2t2.5 3q62 60 87.5 129.5t29.5 152.5z" />
<glyph unicode="b" horiz-adv-x="384" d="M26 334v2q0 8 5.5 16.5t11.5 14.5v51q0 83 -2.5 162t-10.5 163q0 13 9 19.5t19 6.5q28 5 42.5 -13t20.5 -49t6 -69.5t-1.5 -74.5t-1.5 -64t7 -38q13 5 13.5 4.5t0 -1t2 2t18.5 14.5q22 17 51.5 21.5t55.5 4.5q61 -9 85 -37.5t21 -70t-28.5 -92t-63.5 -104t-84 -105.5 l-89 -99q-9 0 -20.5 3t-21.5 9t-17 15t-7 21v261zM131 257q0 -3 0.5 -14t1.5 -23.5t1.5 -23.5t0.5 -14v-10q0 -8 0.5 -16.5t0.5 -15.5v-11q11 2 31 28t41 60.5t39 69.5t27 55q4 10 8 24t5.5 28.5t-2 26.5t-14.5 19q-18 0 -38.5 -9t-40 -23t-35 -30.5t-22.5 -31.5 q-1 -5 -1.5 -17.5t-1.5 -26.5l-1 -27v-18z" />
<glyph unicode="c" horiz-adv-x="354" d="M23 120q-7 30 0.5 71t24 82.5t41 78.5t52 59t56 24.5t54.5 -25.5q0 -1 1 -5t2 -16.5t1.5 -35t0.5 -61.5q1 -2 2.5 -6.5t1.5 -6.5q-3 -11 -11.5 -20.5t-21.5 -9.5q-17 0 -27.5 5.5t-15.5 26.5q2 3 1 12.5t-3.5 21.5t-4.5 24t-2 19q-1 0 -3 -2l-2 -2q-17 -30 -31.5 -66.5 t-22 -74t-5 -74.5t21.5 -67q14 0 26 11.5t20 21.5l34 41q16 21 30 44q6 10 9 18t7.5 13t11.5 8t21 3q16 0 30 -7.5t14 -24.5q0 -23 -20.5 -57.5t-50 -66.5t-62.5 -54.5t-58 -22.5q-24 0 -46.5 9.5t-39 25.5t-26.5 38t-10 48z" />
<glyph unicode="d" horiz-adv-x="412" d="M274 158q-1 0 -13.5 -22t-33.5 -48t-49.5 -48t-60.5 -22q-44 0 -73.5 27t-29.5 74q-2 24 6.5 57t25 68.5t40 69t50.5 58t56.5 36.5t59.5 4v14q0 26 -1.5 53.5t-3 63t-3 82t-1.5 111.5q3 11 10.5 14.5t16.5 3.5q23 0 36.5 -15t16.5 -37q-2 -34 -1.5 -69.5t3.5 -80.5 t9.5 -102t16.5 -134l24 -178l33 -233v-34q0 -6 -4.5 -9t-11 -4.5t-13 -2t-9.5 -0.5q-15 0 -32 8.5t-20 23.5l-37 267q0 3 -2.5 3.5t-4.5 0.5zM98 136q0 -3 -0.5 -10.5t0 -15.5t2.5 -14t8 -6q25 -1 51.5 19t48.5 49.5t36.5 63.5t16 61t-13 41.5t-49.5 6.5q-43 -38 -71.5 -87 t-28.5 -108z" />
<glyph unicode="e" horiz-adv-x="445" d="M441 284q-2 -18 -4.5 -28t-8.5 -18t-17 -16l-30 -24l-47 -41t-68 -65l-33 -31q-17 -16 -35.5 -28.5t-38.5 -20.5t-42 -8q-43 0 -63 29t-20 67q0 25 1.5 42t7.5 44l-19 18q-8 7 -8 20q0 12 5.5 16t13 5.5t14.5 3.5t10 8l7 22l12 33l11 34l8 21q7 17 15.5 34.5t20 31.5 t27 23t36.5 9q12 0 29.5 -11t33.5 -26.5t27 -32.5t11 -29q0 -15 -7 -27.5t-17.5 -23t-22.5 -19.5l-22 -17q-1 0 -4 -2t-5 -3l-5 -4l-7 -8q-4 -4 -7.5 -8t-4.5 -5q-3 -3 -11 -9l-19 -14l-19 -14q-8 -7 -11 -9l-4 -8q-2 -4 -3 -17l-4 -31q-2 -17 -3.5 -34.5t-1.5 -28.5 q0 -1 1 -2q2 -2 3 -2q8 0 15 7t15 10l160 148l41 63q5 7 19.5 15.5t29.5 9t26.5 -9.5t11.5 -39zM221 362q5 4 4 12t-5.5 14t-11.5 7.5t-13 -7.5q-3 -4 -11 -16l-15 -24l-12 -22q-5 -9 -2 -7z" />
<glyph unicode="f" horiz-adv-x="293" d="M66 216q-22 -4 -34.5 3.5t-17.5 19t-4.5 23t4.5 14.5q3 1 13.5 8t12.5 9q1 0 3 1l2 3v18q0 56 -6.5 110.5t-6.5 109.5q0 36 1.5 75t13 72t36.5 54t72 21h19q11 0 20.5 -2.5t16.5 -9t7 -18.5q0 -18 -8.5 -23.5t-21.5 -7t-27 -4t-24 -15.5q-2 -2 -5 -10.5t-3 -11.5 q-2 -7 -4 -19t-3.5 -24t-3 -21.5t-1.5 -10.5v-8q0 -6 -0.5 -15t-0.5 -19v-15v-39q0 -18 1 -35.5t3 -35.5t5 -40h8l135 80q14 3 25 10t25 7t29 -7t15 -22q0 -11 -5 -16t-8 -14q-4 -1 -15 -6t-15 -7l-25 -16l-37 -22l-35 -21l-21 -13l-17 -12q-10 -7 -20 -15l-16 -13l-7 -5 v-10l26 -85q-1 -3 -0.5 -6.5t4.5 -5.5l47 -143q5 -18 -7.5 -30t-28.5 -12q-18 0 -35 9.5t-22 28.5l-55 181z" />
<glyph unicode="g" horiz-adv-x="416" d="M72 -349q-4 11 0.5 25t18.5 18q23 -10 48 -13t50.5 -1t50.5 8t48 14q23 19 32 49.5t7 83t-13 131.5l-30 192q0 3 0.5 9t-0.5 11.5t-3.5 8.5t-6.5 0q-13 -25 -30.5 -54.5t-40 -55t-50 -42.5t-61.5 -17q-30 0 -52.5 17.5t-22.5 50.5q0 25 10.5 63t28.5 80.5t42 84.5t50 76 t53 55.5t52 21.5q10 0 26.5 -3.5t32 -10.5t27 -16t11.5 -21v-81l65 -472q0 -40 -1.5 -76.5t-13 -67.5t-36.5 -55t-72 -39q-6 -3 -25 -5t-43.5 -3t-52 0t-50 4.5t-36.5 10.5t-13 19zM228 378q-10 -11 -26.5 -35t-33.5 -53t-33.5 -60.5t-26.5 -58.5t-12.5 -46t8.5 -23 q21 11 45 36.5t45.5 57t38 65t23 60.5t1 43.5t-28.5 13.5z" />
<glyph unicode="h" horiz-adv-x="388" d="M38 489q2 60 -5 120t-7 119q0 19 11 23.5t25 4.5q20 0 33 -11t15 -31q9 -109 10.5 -215.5t14.5 -215.5q30 57 62 94t61.5 49t54 -4.5t39.5 -65t18 -132t-10 -207.5q-7 0 -17 -0.5t-19.5 0.5t-16.5 4t-8 11q8 75 9 126t-3 84t-11 50.5t-15 25.5t-15.5 8.5t-11.5 -0.5 q-22 -8 -41.5 -39t-33.5 -72t-20.5 -86.5t-3.5 -81.5l-2 -16q-1 -8 -3.5 -15t-8 -11.5t-16.5 -4.5q-21 0 -33.5 7.5t-19 19.5t-8 28t0.5 33z" />
<glyph unicode="i" horiz-adv-x="173" d="M70 38l-17 171l-12 119q-5 48 -8.5 76.5t-5.5 43t-3 19.5t-1 6v4q0 11 9.5 18.5t19.5 7.5q15 0 32.5 -5t23.5 -21q9 -49 12.5 -99t6 -99.5t7 -99.5t16.5 -99q0 -2 1.5 -8t3 -13t2.5 -13t1 -8v-2q0 -1 1 -2q0 -12 -11 -24t-23 -10q-3 1 -14.5 3.5t-15.5 4.5q-3 1 -8 4.5 t-9.5 7.5t-7.5 9t0 9zM14 767q0 7 11.5 12.5t17.5 5.5q15 0 33.5 -8.5t18.5 -25.5t-4.5 -23t-21.5 -6q-18 0 -36.5 12t-18.5 33z" />
<glyph unicode="j" horiz-adv-x="201" d="M-116 -165q0 29 6 41.5t15 13t21 -7.5l25 -18l27 -20q13 -9 26 -11q28 0 46 19.5t28.5 47t14 57.5t3.5 50v6q0 5 -1.5 20t-3.5 44.5t-6 79.5l-11 125l-17 184q0 15 7.5 25t23.5 10q20 0 33 -5.5t24 -24.5q0 -12 1 -26.5t3 -37t5.5 -56t8 -82t10 -116t11.5 -157.5 q0 -33 -5.5 -68t-19.5 -66.5t-38 -56t-60 -35.5q-6 2 -12 -1t-12 -3q-20 0 -43 4t-45 12t-39.5 21.5t-25.5 31.5zM10 728q0 16 12.5 21.5t24.5 5.5q19 0 36 -11t17 -34q0 -13 -13.5 -18.5t-23.5 -5.5q-7 0 -16 3.5t-17.5 9.5t-14 13.5t-5.5 15.5z" />
<glyph unicode="k" horiz-adv-x="399" d="M37 -37q0 5 -1 17t-1.5 25.5t-1 25t-0.5 16.5q-1 28 -0.5 85t1 125.5t1.5 140.5t1 131.5t-0.5 98.5t-2.5 40q0 10 7 20.5t18 8.5q8 0 18.5 -2.5t19.5 -7.5t15.5 -12.5t6.5 -18.5v-292h4l115 131q7 9 13.5 21t13.5 23t16 20t23 12q21 -5 36 -14t15 -32q0 -2 -1.5 -6.5 t-2.5 -6.5l-12 -16l-31 -38l-58 -70l-94 -112l9 -5l194 -20q13 -2 23.5 -14.5t10.5 -23.5q0 -20 -14.5 -28.5t-31.5 -10.5q-1 4 -6 4l-28 3q-22 2 -66.5 6.5t-123.5 16.5l4 -238q0 -20 -7 -30.5t-31 -10.5q-18 0 -31.5 11.5t-19.5 26.5z" />
<glyph unicode="l" horiz-adv-x="153" d="M31 70q0 42 2 82t2 82q-3 114 -2 223.5t-10 224.5q0 19 9 25.5t27 6.5q23 0 39.5 -13.5t17.5 -37.5q-2 -142 3.5 -281.5t5.5 -282.5v-77q-6 -8 -17 -16t-22 -6q-29 5 -42 23.5t-13 46.5z" />
<glyph unicode="m" horiz-adv-x="581" d="M38 326q-2 26 -4.5 52.5t-7.5 52.5q0 22 14.5 28t31.5 6h20q15 -7 21 -17t8 -22t1.5 -25t0.5 -25q1 -5 1 -17t0.5 -25t2 -24t4.5 -14l88 165q6 11 17.5 18.5t25.5 5.5q22 -2 33 -8.5t15.5 -17t5 -25.5t1.5 -33q0 -6 1 -22.5t2.5 -34.5t3 -34t2.5 -22h4l7 27l13 42l13 42 q6 20 9 28q1 2 4 8.5t6 14t6 14t4 9.5q7 11 14.5 11.5t16.5 0.5q25 0 38.5 -12.5t20 -31.5t9.5 -41.5t7 -41.5q1 0 1 -1.5t-1 -2.5l55 -291q4 -4 4.5 -7t0.5 -8q0 -11 -10.5 -21.5t-21.5 -10.5q-15 0 -34.5 11t-22.5 28l-46 237l-5 8q-2 -5 -8.5 -28.5t-15.5 -59.5l-20 -79 l-24 -90q-2 -9 -11.5 -13.5t-16.5 -4.5q-21 0 -34 5t-20 15t-10 24t-5 32q0 4 -2 28l-4 56l-6 64t-4 51v6v3q0 2 -1 4.5t-4 8.5l-29 -69l-46 -169l-10 -62q-1 -6 -5.5 -10.5t-10.5 -7t-12 -3.5t-10 -1q-22 0 -37.5 16t-16.5 35q-1 7 -2 27.5t-3 48.5t-3.5 59t-3.5 59l-3 49 q-2 21 -2 28v4z" />
<glyph unicode="n" horiz-adv-x="414" d="M308 34q-14 20 -23.5 55.5t-18 75t-15.5 77t-14.5 60t-16.5 25.5t-21 -27l-87 -268q-5 -14 -12 -19.5t-23 -5.5q-8 0 -17 2.5t-17 7.5t-13.5 12t-6.5 16q3 12 5.5 44t3.5 74t1.5 88.5t0 87t-1.5 70t-2 38.5q0 10 0.5 20.5t3 19.5t9 14.5t20.5 5.5q19 0 35.5 -16t16.5 -34 q0 -26 -2.5 -51.5t-2.5 -51.5v-27q0 -11 4 -27l10 28q7 20 16 42l15 42l10 27q7 20 21 38.5t37 20.5q15 1 27.5 -8t21.5 -23.5t15 -30t9 -26.5l54 -249l42 -114q1 -1 1 -5v-7q0 -12 -5.5 -23.5t-19.5 -11.5q-17 0 -35 9.5t-25 24.5z" />
<glyph unicode="o" horiz-adv-x="338" d="M26 153l37 257q2 13 11.5 19t21.5 6q22 0 35 -12.5t22 -30.5h1q12 0 21.5 4.5t23.5 4.5q32 0 54.5 -20t36.5 -48.5t20.5 -61.5t6.5 -58q0 -30 -15.5 -67t-41 -70t-57.5 -55t-65 -22q-30 0 -51.5 14t-35 35.5t-19.5 48.5t-6 53v3zM110 147q2 -10 4 -23t6 -23.5t11.5 -16 t21.5 -0.5l28 27q15 15 28.5 32t22.5 36t9 40q4 34 -5 62.5t-25.5 41t-37.5 3t-42 -51.5q-12 -26 -16.5 -60.5t-4.5 -63.5v-3z" />
<glyph unicode="p" d="M55 180q-19 7 -34.5 17t-15.5 33q0 6 3 8t5 6q2 3 8 11l13 18l13 18l8 11q0 13 -1.5 31.5t1 35t11.5 28t30 11.5q12 0 20 -8.5t20 -8.5h4q41 32 84.5 56.5t97.5 24.5q35 0 57.5 -20.5t22.5 -57.5q0 -46 -21 -95t-52.5 -95.5t-68 -87.5t-66.5 -71q-3 -4 -9 -8.5t-11 -9.5 q-6 -5 -13 -12l-8 -230q0 -9 -0.5 -19t-4 -18.5t-10 -14t-18.5 -5.5q-6 0 -16 2.5t-19 7.5t-15.5 12t-6.5 16zM148 117h4q1 0 6 6l13 14l15 17q8 8 12 13q30 22 55 55t40.5 66.5t19 60.5t-9 37.5t-43 -2.5t-82.5 -60q-12 -10 -22 -23t-12 -29z" />
<glyph unicode="q" horiz-adv-x="395" d="M266 156q-16 -32 -32 -57.5t-30.5 -43.5t-25.5 -27.5t-17 -7.5q-11 -7 -20.5 -8t-20.5 -1q-26 0 -44.5 12t-30.5 30.5t-17.5 41.5t-5.5 46q0 44 15.5 89t42.5 84t63 69.5t76 46.5q11 4 35 9t49 4.5t44 -8t21 -27.5q0 -11 -4 -24l-6 -22q2 -75 -1 -149.5t-3 -149.5 q0 -84 7 -167t7 -167q0 -7 -2.5 -16t-7 -16.5t-11.5 -11.5t-17 -2q-28 -2 -41.5 30t-18 81.5t-3.5 109t3.5 113t3.5 93.5t-4 50zM110 190q-17 -60 -12 -77.5t23 -6t43.5 45t49 74.5t40 83t16.5 71q-30 -12 -54.5 -33t-44 -46.5t-34.5 -54t-27 -56.5z" />
<glyph unicode="r" horiz-adv-x="357" d="M68 43q-2 36 -6.5 96.5t-10 125.5t-11.5 123t-10 90q0 13 12 17t23 4q14 0 29.5 -8t19.5 -22q0 -4 1 -14.5t1.5 -21.5t1.5 -21.5t1 -14.5v-9v-6q0 -2 1 -5t3 -10q2 2 4.5 5t3.5 4q16 23 31 40.5t31 33.5l35 32l46 41l9 7q3 3 5.5 4.5t5.5 2t8 0.5q17 0 34.5 -11.5 t17.5 -31.5q0 -7 -5 -14.5t-12 -14t-14.5 -11.5t-13.5 -7q-26 -23 -55 -52.5t-54 -63.5t-41 -71t-16 -74q0 -34 5 -67t5 -67v-35q-8 -8 -14 -13t-17 -5q-17 0 -33 14.5t-21 29.5z" />
<glyph unicode="s" horiz-adv-x="412" d="M174 38q0 5 0.5 9t4.5 8q12 15 27 32l29 33q14 16 26 34t20 36v6l-131 -27h-15q-14 0 -34.5 2t-40 8.5t-33 18.5t-13.5 32q1 23 24 51t54 55t63 50l50 36q21 12 50 19.5t53 7.5q20 0 35 -7.5t15 -29.5q0 -9 -1.5 -17t-12.5 -11q-32 3 -60 -4.5t-53 -22.5t-47 -35.5 t-43 -42.5q-6 -7 -15 -19.5t-9 -14.5v-1q26 0 51 5l51 11l51 10q26 5 53 5q10 0 22 -1.5t22.5 -6.5t17 -13.5t6.5 -21.5q0 -19 -9.5 -36.5t-27.5 -41.5l-48 -60q-28 -35 -67 -90q-2 -3 -9.5 -4t-12.5 -1q-14 0 -28.5 12t-14.5 27z" />
<glyph unicode="t" horiz-adv-x="441" d="M119 292q-14 0 -25 -7t-26 -7q-2 0 -10.5 0.5t-10.5 0.5q-4 5 -9 8t-10 6.5t-8.5 8.5t-3.5 14q0 15 12 24.5t28 16.5t32.5 13t26.5 14v44q0 74 -7 148.5t-7 147.5q0 20 10 26t27 6q20 0 29.5 -11.5t13.5 -28t4 -35t1 -31.5q0 -13 2 -46t4 -70t4 -70t3 -46q4 1 15.5 5.5 t24.5 8.5l24 9q12 4 17 6q26 11 54 24.5t57 13.5q20 0 30.5 -13.5t10.5 -31.5q0 -13 -10 -19t-21 -11l-182 -68q-3 -2 -6 -3.5t-6 -4.5v-32q0 -35 1.5 -72.5t6.5 -72.5q5 -30 11 -59t6 -59q0 -9 -6 -24t-19 -15q-27 0 -44 16t-19 43l-10 114l-11 119h-4z" />
<glyph unicode="u" horiz-adv-x="350" d="M221 95q-7 -15 -14 -32.5t-16 -31.5t-22 -23.5t-33 -9.5q-35 0 -58 17.5t-37.5 44t-20.5 57.5t-6 58l8 242q-1 7 3.5 14.5t12 14t17 10.5t17.5 4q23 0 39 -14.5t16 -37.5v-10q-11 -18 -19 -47t-12.5 -62.5t-5.5 -68.5t2.5 -64t11.5 -49.5t21 -24.5q5 0 15.5 5t22.5 19 t25 39.5t23 67.5t15 102t3 144q4 11 11.5 12t15.5 1q9 0 15 -0.5t13 -7.5q5 -5 11 -15t6 -11l17 -443q0 -15 -8 -25t-23 -10q-5 0 -12 1t-14 4t-12.5 7.5t-6.5 10.5l-17 100z" />
<glyph unicode="v" horiz-adv-x="388" d="M127 143l-110 267q-1 1 -1 2v4q0 9 5.5 15.5t13.5 11.5q2 0 8 0.5t8 0.5q19 0 27 -6l23 -16q4 -15 10 -31l16 -41l25 -61l38 -94l5 -5q3 5 5 13l9 28l19 58l34 103q8 13 11 30t7 32t12.5 25t26.5 10q17 0 33 -13.5t16 -32.5q0 -9 -6 -19.5t-12 -17.5l-122 -406h-6 q-4 0 -11.5 1t-15.5 3.5t-14 5.5t-7 7l-47 122v4z" />
<glyph unicode="w" horiz-adv-x="507" d="M141 48q-6 23 -35 118l-81 273q0 2 -1.5 8.5t-1.5 8.5q2 12 18 14.5t24 1.5q22 -3 32.5 -14t17.5 -32l58 -191l4 -5q12 20 14 46t5.5 50.5t13.5 44.5t38 28q6 0 13 -2.5t13.5 -7t11.5 -10t7 -11.5l54 -173l11 -15q4 18 11 58l13 83l11 81l7 52q0 2 0.5 7t0.5 7 q8 9 22 13.5t25 2.5q4 -1 10.5 -4.5t12.5 -9t9.5 -11.5t3.5 -11l-57 -410q-1 -6 -7 -9.5t-13.5 -6t-15 -3t-11.5 -0.5q-24 9 -41.5 29.5t-31 45.5t-24 51.5t-22.5 47.5l-4 1q-7 -7 -11.5 -31t-7.5 -51t-5 -48.5t-2 -23.5q-2 -14 -18.5 -22t-29.5 -6q-14 2 -24.5 13.5 t-16.5 22.5z" />
<glyph unicode="x" horiz-adv-x="431" d="M60 -97q-1 7 5.5 27.5t17.5 48.5l22 62l24 63l20 55q8 25 10 38q0 2 -0.5 6t-0.5 5q-18 11 -36.5 29.5t-36.5 38.5l-35 42q-17 21 -32 37v4q0 16 11.5 25t26.5 9q23 0 42.5 -16.5t35.5 -36.5l28 -36q12 -16 21 -16h4q1 5 5 15l10 33l19 58l30 92q2 9 13 11.5t19 2.5 q15 0 27.5 -10t12.5 -27v-6l-70 -240l163 -140l4 -12v-2q0 -17 -12.5 -25t-26.5 -8q-15 0 -36.5 16t-43.5 35l-41 35q-18 16 -27 16h-4q-14 -13 -23 -36t-16 -51l-14 -56q-7 -29 -16.5 -53.5t-22.5 -42.5t-33 -23q-13 0 -28.5 9t-15.5 24z" />
<glyph unicode="y" horiz-adv-x="342" d="M223 -275q-2 21 -2.5 51t-0.5 63t0.5 67t2.5 62v36q-5 7 -12 14.5t-24.5 30l-49.5 66.5l-86 125q-21 22 -27 36.5t-4 23.5t10.5 13t16.5 4q20 0 36 -9t29 -23t23 -31l21 -31l15 -23l18 -28l15 -23l7 -10l12 -13v105q0 50 -2 97.5t-2 96.5q0 14 10 23t24 8q17 -2 25.5 -6 t17.5 -16q8 -11 7.5 -26t0.5 -29q4 -95 6.5 -189.5t2.5 -189.5q-1 -9 -1 -36.5v-62.5l1 -73q1 -38 1.5 -69.5t1 -52t1.5 -19.5q0 -15 -10.5 -22t-25.5 -7q-20 0 -29.5 5.5t-14.5 15t-7 21.5t-7 25z" />
<glyph unicode="z" horiz-adv-x="752" d="M125 40q0 2 0.5 6t1.5 5l143 271q3 7 7.5 19.5l8.5 24.5l7 23q3 10 3 12v11q-33 0 -72 -15.5t-77 -26.5t-71 -5.5t-54 47.5q0 12 14 19.5t23 7.5q2 0 12.5 -2t12.5 -2q29 3 58 12l57 18q29 9 57.5 15.5t56.5 4.5q12 0 26.5 -0.5t27 -4t21.5 -12.5t9 -25q0 -14 -4.5 -29 t-12.5 -26l-118 -274v-9l72 34h4l326 102h16q8 0 18.5 -1.5t19.5 -5t15 -10.5t6 -18q2 -13 -16 -23t-51 -19.5t-78.5 -20t-98.5 -26t-111.5 -37.5t-117.5 -54q-3 1 -15 -3t-26.5 -9.5t-28 -10t-19.5 -4.5q-16 0 -34 11.5t-18 29.5z" />
<glyph unicode="{" horiz-adv-x="391" d="M156 44q3 40 7.5 80t5.5 80.5t-3 80.5t-19 79q-11 -4 -22 -10l-21 -13q-10 -6 -21 -10.5t-23 -4.5q-17 0 -32.5 11t-15.5 31q0 9 10.5 18t24.5 18l27 17q13 8 18 14q10 13 11.5 31t1.5 32q-8 38 -10.5 82.5t3 89t19.5 87t38.5 76t60 56t83.5 27.5h19q13 0 24.5 -3t20 -10 t8.5 -20q3 -13 -3.5 -19.5t-19 -10t-30 -6t-35.5 -8t-35 -16t-29 -29.5q-29 -41 -38 -85t-8 -89.5t6.5 -92t5.5 -92.5q23 -7 36 -36.5t19 -71t7 -90t0 -93.5t-3 -82t-1 -56q9 0 18 7.5t18 17t18.5 17t20.5 7.5h3q13 -11 15 -14t2 -17q0 -18 -9 -37t-23.5 -34.5t-33 -26 t-36.5 -10.5q-25 0 -40.5 13t-24.5 32t-12 41.5t-3 41.5z" />
<glyph unicode="|" horiz-adv-x="165" d="M22 910q0 20 7.5 24t24.5 4q23 0 33 -9.5t18 -29.5q11 -130 15 -259t7 -260q2 -78 0.5 -158.5t11.5 -158.5q5 -5 5 -11v-10q0 -20 -14 -31t-31 -11q-11 0 -20 5.5t-16 14.5t-11 19.5t-5 19.5v14v24v24v14q-2 125 -3 247.5t-5 246.5q-3 71 -10 141t-7 140z" />
<glyph unicode="}" horiz-adv-x="296" d="M18 -76q0 12 12.5 19t29 12t33 9t24.5 10q29 23 52.5 56t23.5 71q0 18 -10.5 30t-26.5 21t-34.5 18t-35 21t-28.5 29.5t-14 45.5q0 10 4 20.5t9 19.5l9 16q4 7 4 10v2l-4 4q-7 7 -8.5 17t-1.5 25q3 37 18 73l30 73q15 36 25 74t4 79q0 5 -1 18t-8.5 26t-24 23t-47.5 10 q-6 3 -15 11t-15 18t-6.5 20.5t9.5 17.5t33.5 8.5t66.5 -4.5q19 0 41 -13t38 -39.5t19.5 -68t-14.5 -98.5l-16 -76q-8 -38 -26 -71l-17 -30q-9 -16 -9 -34v-4q11 6 22 3t19.5 -11.5t13.5 -20t5 -22.5q-2 -14 -14 -21.5t-25.5 -15t-25 -18t-11.5 -29.5q0 -12 7 -19.5t17 -13 t20.5 -10t17.5 -8.5l31 -17q15 -8 27 -21t19.5 -31t7.5 -43q0 -33 -17.5 -69.5t-45.5 -68t-63 -52t-70 -20.5q-8 0 -18 2.5t-19 7.5t-15 12t-6 17z" />
<glyph unicode="~" horiz-adv-x="408" d="M39 502q0 5 0.5 8.5t1.5 8.5l15 42q7 21 17.5 39.5t24 32.5t31.5 20q7 0 13 -1.5t12 -9.5l57 -72q8 -5 13.5 -12t15.5 -7q7 0 13 11t9 16q6 9 10.5 20t10 21t12 16.5t16.5 6.5q11 0 14.5 -9t3.5 -23q0 -21 -7 -44.5t-18.5 -42.5t-25.5 -31.5t-29 -12.5q-18 -1 -34 8 t-30.5 22.5t-28.5 28.5t-27 26q-10 0 -18.5 -14t-16 -30.5t-15 -30t-14.5 -13.5t-16.5 7t-9.5 19z" />
<glyph unicode="&#xa1;" horiz-adv-x="121" d="M26 667q0 -9 8 -17t15 -13h16q18 0 29.5 6.5t11.5 22.5q0 6 -4 11.5t-10.5 10.5t-15 7.5t-15.5 1.5q-10 -2 -22.5 -10.5t-12.5 -19.5zM26 374q0 -9 0.5 -16.5t5.5 -17.5v-301q0 -2 4.5 -5t10 -6t11 -4.5t7.5 -1.5q18 0 26.5 10.5t13.5 21.5q0 7 -0.5 23.5t-0.5 34.5 t0.5 34.5t0.5 23.5q0 4 0.5 18.5t1.5 31.5t1.5 32t0.5 19t-0.5 18t-1 30.5t-1.5 32t-1 22.5q-2 16 -10 28.5t-30 12.5t-30.5 -10.5t-8.5 -30.5z" />
<glyph unicode="&#xa2;" horiz-adv-x="354" d="M137 383q2 56 3 87t5 46t11.5 17t21.5 -1q19 -1 26.5 -6t9 -16t0 -30t0.5 -48q21 7 40 4.5t34.5 -16.5t26 -40.5t13.5 -68.5q1 -2 2.5 -6.5t1.5 -6.5q-2 -5 -9 -9t-17 -6t-20 -3t-16 -1q0 5 -2.5 13t-6 17t-8.5 17t-11 14q-2 2 -9 2.5t-16 1.5q-4 -70 -4.5 -126t7.5 -101 q5 1 9.5 3.5t9.5 10.5q6 10 9 18t7.5 13t11.5 8t21 3q16 0 30 -7.5t14 -24.5q0 -29 -28 -59t-65 -52q2 -18 3.5 -35.5t1.5 -20.5q0 -20 -14.5 -27t-31.5 -7q-12 0 -23.5 18.5t-19.5 41.5q-3 -1 -10 -1q-24 0 -46.5 9.5t-39 25.5t-26.5 38t-10 48q-8 30 -1.5 65.5t23 71 t41 68.5t51.5 58zM139 72v17q0 10 0.5 19.5t0.5 17.5v9q0 26 -0.5 66t-1.5 86q-11 -27 -18 -55.5t-9 -56.5t3 -54.5t19 -48.5h6z" />
<glyph unicode="&#xa3;" horiz-adv-x="521" d="M-50 337q0 17 12 24.5t26 10.5l48 5q0 21 0.5 42t0.5 43q0 45 -4.5 90t-4.5 90q0 28 24 42t61.5 17t82 -3t85.5 -17t72.5 -24.5t42.5 -27t-4 -23.5t-67 -14q-39 -6 -78.5 2t-70.5 17t-50.5 13t-19.5 -11q0 -4 2.5 -27t5 -49.5t5 -49t2.5 -26.5v-33v-43l118 12q17 0 32 -6 t15 -26q0 -5 -6.5 -11t-14.5 -11t-17 -8.5t-13 -1.5l-116 -13q2 -18 0 -42.5t-2.5 -53t1.5 -59t11 -60.5q61 35 106 46.5t78 7.5t56 -18t39 -30l30 -27q12 -12 25 -12q5 0 14 -3.5t17.5 -9.5t14.5 -13.5t6 -16.5q0 -23 -25 -40q-10 -4 -28.5 2t-40.5 17l-46 24 q-24 13 -47 23t-42.5 14t-32.5 -3q-24 -6 -42.5 -13.5t-35.5 -15.5t-35 -17.5t-40 -19.5h-9q-27 0 -40 18t-17 42.5t-3 51t1 43.5q0 39 0.5 78t1.5 78l-46 -5q-13 0 -25.5 8.5t-12.5 22.5z" />
<glyph unicode="&#xa4;" horiz-adv-x="498" d="M46 70q1 5 8.5 18t18.5 30l27 38l30 43q-4 20 -4 45v3l29 202l-17 36q-7 17 -15 32l1 2v2q5 15 18.5 21t27.5 2q16 -5 26 -15q9 -37 22 -49.5t35 6.5h1q12 0 21.5 4.5t23.5 4.5q6 0 11.5 -1t11.5 -3l25 40l35 52q5 8 16 7.5t19 -2.5q14 -4 24 -16.5t5 -29.5q0 -1 -0.5 -3 t-1.5 -2l-60 -99q17 -30 25 -66.5t8 -64.5q0 -21 -7.5 -45.5t-21.5 -48.5l47 -68v-5q0 -2 0.5 -4t0.5 -3v-2q-5 -16 -19 -21t-28 -1q-11 3 -22 14.5t-23 27.5q-23 -26 -50.5 -42t-55.5 -16q-20 0 -35 5.5t-27 15.5q-20 -35 -43.5 -61.5t-52.5 -25.5q-6 1 -13 5.5t-12 10.5 t-8 13t-1 14zM200 239q2 -10 4 -23t6 -23.5t11.5 -16t21.5 -0.5l28 27q15 15 28.5 32t22.5 36t9 40q4 34 -5 62.5t-25.5 41t-37.5 3t-42 -51.5q-12 -26 -16.5 -60.5t-4.5 -63.5v-3z" />
<glyph unicode="&#xa5;" horiz-adv-x="446" d="M44 292q-2 19 9 26.5t25 11.5q23 8 47 15t59 15v33l-13 12q-3 3 -15 19l-27 35l-28 39l-20 30q-5 6 -14 21l-20 32l-18.5 32.5t-11.5 21.5q-5 10 -9 22.5t0 22.5q5 17 19.5 20t28.5 -2q10 -2 19.5 -7.5t15.5 -16.5q23 -51 55.5 -105t70.5 -97l8 11l120 245q5 11 16 10 t20 -3q50 -15 34 -67v-2l-12 -18l-29 -46l-37 -60l-37 -59l-29 -46q-11 -19 -11 -20q-8 -8 -10 -42q53 11 127 28h5q4 0 9.5 -2t11 -5.5t9.5 -7.5t4 -8q0 -13 -7 -24.5t-18 -16.5q-35 -13 -69 -22l-69 -19q1 -12 1.5 -24t1.5 -25l32 10q16 5 31 13q22 7 33.5 9.5t28.5 2.5 q13 0 29 -5t18 -20q-1 -4 -5.5 -15.5t-6.5 -13.5t-9.5 -7t-11.5 -7q-34 -5 -67 -19l-65 -28q2 -33 3 -71t-1.5 -70.5t-10 -54.5t-21.5 -22q-18 5 -29 19t-12 33l-6 137q-11 -3 -22 -5t-22 -3q-17 0 -34.5 10.5t-17.5 29.5q20 20 44 32.5t51 21.5v55q-20 -5 -39.5 -10.5 t-39.5 -12.5q-7 0 -17.5 2t-20 6t-16.5 10.5t-8 15.5z" />
<glyph unicode="&#xa6;" horiz-adv-x="141" d="M31 348q4 41 7.5 81.5t5.5 81.5q0 9 -0.5 23.5t2.5 28t11 22t25 7.5q16 -2 25 -13t14 -26l-10 -103q-5 -51 -9 -102h-71zM94 313q-2 -25 -2 -44.5t1 -38.5l1 -38v-44q0 -24 2.5 -48t2.5 -48q0 -8 -1 -17t-4 -17t-9.5 -13.5t-16.5 -5.5q-18 0 -27 12t-14 27q-2 23 -2 43 l-1 39q-1 20 -1 39v43q0 18 1.5 31t4 24.5t4.5 24.5t4 31h57z" />
<glyph unicode="&#xa7;" horiz-adv-x="495" d="M41 15q0 5 0.5 9t4.5 8q28 8 69.5 24.5t80 38.5t64 46.5t21.5 48.5v6l-131 -27h-15q-14 0 -34.5 2t-40 8.5t-33 18.5t-13.5 32q-2 22 11 48t34.5 50t49.5 42.5t58 25.5q-14 2 -27.5 6t-24.5 10.5t-18 17t-7 24.5q1 23 24 51t54 55t63 50l50 36q21 12 50 19.5t53 7.5 q20 0 35 -7.5t15 -29.5q0 -9 -1.5 -17t-12.5 -11q-32 3 -60 -4.5t-53 -22.5t-47 -35.5t-43 -42.5q-6 -7 -15 -19.5t-9 -14.5v-1q26 0 52 5l51 11l51 10q25 5 52 5q10 0 22 -1.5t22.5 -6.5t17 -13.5t6.5 -21.5q8 -28 -0.5 -53t-29 -47t-50.5 -42t-65 -39h1q10 0 22 -1.5 t22.5 -6.5t17 -13.5t6.5 -21.5q12 -41 -11 -75.5t-66 -64.5t-98 -57l-110 -54q-2 -3 -9.5 -4t-12.5 -1q-14 0 -28.5 12t-14.5 27zM344 384q-49 16 -87.5 3t-66.5 -38t-44.5 -52.5t-21.5 -40.5q16 -10 50.5 -1t70.5 29.5t65 47t34 52.5z" />
<glyph unicode="&#xa8;" horiz-adv-x="302" d="M40 710q0 14 10.5 26t24.5 12q17 0 27.5 -9t20.5 -20v-3q0 -17 -11.5 -30.5t-30.5 -13.5q-13 0 -27 12t-14 26zM169 710q0 14 10.5 26t24.5 12q17 0 27.5 -9t20.5 -20v-3q0 -17 -11.5 -30.5t-30.5 -13.5q-13 0 -27 12t-14 26z" />
<glyph unicode="&#xa9;" horiz-adv-x="716" d="M201 220q-7 30 0.5 71t24 82.5t41 78.5t52 59t56 24.5t54.5 -25.5q0 -1 1 -5t2 -16.5t1.5 -35t0.5 -61.5q1 -2 2.5 -6.5t1.5 -6.5q-3 -11 -11.5 -20.5t-21.5 -9.5q-17 0 -27.5 5.5t-15.5 26.5q2 3 1 12.5t-3.5 21.5t-4.5 24t-2 19q-1 0 -3 -2l-2 -2q-17 -30 -31.5 -66.5 t-22 -74t-5 -74.5t21.5 -67q14 0 26 11.5t20 21.5l34 41q16 21 30 44q6 10 9 18t7.5 13t11.5 8t21 3q16 0 30 -7.5t14 -24.5q0 -23 -20.5 -57.5t-50 -66.5t-62.5 -54.5t-58 -22.5q-24 0 -46.5 9.5t-39 25.5t-26.5 38t-10 48zM66 201q-2 9 -1.5 37t5 67t15 84.5t29 90.5 t46.5 85.5t68 68t93 38t122 -2.5q28 -1 52 -18t44 -42.5t35.5 -55.5t26.5 -56q7 -20 14 -55.5t12.5 -74.5t9 -75t3.5 -57q0 -30 -17.5 -70.5t-46 -76.5t-66 -61t-76.5 -25q-10 0 -37.5 -3t-64 -2.5t-77 8.5t-78 30t-67.5 62t-44 104zM163 134q9 -19 33 -30.5t53.5 -18 t61.5 -8t58 -1.5t43 1t16 1h8l44 40q22 21 41 44.5t31 49t12 52.5q0 12 -5.5 40.5t-14.5 65t-21 75.5t-25.5 71.5t-26.5 53.5t-25 22q-34 10 -76 3t-83.5 -30t-77 -62t-55.5 -93t-20.5 -123t29.5 -153z" />
<glyph unicode="&#xaa;" horiz-adv-x="279" d="M177 428q-6 -8 -14 -20l-16 -24l-19.5 -25t-21.5 -23.5t-23 -17.5t-24 -9q-6 0 -12.5 1t-13 2.5t-11 5t-4.5 8.5q1 51 10 93t29 73.5t51.5 52.5t76.5 30q1 0 5 0.5t5 0.5q20 0 29 -14t13.5 -45t6 -79t6.5 -116q2 -5 2.5 -9t0.5 -10q0 -7 -6 -11t-15 -4q-20 0 -28 8 t-10 22l-1 7.5t-3 17.5t-3 20t-2 16v2q-1 5 -1.5 12.5t-1.5 14.5q-2 9 -2 17zM162 527q-18 -10 -35.5 -27t-24.5 -33q-3 -8 -7 -21t-7 -25.5t-5 -23.5t-2 -14l1 1l2 2q42 30 59 64.5t19 76.5z" />
<glyph unicode="&#xab;" horiz-adv-x="840" d="M224 223q-2 1 -12 5l-22 9l-22 9q-10 4 -12 5l-12 6l-15 7q-11 5 -22.5 12t-19 15.5t-9.5 20t5 25.5q6 13 17 16.5t24 10.5q5 2 18 8l26 13q13 6 25 12.5t17 9.5q8 8 17 10.5t17 9.5l166 104q10 6 18 14.5t16 15.5t17.5 10t21.5 -3q20 -10 26 -30t-2 -39q0 -2 -3.5 -5 t-5.5 -5l-199 -124q-9 -8 -23 -14l-28 -12q-14 -7 -26 -14.5t-17 -17.5q59 -28 113 -58l110 -64q0 -7 4.5 -12.5t8.5 -11t5.5 -12.5t-2.5 -16q-8 -17 -22.5 -21.5t-31.5 3.5q-12 6 -17.5 14t-16.5 15q-30 24 -63.5 43t-68.5 36zM467 212q-2 1 -12 5l-22 9l-22 9q-10 4 -12 5 l-13 6l-14 7q-11 5 -22.5 12t-19 15.5t-9.5 20t5 25.5q6 13 17 16.5t24 10.5q5 2 17 8l26 13l26 13q12 6 17 9q8 8 17 10.5t17 9.5l166 104q10 6 18 14.5t16 15.5t17.5 10t22.5 -3q20 -10 25.5 -30t-2.5 -39q0 -2 -3.5 -5t-5.5 -5l-199 -124q-9 -8 -23 -14l-28 -12 q-14 -6 -26 -13.5t-17 -17.5q59 -29 113 -58.5t110 -64.5q0 -7 4.5 -12.5t8.5 -11t5.5 -12.5t-2.5 -16q-8 -17 -22.5 -21.5t-31.5 3.5q-12 6 -17.5 14.5t-16.5 14.5q-30 24 -63.5 43t-68.5 36z" />
<glyph unicode="&#xac;" horiz-adv-x="558" d="M60 371q0 17 12 24.5t26 10.5l368 34q17 0 32 -6t15 -26q0 -2 -1 -6.5t-1.5 -21.5t1 -51.5t6.5 -95.5q0 -17 -6 -32t-26 -15q-5 0 -11 6.5t-11 14.5t-8.5 16.5t-1.5 13.5l-9 137l-347 -34q-13 0 -25.5 8.5t-12.5 22.5z" />
<glyph unicode="&#xad;" horiz-adv-x="409" d="M54 253q0 17 12 24.5t26 10.5l251 25q17 0 32 -6t15 -26q0 -5 -6.5 -11t-14.5 -11t-17 -8.5t-13 -1.5l-247 -27q-13 0 -25.5 8.5t-12.5 22.5z" />
<glyph unicode="&#xae;" horiz-adv-x="647" d="M43 230q-2 9 -1.5 37t5 67t15 84.5t29 90.5t46.5 85.5t68 68t93 38t122 -2.5q28 -1 52 -18t44 -42.5t35.5 -55.5t26.5 -56q7 -20 14 -55.5t12.5 -74.5t9 -75t3.5 -57q0 -30 -17.5 -70.5t-46 -76.5t-66 -61t-76.5 -25q-11 0 -38 -3t-63.5 -2.5t-77 8.5t-78 30t-67.5 62 t-44 104zM191 292q-4 6 -5.5 9.5t-1.5 8.5q0 4 1 7t1 7q0 10 -0.5 18t-1.5 18q-2 3 -11 5t-9 13q0 5 3 9t6 7t6 7t3 9q-1 5 -1.5 20.5t-0.5 20.5v2q4 8 14.5 11.5t19.5 3.5q11 0 16 -3.5t7.5 -8t3 -8.5t2.5 -5q9 15 25.5 33t35 32t38.5 22.5t36.5 6t27.5 -19.5t13 -53 q0 -32 -13 -57.5t-35 -44.5t-50.5 -31t-59.5 -16l251 -13q5 -1 12.5 -0.5t15.5 -1.5q-1 16 -7 45.5t-15.5 65t-21 72.5t-24 67.5t-25.5 50t-24 20.5q-34 10 -76 3t-83.5 -30t-77 -62t-55.5 -93t-20.5 -123t29.5 -153q9 -19 33 -30.5t53.5 -18t61.5 -8t58 -1.5t43 1t16 1h8 l34 31q18 17 34.5 35t30 37t21.5 40q-16 -4 -37.5 -5.5t-53.5 1.5t-77.5 11.5t-110.5 24.5q-1 -1 -1 -2q-1 -1 -1 -2q0 -8 1 -20.5t2.5 -26.5t2.5 -26.5t1 -20.5q0 -6 -3.5 -13.5t-13.5 -7.5q-3 0 -10 0.5t-14.5 1.5t-13 3t-6.5 5zM243 391q0 -11 0.5 -21t1.5 -21h1q1 0 3 1 l11 5l25 15l49 28q6 3 13 10.5t13.5 16t10.5 17t4 13.5t-5 5h-8q-8 0 -18 -2t-24 -8.5t-33 -19t-44 -32.5v-7z" />
<glyph unicode="&#xaf;" horiz-adv-x="406" d="M24 714q0 17 12 24.5t26 10.5l251 25q17 0 32 -6t15 -26q0 -5 -6.5 -11t-14.5 -11t-17 -8.5t-13 -1.5l-247 -27q-13 0 -25.5 8.5t-12.5 22.5z" />
<glyph unicode="&#xb0;" horiz-adv-x="279" d="M122 609q8 0 14.5 2t15.5 2q21 0 36 -9t24.5 -21.5t13.5 -27t4 -25.5q0 -13 -10.5 -29.5t-27 -30.5t-38 -24t-43.5 -10q-23 1 -46 12.5t-30 33t10.5 53.5t75.5 74h1zM172 532q-1 25 -13.5 31.5t-27.5 0.5t-27 -20.5t-13 -31.5q5 -15 18.5 -18.5t27.5 1t25 15t10 22.5z " />
<glyph unicode="&#xb1;" horiz-adv-x="437" d="M42 75q0 17 12 24.5t26 10.5l100 10q1 25 -1 51t-8 51h-4q-15 0 -24.5 -2t-18.5 -4.5t-19.5 -4.5t-25.5 -2q-34 0 -34 35q0 21 16 28t37.5 9.5t42.5 3.5t30 9l16 181q2 17 8 20t20 3q2 0 7.5 -0.5t7.5 -0.5q8 -6 14 -17v-36q0 -34 -2 -67t-2 -67h4l110 15q8 -2 14.5 -3 t11.5 -3.5t8 -8t3 -16.5v-3q-9 -9 -20 -12.5t-28 -7.5l-40 -10q-24 -5 -59 -17q-5 -2 -5 -6v-7q0 -26 4 -52t5 -52l83 8q17 0 32 -6t15 -26q0 -5 -6.5 -11t-14.5 -11t-17 -8.5t-13 -1.5l-247 -27q-13 0 -25.5 8.5t-12.5 22.5z" />
<glyph unicode="&#xb2;" horiz-adv-x="305" d="M56 260q0 4 0.5 6.5t4.5 7.5l32 46q16 24 29 48.5t21 50.5t8 54q-17 0 -30.5 -10t-26 -22t-24 -22t-24.5 -10q-4 0 -9 1t-9 3t-7 5.5t-3 8.5v1q4 7 10.5 14t14 13.5t14.5 11.5l14 10q8 7 18.5 14t21.5 13.5t23.5 10.5t24.5 4q21 0 29 -12.5t8 -31.5q0 -37 -13 -72 t-31 -66v-2l-16 -26h6q24 13 52 22.5t56 15.5h2q11 0 17.5 -3.5t6.5 -15.5q0 -8 -4 -14q-5 -2 -12 -4t-13 -1l-57 -19l-93 -47q-9 -4 -18 -4q-8 0 -15.5 6.5t-7.5 14.5z" />
<glyph unicode="&#xb3;" horiz-adv-x="224" d="M83 276q0 5 1 8t5 6q1 0 3 0.5l4 1t3.5 1t2.5 0.5q2 0 6 2.5t7.5 5.5t6 5.5t4.5 3.5q13 14 18 30t5 36v7v10.5t-1.5 9.5t-4.5 5q-1 1 -4 1h-5q-11 0 -20.5 -5t-18.5 -11.5t-19 -11.5t-21 -5q-8 0 -12 5.5t-4 13.5q0 9 9 23.5t20 30.5l22 32q11 16 15 27h-3q-11 0 -20 -5 t-17 -11t-16 -11t-16 -5q-6 0 -12.5 3.5t-6.5 12.5q0 8 7 15.5t18 14.5t25 13t27.5 10t25 6.5t17.5 2.5q17 0 17 -21v-7q-8 -24 -19.5 -43t-22.5 -41h5q6 0 11.5 1t12.5 1q19 0 29.5 -13.5t15.5 -33.5q0 -3 0.5 -11t0.5 -11q0 -36 -13.5 -61.5t-39.5 -45.5q-13 -12 -28 -12 q-8 0 -14 6t-6 14z" />
<glyph unicode="&#xb4;" horiz-adv-x="250" d="M87 629q-3 26 4.5 41t20 27t27.5 25t29 36q15 12 28 8t24 -21q6 -9 5.5 -16.5t-4.5 -15t-9.5 -13.5t-9.5 -12l-23 -28q-15 -17 -32 -30.5t-33.5 -16.5t-26.5 16z" />
<glyph unicode="&#xb5;" horiz-adv-x="449" d="M129 95l-26 -167q-3 -12 -10 -16.5t-15 -5.5t-15.5 -1t-11.5 -1q-18 0 -27.5 10t-9.5 26l25 522q0 1 7.5 11.5t12.5 15.5q8 7 15 7.5t18 0.5q10 0 18.5 -1t13.5 -12q-3 -87 3.5 -149.5t18 -105.5t26.5 -69.5t29.5 -41t26.5 -19.5t18 -5q15 5 25 25.5t14 49.5t3.5 64 t-5.5 69t-14.5 63.5t-22.5 47.5v11q0 24 19 38.5t46 14.5q20 0 29 -14.5t6 -28.5l42 -227l14 -52q8 -29 13.5 -58t7.5 -54.5t-2.5 -42t-18 -20t-37.5 10.5q-8 4 -10 20t-3 31.5t-1.5 25t-5.5 1.5q-17 -26 -44.5 -44t-67.5 -18q-23 0 -38.5 9.5t-26 24.5t-18.5 32.5t-17 33.5 z" />
<glyph unicode="&#xb6;" horiz-adv-x="452" d="M330 53q-2 23 -2 43l-1 40q-1 19 -1 38v43q0 39 4 91.5t9 107.5l10 108q5 52 7 91v7q-23 -3 -42 -7.5t-19 -10.5q0 -74 -8 -147.5t-13 -148.5q-5 -71 -7.5 -141t-9.5 -141q-7 -14 -15 -20t-25 -6t-29.5 13.5t-10.5 29.5q0 1 1 8.5t2.5 16t3 15.5t1.5 9q0 1 0.5 9 t1.5 18.5t1.5 21t0.5 16.5q5 79 11.5 158.5t6.5 159.5v19q-15 -12 -27 -28.5t-25 -32.5t-29 -27.5t-38 -13.5q-21 -2 -35.5 5.5t-24 20.5t-13.5 30t-4 35q0 55 17 93.5t45.5 64.5t65.5 40t78 19.5t83 3.5t80 -9q4 1 14 1q18 -3 29 -19q18 -13 9 -29l-11 -114 q-6 -63 -11.5 -129t-9 -129t-3.5 -113q0 -24 2.5 -48t2.5 -48q0 -8 -1 -17t-4 -17t-9.5 -13.5t-16.5 -5.5q-18 0 -27 12t-14 27z" />
<glyph unicode="&#xb7;" horiz-adv-x="129" d="M25 284q0 14 10.5 26t24.5 12q17 0 27.5 -9t20.5 -20v-3q0 -17 -11.5 -30.5t-30.5 -13.5q-13 0 -27 12t-14 26z" />
<glyph unicode="&#xb8;" horiz-adv-x="414" d="M113 -270q0 5 0.5 9t4.5 8q12 15 34.5 20t46 8.5t43.5 10.5t28 28q8 18 -2.5 26t-28.5 10t-36 0.5t-25 -2.5q-14 0 -34.5 2t-40 8.5t-33 18.5t-13.5 32q6 33 20 60t31.5 45t35 25.5t30 2t16.5 -26t-6 -57.5q-6 -7 -15 -19.5t-9 -14.5v-1q26 -5 58 -3.5t62.5 -1.5t57 -17 t42.5 -51q9 -42 -1 -64.5t-37 -36t-69 -24t-95 -29.5q-2 -3 -9.5 -4t-12.5 -1q-14 0 -28.5 12t-14.5 27z" />
<glyph unicode="&#xb9;" horiz-adv-x="141" d="M26 316q-2 12 -2 22l-1 20v19v22q0 39 6.5 77.5t9.5 77.5q0 4 -0.5 11.5t2 14t8.5 11t19 3.5q12 -1 19 -6.5t11 -12.5q-8 -51 -14.5 -101.5t-6.5 -102.5q0 -12 2 -24t2 -24q0 -4 -1 -8.5t-3 -8.5t-7 -7t-13 -3q-14 0 -21 6.5t-10 13.5z" />
<glyph unicode="&#xba;" horiz-adv-x="207" d="M26 308l19 115q1 6 6 9t11 3q12 0 18.5 -6t11.5 -14q7 0 12 2t12 2q17 0 28.5 -9t19 -21.5t11 -27.5t3.5 -26q0 -14 -8.5 -30.5t-21.5 -31.5t-30 -24.5t-34 -9.5q-16 0 -27 6t-18 15.5t-10 22t-3 23.5v2zM69 305q2 -4 3 -10t3 -11t6 -7t11 0l15 12l14 14.5t12 16t5 17.5 q2 16 -2.5 28.5t-13.5 18.5t-20 1.5t-22 -23.5q-6 -12 -8.5 -27.5t-2.5 -28.5v-1z" />
<glyph unicode="&#xbb;" horiz-adv-x="659" d="M106 109q0 7 4.5 14t11 13t13.5 11t13 8l160 224q4 6 4 11v3l-274 105q-2 0 -5.5 4.5t-6.5 10.5l-7 12q-3 5 -3 7q-1 7 5.5 12.5t15 9t17.5 5t12 1.5q39 -23 80.5 -39t83.5 -30l86 -29q43 -14 85 -33q7 -9 10 -14.5t3 -13.5q0 -20 -13.5 -34t-24.5 -30l-45 -65l-41 -62 q-21 -31 -45.5 -61t-55.5 -61q-2 -3 -11.5 -9t-13.5 -8q-8 -2 -18 0t-19 7t-15 13t-6 18zM294 142q0 7 4.5 14t11 13t13.5 11t13 8l160 224q4 6 4 11v3l-274 105q-2 0 -5.5 4.5t-7.5 10.5l-6 12q-3 5 -3 7q-1 7 5.5 12.5t15 9t17.5 5t12 1.5q39 -23 80.5 -39t83.5 -30 l86 -29q43 -14 85 -33q7 -9 10 -14.5t3 -13.5q0 -20 -13.5 -34t-24.5 -30l-45 -65l-41 -62q-21 -31 -45.5 -61t-55.5 -61q-2 -3 -11.5 -9t-13.5 -8q-8 -2 -18 0t-19 7t-15 13t-6 18z" />
<glyph unicode="&#xbc;" horiz-adv-x="558" d="M27 292q-2 12 -3 23l-1 22v21v23q0 43 7.5 84.5t11.5 84.5q0 5 -0.5 13t2 15.5t10 12t22.5 3.5t23 -7t13 -14q-9 -55 -17 -110t-8 -111q0 -13 2.5 -26t2.5 -27q0 -4 -1 -9t-3.5 -9.5t-8.5 -7.5t-15 -3q-17 0 -25 7t-12 15zM57 -73q5 40 13 75l18 75v7l144 612 q3 14 11.5 19.5t25.5 5.5h2q19 -8 24.5 -13.5t5.5 -21.5q0 -10 -3 -21t-5 -21q-1 -2 -3 -11l-6 -20l-6 -20q-2 -9 -3 -12v-3l-114 -469l-20.5 -94.5t-18.5 -94.5q-3 -10 -12.5 -14.5t-21 -4.5t-21.5 6.5t-10 16.5v3zM395 173h-3q-16 0 -32 -2.5t-32 -6t-32.5 -6.5t-32.5 -3 h-3q-9 6 -17 14t-7 18q1 5 8 10t10 8q0 2 4 7l9 13l8 13q4 6 5 7q0 3 3 3l73 110q0 1 1 1.5t2 1.5l8 9l12 13l12 13l7 9q4 5 9 5.5t11 0.5q5 0 11.5 -1.5t12 -4t9.5 -7.5t4 -11v-145q14 0 25.5 6.5t25.5 6.5q28 0 28 -26q0 -5 -2 -10.5t-8 -7.5l-69 -24v-2q0 -38 8 -75.5 t8 -75.5q0 -10 -6 -19.5t-20 -9.5q-4 0 -8.5 0.5t-8.5 2.5t-10 7.5t-6 7.5v5zM329 211q3 0 10.5 1t16 2.5t16 2.5t11.5 2q1 1 4.5 2t4.5 1t2 1.5t1 2.5v86l-3 4l-63 -100v-5z" />
<glyph unicode="&#xbd;" horiz-adv-x="601" d="M26 257q-1 14 -2 26v24q-1 12 -1 24v26q0 47 6 93.5t9 94.5q0 5 -0.5 14t2 17t8 13.5t17.5 4.5q11 -1 17.5 -8t9.5 -16q-7 -61 -13 -122t-6 -124q0 -15 2 -29.5t2 -28.5q0 -5 -1 -10.5t-3 -10.5t-6.5 -8.5t-11.5 -3.5q-13 0 -19 7.5t-10 16.5zM84 -34q5 35 12 65l15 66v5 l124 533q3 12 10 17t22 5h1q17 -7 21.5 -12t4.5 -19q0 -9 -2.5 -18.5l-4.5 -17.5q0 -2 -3 -10l-4 -18l-5 -17q-2 -8 -3 -10v-3l-99 -408q-8 -41 -17 -82t-16 -82q-2 -8 -10.5 -12t-18 -4t-18.5 5.5t-9 14.5v2zM301 49q0 6 1 8.5t5 9.5l41 58q21 30 38 60.5t27.5 63 t10.5 68.5q-23 0 -40 -12.5t-33 -28t-31 -28t-32 -12.5q-5 0 -11 1t-11.5 3.5t-9 7t-3.5 10.5v2q4 9 12.5 17.5t18 16.5t19.5 15l17 12q11 9 24.5 18t28 17t30.5 13t32 5q27 0 37.5 -15.5t10.5 -39.5q0 -46 -17 -90t-41 -83v-3l-20 -32h7q32 17 68.5 28t71.5 19h3 q13 0 22.5 -4t9.5 -20q0 -10 -6 -18q-6 -1 -15.5 -3.5t-16.5 -1.5l-74 -24l-120 -58q-12 -6 -24 -6q-11 0 -20.5 8t-9.5 18z" />
<glyph unicode="&#xbe;" horiz-adv-x="693" d="M115 247q0 5 1 8.5t8 6.5q1 0 3.5 0.5t6 1t5.5 1t3 0.5q4 0 9.5 2.5t10.5 6l9 6.5t6 4q20 15 27 33t7 40v8v11.5t-2 10t-6 6.5h-7h-7q-15 0 -29 -5.5t-27.5 -12.5t-27.5 -12.5t-31 -5.5q-11 0 -17 6t-6 15q0 10 13 26l29 34l33 35q15 18 22 30h-6q-16 0 -29 -5.5 t-24.5 -12t-23 -12t-23.5 -5.5q-9 0 -18.5 3.5t-9.5 13.5q0 9 10 17.5t26.5 16t37 14t40 11.5t36 7.5t25.5 2.5q25 0 25 -23v-8q-11 -27 -27.5 -48t-33.5 -45h7q10 0 17.5 1t17.5 1q27 0 43 -15t23 -37q0 -3 0.5 -12t0.5 -12q0 -40 -19.5 -68t-57.5 -51q-19 -13 -42 -13 q-11 0 -19.5 7t-8.5 16zM202 -45q5 33 12 63l15 64v6l129 521q2 12 9.5 17t22.5 5h2q17 -7 22 -12t5 -19q0 -8 -2.5 -17.5l-4.5 -17.5q-1 -2 -3 -10l-5 -17l-5 -17q-3 -8 -3 -10v-2l-102 -400q-8 -40 -17.5 -80t-16.5 -80q-3 -9 -11.5 -12.5t-18.5 -3.5t-19 5t-9 14v3z M523 187h-2q-16 0 -31 -2.5t-29.5 -6t-29.5 -6t-31 -2.5h-2q-8 5 -16 13t-6 18q0 4 7 9t9 9q0 1 4 7l8 12l7 13q4 5 5 7q0 2 3 2l68 108q0 1 1 1.5t2 1.5l7 9l11 12l11 13l7 9q4 5 8.5 5.5t10.5 0.5q5 0 10.5 -1.5t10.5 -4t9 -7t4 -10.5v-143q13 0 23.5 6.5t24.5 6.5 q25 0 25 -25q0 -5 -1.5 -10.5t-7.5 -7.5l-64 -23v-2q0 -37 7.5 -74t7.5 -73q0 -11 -6 -20t-18 -9q-4 0 -8 0.5t-8 2.5t-9.5 7.5t-5.5 6.5v6zM462 224q3 0 9.5 1.5t14.5 3t15 2.5t11 1q1 1 4 2t5 2l1 1t1 2v84l-2 4l-59 -97v-6z" />
<glyph unicode="&#xbf;" horiz-adv-x="366" d="M203 621q0 -15 -10 -28.5t-24 -13.5q-16 0 -31.5 11t-15.5 35q0 21 11 29t26 8q16 0 30 -10t14 -31zM260 375q-5 -28 -16 -52.5t-24.5 -46.5l-28 -43.5t-26.5 -45.5q-1 -3 -6 -13l-10 -21l-10 -24q-4 -11 -6 -16q-4 -11 -3.5 -14.5t0.5 -13.5q35 0 62.5 16t55.5 39 q13 10 23.5 22.5t26.5 12.5q13 0 27.5 -12t14.5 -30q0 -7 -1.5 -8.5t-6.5 -5.5q-25 -24 -49 -44t-49 -35t-52.5 -23.5t-60.5 -8.5q-27 0 -47 15.5t-20 51.5q0 24 6.5 48.5t17 48t22.5 45.5l23 40q7 13 18 28t21 32t18 34t8 31q0 8 -6 12t-6 12q0 19 9 26.5t23 7.5 q22 0 37 -19t15 -44v-2z" />
<glyph unicode="&#xc0;" horiz-adv-x="509" d="M25 63q0 60 8 119t14 118q0 3 1 13.5t2.5 22.5t3 22.5t1.5 13.5v4l42 312q-2 20 6.5 35.5t31.5 15.5q25 3 41.5 -6.5t27.5 -24.5t18 -33t15 -33q5 -14 13 -33l18 -48l24 -71l34 -102l4 -4q7 4 26 13l42 19l40 19q19 9 27 12q1 2 5.5 3.5t6.5 2.5h2q10 0 15 -7.5t5 -14.5 q0 -11 -5 -19t-11.5 -14.5t-14 -12.5t-11.5 -13l-99 -50q-4 -5 -4 -8q0 -8 8 -25l14 -27q3 -6 10 -22l15 -33l15 -33l11 -21v-3q0 -36 -36 -36q-11 0 -23 2.5t-18 14.5l-67 143h-9q-38 -29 -81 -57t-88 -48q-7 -36 -8.5 -73t0.5 -74q-8 -11 -16 -16.5t-22 -5.5t-21 6.5 t-10 16t-3 20.5v20zM114 257q30 12 58 32l55 37q3 2 7.5 4t8.5 5t10 7v8l-92 262l-4 4q-3 -6 -7.5 -34t-10 -72.5t-11.5 -102.5l-14 -124v-26zM246 818q-11 -18 -28.5 -15t-35.5 15.5t-34.5 29t-24.5 25.5l-11 11q-6 6 -9.5 13t-4 14t5.5 15q11 15 25 19t30 -7 q15 -21 31 -33t29.5 -23.5t21.5 -25.5t5 -38z" />
<glyph unicode="&#xc1;" horiz-adv-x="509" d="M25 63q0 60 8 119t14 118q0 3 1 13.5t2.5 22.5t3 22.5t1.5 13.5v4l42 312q-2 20 6.5 35.5t31.5 15.5q25 3 41.5 -6.5t27.5 -24.5t18 -33t15 -33q5 -14 13 -33l18 -48l24 -71l34 -102l4 -4q7 4 26 13l42 19l40 19q19 9 27 12q1 2 5.5 3.5t6.5 2.5h2q10 0 15 -7.5t5 -14.5 q0 -11 -5 -19t-11.5 -14.5t-14 -12.5t-11.5 -13l-99 -50q-4 -5 -4 -8q0 -8 8 -25l14 -27q3 -6 10 -22l15 -33l15 -33l11 -21v-3q0 -36 -36 -36q-11 0 -23 2.5t-18 14.5l-67 143h-9q-38 -29 -81 -57t-88 -48q-7 -36 -8.5 -73t0.5 -74q-8 -11 -16 -16.5t-22 -5.5t-21 6.5 t-10 16t-3 20.5v20zM114 257q30 12 58 32l55 37q3 2 7.5 4t8.5 5t10 7v8l-92 262l-4 4q-3 -6 -7.5 -34t-10 -72.5t-11.5 -102.5l-14 -124v-26zM44 776q-3 26 4.5 41t20 27t27.5 25t29 36q15 12 28 8t24 -21q6 -9 5.5 -16.5t-4.5 -15t-9.5 -13.5t-9.5 -12l-23 -27 q-15 -18 -32 -31.5t-33.5 -16.5t-26.5 16z" />
<glyph unicode="&#xc2;" horiz-adv-x="509" d="M25 63q0 60 8 119t14 118q0 3 1 13.5t2.5 22.5t3 22.5t1.5 13.5v4l42 312q-2 20 6.5 35.5t31.5 15.5q25 3 41.5 -6.5t27.5 -24.5t18 -33t15 -33q5 -14 13 -33l18 -48l24 -71l34 -102l4 -4q7 4 26 13l42 19l40 19q19 9 27 12q1 2 5.5 3.5t6.5 2.5h2q10 0 15 -7.5t5 -14.5 q0 -11 -5 -19t-11.5 -14.5t-14 -12.5t-11.5 -13l-99 -50q-4 -5 -4 -8q0 -8 8 -25l14 -27q3 -6 10 -22l15 -33l15 -33l11 -21v-3q0 -36 -36 -36q-11 0 -23 2.5t-18 14.5l-67 143h-9q-38 -29 -81 -57t-88 -48q-7 -36 -8.5 -73t0.5 -74q-8 -11 -16 -16.5t-22 -5.5t-21 6.5 t-10 16t-3 20.5v20zM114 257q30 12 58 32l55 37q3 2 7.5 4t8.5 5t10 7v8l-92 262l-4 4q-3 -6 -7.5 -34t-10 -72.5t-11.5 -102.5l-14 -124v-26zM71 939q1 2 3.5 8.5t5.5 13.5l6 13q3 7 4 10q4 8 14.5 9.5t20.5 1.5q8 0 14 -1.5t12 -7.5l11 -18l19 -26l19 -26q8 -12 11 -16 q1 -1 4 -4.5t3 -4.5q3 -4 10 -15l15 -22l15 -23q7 -11 10 -15q3 -5 3.5 -7.5t0.5 -7.5q0 -11 -9 -15t-24 -4q-13 0 -23.5 5.5t-15.5 13.5l-67 99l-4 -3q-3 -4 -6 -11t-11 -21l-20 -37q-13 -22 -36 -58q-2 -2 -10.5 -5t-11.5 -3q-6 0 -15.5 2.5t-17.5 6.5t-12.5 9.5 t-0.5 12.5z" />
<glyph unicode="&#xc3;" horiz-adv-x="509" d="M25 63q0 60 8 119t14 118q0 3 1 13.5t2.5 22.5t3 22.5t1.5 13.5v4l42 312q-2 20 6.5 35.5t31.5 15.5q25 3 41.5 -6.5t27.5 -24.5t18 -33t15 -33q5 -14 13 -33l18 -48l24 -71l34 -102l4 -4q7 4 26 13l42 19l40 19q19 9 27 12q1 2 5.5 3.5t6.5 2.5h2q10 0 15 -7.5t5 -14.5 q0 -11 -5 -19t-11.5 -14.5t-14 -12.5t-11.5 -13l-99 -50q-4 -5 -4 -8q0 -8 8 -25l14 -27q3 -6 10 -22l15 -33l15 -33l11 -21v-3q0 -36 -36 -36q-11 0 -23 2.5t-18 14.5l-67 143h-9q-38 -29 -81 -57t-88 -48q-7 -36 -8.5 -73t0.5 -74q-8 -11 -16 -16.5t-22 -5.5t-21 6.5 t-10 16t-3 20.5v20zM114 257q30 12 58 32l55 37q3 2 7.5 4t8.5 5t10 7v8l-92 262l-4 4q-3 -6 -7.5 -34t-10 -72.5t-11.5 -102.5l-14 -124v-26zM38 784q0 5 0.5 8.5t1.5 8.5l14 42q8 21 18.5 39.5t24 32.5t31.5 20q7 0 13 -1.5t12 -9.5l57 -72q8 -5 13.5 -12t15.5 -7 q7 0 13 11t9 16q6 9 10.5 20t10 21t12 16.5t16.5 6.5q11 0 14.5 -9t3.5 -23q0 -21 -7 -44.5t-18.5 -42.5t-25.5 -31.5t-29 -12.5q-18 -1 -34 8t-30.5 22.5t-28.5 28.5t-27 26q-10 0 -18.5 -14t-16 -30.5t-15 -30t-14.5 -13.5t-16.5 7t-9.5 19z" />
<glyph unicode="&#xc4;" horiz-adv-x="509" d="M25 63q0 60 8 119t14 118q0 3 1 13.5t2.5 22.5t3 22.5t1.5 13.5v4l42 312q-2 20 6.5 35.5t31.5 15.5q25 3 41.5 -6.5t27.5 -24.5t18 -33t15 -33q5 -14 13 -33l18 -48l24 -71l34 -102l4 -4q7 4 26 13l42 19l40 19q19 9 27 12q1 2 5.5 3.5t6.5 2.5h2q10 0 15 -7.5t5 -14.5 q0 -11 -5 -19t-11.5 -14.5t-14 -12.5t-11.5 -13l-99 -50q-4 -5 -4 -8q0 -8 8 -25l14 -27q3 -6 10 -22l15 -33l15 -33l11 -21v-3q0 -36 -36 -36q-11 0 -23 2.5t-18 14.5l-67 143h-9q-38 -29 -81 -57t-88 -48q-7 -36 -8.5 -73t0.5 -74q-8 -11 -16 -16.5t-22 -5.5t-21 6.5 t-10 16t-3 20.5v20zM114 257q30 12 58 32l55 37q3 2 7.5 4t8.5 5t10 7v8l-92 262l-4 4q-3 -6 -7.5 -34t-10 -72.5t-11.5 -102.5l-14 -124v-26zM34 839q0 14 10.5 26t24.5 12q17 0 27.5 -9t20.5 -20v-3q0 -17 -11.5 -30.5t-30.5 -13.5q-13 0 -27 12t-14 26zM163 839 q0 14 10.5 26t24.5 12q17 0 27.5 -9t20.5 -20v-3q0 -17 -11.5 -30.5t-30.5 -13.5q-13 0 -27 12t-14 26z" />
<glyph unicode="&#xc5;" horiz-adv-x="509" d="M25 63q0 60 8 119t14 118q0 3 1 13.5t2.5 22.5t3 22.5t1.5 13.5v4l42 312q-2 20 6.5 35.5t31.5 15.5q25 3 41.5 -6.5t27.5 -24.5t18 -33t15 -33q5 -14 13 -33l18 -48l24 -71l34 -102l4 -4q7 4 26 13l42 19l40 19q19 9 27 12q1 2 5.5 3.5t6.5 2.5h2q10 0 15 -7.5t5 -14.5 q0 -11 -5 -19t-11.5 -14.5t-14 -12.5t-11.5 -13l-99 -50q-4 -5 -4 -8q0 -8 8 -25l14 -27q3 -6 10 -22l15 -33l15 -33l11 -21v-3q0 -36 -36 -36q-11 0 -23 2.5t-18 14.5l-67 143h-9q-38 -29 -81 -57t-88 -48q-7 -36 -8.5 -73t0.5 -74q-8 -11 -16 -16.5t-22 -5.5t-21 6.5 t-10 16t-3 20.5v20zM114 257q30 12 58 32l55 37q3 2 7.5 4t8.5 5t10 7v8l-92 262l-4 4q-3 -6 -7.5 -34t-10 -72.5t-11.5 -102.5l-14 -124v-26zM127 865q8 0 14.5 2t15.5 2q21 0 36 -9t24.5 -21.5t13.5 -27t4 -25.5q0 -13 -10.5 -29.5t-27 -30.5t-38 -24t-43.5 -10 q-23 1 -46 12.5t-30 33t10.5 53.5t75.5 74h1zM177 788q-1 25 -13.5 31.5t-27.5 0.5t-27 -20.5t-13 -31.5q5 -15 18.5 -18.5t27.5 1t25 15t10 22.5z" />
<glyph unicode="&#xc6;" horiz-adv-x="710" d="M360 77l-8 30q-3 15 -5 29l-64 138h-9q-38 -29 -81 -57t-88 -48q-7 -36 -8.5 -73t0.5 -74q-8 -11 -16 -16.5t-22 -5.5t-21 6.5t-10 16t-3 20.5v20q0 60 8 119t14 118q0 3 1 13.5t2.5 22.5t3 22.5t1.5 13.5v4l42 312q-2 20 6.5 35.5t31.5 15.5q25 3 41.5 -6.5t27.5 -24.5 t18 -33t15 -33l12 -33l18 -48l25 -71l34 -102l4 -4l4 2v4v15q0 10 -2 34t-4 51t-3.5 51t-2.5 33q-1 17 -9 30t-8 30q0 32 13 45t46 13q7 0 11.5 -6t10.5 -6h4q3 1 9 2.5t8 1.5l131 56q47 20 71 29t32.5 10t14.5 -2q12 -2 16.5 -7.5t4.5 -16.5q0 -10 -3 -20t-14 -15l-131 -63 l-4 -4l-110 -47q-6 -2 -7 -10t-1 -13q0 -8 2 -29l4 -43q2 -23 4.5 -40.5t3.5 -17.5h1l1 1q11 8 35 28l49 39l44 36q19 15 20 15q11 0 20 -11t9 -23t-5 -27t-16 -23l-88 -79q-8 -10 -19.5 -18.5t-28.5 -23.5l-20 -18v-5q0 -5 -0.5 -11t-0.5 -13v-10q0 -36 5 -71.5t5 -71.5h4 q1 0 9 8t12 13l9 13l26 33l48 61l77 96l11 12q8 8 10 8q3 3 12.5 2.5t13.5 -2.5q5 -2 13 -11t8 -17q0 -12 -12.5 -31.5t-29.5 -40.5l-34 -41q-17 -19 -26 -31l-34 -53q-19 -32 -42 -60.5t-50.5 -49t-58.5 -20.5q-15 0 -21.5 5t-16.5 18zM114 257q30 12 58 32l55 37 q3 2 7.5 4t8.5 5t10 7v8l-92 262l-4 4q-3 -6 -7.5 -34t-10 -72.5l-12.5 -102.5l-13 -124v-26z" />
<glyph unicode="&#xc7;" horiz-adv-x="431" d="M23 153l19 154q7 54 10 80q4 30 4 35l19 67q10 36 26.5 67t42.5 52t67 21q18 0 32.5 -2.5t27.5 -8.5t25.5 -14.5t26.5 -20.5q10 -9 11.5 -11t1.5 -12q0 -13 -9 -25t-26 -12q-14 0 -23 6.5t-17.5 15t-18 15t-24.5 6.5q-16 0 -28 -8.5t-20.5 -21.5t-13 -29t-6.5 -30 l-47 -320q0 -2 -0.5 -9.5t-0.5 -11.5v-18q0 -10 2 -20.5t7 -18t15 -7.5q6 0 11 4q48 32 82.5 74.5t65.5 90.5q1 2 5.5 9.5t9 16t8.5 17.5l6 12q6 13 9 27t7.5 26t13.5 19.5t28 7.5q14 0 27 -12t13 -28v-2q-25 -72 -64.5 -133t-87.5 -121q-30 -36 -69 -58t-87 -22h-5 q-45 17 -60.5 50.5t-15.5 78.5v24zM99 -270q0 5 0.5 9t4.5 8q12 15 34.5 20t46 8.5t43.5 10.5t28 28q8 18 -2.5 26t-28.5 10t-36 0.5t-25 -2.5q-14 0 -34.5 2t-40 8.5t-33 18.5t-13.5 32q6 33 20 60t31.5 45t35 25.5t30 2t16.5 -26t-6 -57.5q-6 -7 -15 -19.5t-9 -14.5v-1 q26 -5 58 -3.5t62.5 -1.5t57 -17t42.5 -51q9 -42 -1 -64.5t-37 -36t-69 -24t-95 -29.5q-2 -3 -9.5 -4t-12.5 -1q-14 0 -28.5 12t-14.5 27z" />
<glyph unicode="&#xc8;" d="M78 22q-10 40 -15 75.5t-7 75.5q-1 23 0 39.5t-4 36.5q-1 4 -4.5 6t-7 5t-6.5 7.5t-3 14.5q0 8 3 14l8 12q3 5 6.5 11.5t3.5 15.5v15q0 10 -2 34t-4 51t-3.5 51t-2.5 33q-1 17 -9 30t-8 30q0 32 13 45t46 13q7 0 11.5 -6t10.5 -6h4q3 1 9 2.5t8 1.5l131 56q47 20 71 29 t32.5 10t14.5 -2q12 -2 16.5 -7.5t4.5 -16.5q0 -10 -3 -20t-14 -15l-131 -63l-4 -4l-110 -47q-6 -2 -7 -10t-1 -13q0 -8 2 -29l4 -43q2 -23 4.5 -40.5t3.5 -17.5h1l1 1q11 8 35 27l49 40l44 36q19 15 20 15q11 0 20 -11t9 -23t-5 -27t-16 -23l-156 -139v-5q0 -5 -0.5 -11 t-0.5 -12v-11q0 -36 5 -71.5t5 -71.5h4q1 0 9 8t12 13l9 13l26 33l48 61l77 96l11 12q8 8 10 8q3 3 12.5 2.5t13.5 -2.5q5 -2 13 -11t8 -17q0 -12 -12.5 -31.5t-29.5 -40.5l-34 -40q-17 -20 -26 -32l-33 -54q-20 -31 -43 -59.5t-50.5 -49t-58.5 -20.5q-15 0 -21.5 5 t-16.5 18zM224 769q-11 -18 -28.5 -15t-35.5 15.5t-34.5 29t-24.5 25.5l-11 11q-6 6 -9.5 13t-4 14t5.5 15q11 15 25 19t30 -7q15 -21 31 -33t29.5 -23.5t21.5 -25.5t5 -38z" />
<glyph unicode="&#xc9;" d="M78 22q-10 40 -15 75.5t-7 75.5q-1 23 0 39.5t-4 36.5q-1 4 -4.5 6t-7 5t-6.5 7.5t-3 14.5q0 8 3 14l8 12q3 5 6.5 11.5t3.5 15.5v15q0 10 -2 34t-4 51t-3.5 51t-2.5 33q-1 17 -9 30t-8 30q0 32 13 45t46 13q7 0 11.5 -6t10.5 -6h4q3 1 9 2.5t8 1.5l131 56q47 20 71 29 t32.5 10t14.5 -2q12 -2 16.5 -7.5t4.5 -16.5q0 -10 -3 -20t-14 -15l-131 -63l-4 -4l-110 -47q-6 -2 -7 -10t-1 -13q0 -8 2 -29l4 -43q2 -23 4.5 -40.5t3.5 -17.5h1l1 1q11 8 35 27l49 40l44 36q19 15 20 15q11 0 20 -11t9 -23t-5 -27t-16 -23l-156 -139v-5q0 -5 -0.5 -11 t-0.5 -12v-11q0 -36 5 -71.5t5 -71.5h4q1 0 9 8t12 13l9 13l26 33l48 61l77 96l11 12q8 8 10 8q3 3 12.5 2.5t13.5 -2.5q5 -2 13 -11t8 -17q0 -12 -12.5 -31.5t-29.5 -40.5l-34 -40q-17 -20 -26 -32l-33 -54q-20 -31 -43 -59.5t-50.5 -49t-58.5 -20.5q-15 0 -21.5 5 t-16.5 18zM114 721q-3 26 4.5 41t20 27t27.5 25t29 36q15 12 28 8t24 -21q6 -9 5.5 -16.5t-4.5 -15t-9.5 -13.5t-9.5 -12l-23 -28q-15 -17 -32 -30.5t-33.5 -16.5t-26.5 16z" />
<glyph unicode="&#xca;" d="M78 22q-10 40 -15 75.5t-7 75.5q-1 23 0 39.5t-4 36.5q-1 4 -4.5 6t-7 5t-6.5 7.5t-3 14.5q0 8 3 14l8 12q3 5 6.5 11.5t3.5 15.5v15q0 10 -2 34t-4 51t-3.5 51t-2.5 33q-1 17 -9 30t-8 30q0 32 13 45t46 13q7 0 11.5 -6t10.5 -6h4q3 1 9 2.5t8 1.5l131 56q47 20 71 29 t32.5 10t14.5 -2q12 -2 16.5 -7.5t4.5 -16.5q0 -10 -3 -20t-14 -15l-131 -63l-4 -4l-110 -47q-6 -2 -7 -10t-1 -13q0 -8 2 -29l4 -43q2 -23 4.5 -40.5t3.5 -17.5h1l1 1q11 8 35 27l49 40l44 36q19 15 20 15q11 0 20 -11t9 -23t-5 -27t-16 -23l-156 -139v-5q0 -5 -0.5 -11 t-0.5 -12v-11q0 -36 5 -71.5t5 -71.5h4q1 0 9 8t12 13l9 13l26 33l48 61l77 96l11 12q8 8 10 8q3 3 12.5 2.5t13.5 -2.5q5 -2 13 -11t8 -17q0 -12 -12.5 -31.5t-29.5 -40.5l-34 -40q-17 -20 -26 -32l-33 -54q-20 -31 -43 -59.5t-50.5 -49t-58.5 -20.5q-15 0 -21.5 5 t-16.5 18zM146 913q1 2 3.5 8.5t5.5 13.5l6 13q3 7 4 10q4 8 14.5 9.5t20.5 1.5q8 0 14 -1.5t12 -7.5q3 -5 12 -18l18 -26l18 -26l12 -16q1 -1 4 -4.5t3 -4.5q3 -4 10 -15l15 -22l15 -23q7 -11 10 -15q3 -5 3.5 -7.5t0.5 -7.5q0 -11 -9 -15t-24 -4q-13 0 -23.5 5.5 t-15.5 13.5l-67 99l-4 -3q-3 -4 -6 -11t-10 -21l-21 -37q-13 -22 -36 -58q-2 -2 -10.5 -5t-11.5 -3q-6 0 -15.5 2.5t-17.5 6.5t-12.5 9.5t-0.5 12.5z" />
<glyph unicode="&#xcb;" d="M78 22q-10 40 -15 75.5t-7 75.5q-1 23 0 39.5t-4 36.5q-1 4 -4.5 6t-7 5t-6.5 7.5t-3 14.5q0 8 3 14l8 12q3 5 6.5 11.5t3.5 15.5v15q0 10 -2 34t-4 51t-3.5 51t-2.5 33q-1 17 -9 30t-8 30q0 32 13 45t46 13q7 0 11.5 -6t10.5 -6h4q3 1 9 2.5t8 1.5l131 56q47 20 71 29 t32.5 10t14.5 -2q12 -2 16.5 -7.5t4.5 -16.5q0 -10 -3 -20t-14 -15l-131 -63l-4 -4l-110 -47q-6 -2 -7 -10t-1 -13q0 -8 2 -29l4 -43q2 -23 4.5 -40.5t3.5 -17.5h1l1 1q11 8 35 27l49 40l44 36q19 15 20 15q11 0 20 -11t9 -23t-5 -27t-16 -23l-156 -139v-5q0 -5 -0.5 -11 t-0.5 -12v-11q0 -36 5 -71.5t5 -71.5h4q1 0 9 8t12 13l9 13l26 33l48 61l77 96l11 12q8 8 10 8q3 3 12.5 2.5t13.5 -2.5q5 -2 13 -11t8 -17q0 -12 -12.5 -31.5t-29.5 -40.5l-34 -40q-17 -20 -26 -32l-33 -54q-20 -31 -43 -59.5t-50.5 -49t-58.5 -20.5q-15 0 -21.5 5 t-16.5 18zM82 776q0 14 10.5 26t24.5 12q17 0 27.5 -9t20.5 -20v-3q0 -17 -11.5 -30.5t-30.5 -13.5q-13 0 -27 12t-14 26zM211 776q0 14 10.5 26t24.5 12q17 0 27.5 -9t20.5 -20v-3q0 -17 -11.5 -30.5t-30.5 -13.5q-13 0 -27 12t-14 26z" />
<glyph unicode="&#xcc;" horiz-adv-x="154" d="M23 566q8 11 14.5 14.5t18.5 3.5q16 0 30.5 -9t16.5 -26q4 -28 4.5 -56.5t0.5 -56.5l-2 -58q0 -28 2 -56q4 -68 12.5 -141t8.5 -141q0 -20 -8 -30t-31 -10q-19 0 -29 13t-14.5 31t-5.5 36.5t-1 29.5q0 8 -1.5 33.5t-3 60t-3.5 73l-4 73.5l-4 60q-1 25 -1 33v62v61z M154 608q-11 -18 -28.5 -15t-35.5 15.5t-34.5 29t-24.5 25.5l-11 11q-6 6 -9.5 13t-4 14t5.5 15q11 15 25 19t30 -7q15 -21 31 -33t29.5 -23.5t21.5 -25.5t5 -38z" />
<glyph unicode="&#xcd;" horiz-adv-x="154" d="M23 566q8 11 14.5 14.5t18.5 3.5q16 0 30.5 -9t16.5 -26q4 -28 4.5 -56.5t0.5 -56.5l-2 -58q0 -28 2 -56q4 -68 12.5 -141t8.5 -141q0 -20 -8 -30t-31 -10q-19 0 -29 13t-14.5 31t-5.5 36.5t-1 29.5q0 8 -1.5 33.5t-3 60t-3.5 73l-4 73.5l-4 60q-1 25 -1 33v62v61zM8 629 q-3 26 4.5 41t20 27t27.5 25t29 36q15 12 28 8t24 -21q6 -9 5.5 -16.5t-4.5 -15t-9.5 -13.5t-9.5 -12l-23 -28q-15 -17 -32 -30.5t-33.5 -16.5t-26.5 16z" />
<glyph unicode="&#xce;" horiz-adv-x="154" d="M23 566q8 11 14.5 14.5t18.5 3.5q16 0 30.5 -9t16.5 -26q4 -28 4.5 -56.5t0.5 -56.5l-2 -58q0 -28 2 -56q4 -68 12.5 -141t8.5 -141q0 -20 -8 -30t-31 -10q-19 0 -29 13t-14.5 31t-5.5 36.5t-1 29.5q0 8 -1.5 33.5t-3 60t-3.5 73l-4 73.5l-4 60q-1 25 -1 33v62v61z M24 821q1 2 3.5 8.5t5.5 13.5l6 13q3 7 4 10q4 8 14.5 9.5t20.5 1.5q8 0 14 -1.5t12 -7.5q3 -5 12 -18l18 -26l18 -26l12 -16q1 -1 4 -4.5t3 -4.5q3 -4 10 -15l15 -22l15 -23q7 -11 10 -15q3 -5 3.5 -7.5t0.5 -7.5q0 -11 -9 -15t-24 -4q-13 0 -23.5 5.5t-15.5 13.5l-67 99 l-4 -3q-3 -4 -6 -11t-10 -21l-21 -37q-13 -22 -36 -58q-2 -2 -10.5 -5t-11.5 -3q-6 0 -15.5 2.5t-17.5 6.5t-12.5 9.5t-0.5 12.5z" />
<glyph unicode="&#xcf;" horiz-adv-x="154" d="M23 566q8 11 14.5 14.5t18.5 3.5q16 0 30.5 -9t16.5 -26q4 -28 4.5 -56.5t0.5 -56.5l-2 -58q0 -28 2 -56q4 -68 12.5 -141t8.5 -141q0 -20 -8 -30t-31 -10q-19 0 -29 13t-14.5 31t-5.5 36.5t-1 29.5q0 8 -1.5 33.5t-3 60t-3.5 73l-4 73.5l-4 60q-1 25 -1 33v62v61z M-28 710q0 14 10.5 26t24.5 12q17 0 27.5 -9t20.5 -20v-3q0 -17 -11.5 -30.5t-30.5 -13.5q-13 0 -27 12t-14 26zM101 710q0 14 10.5 26t24.5 12q17 0 27.5 -9t20.5 -20v-3q0 -17 -11.5 -30.5t-30.5 -13.5q-13 0 -27 12t-14 26z" />
<glyph unicode="&#xd0;" horiz-adv-x="523" d="M52 259q0 9 10 14t23 8t26 4t20 3h2q1 55 1.5 109t0.5 109q-10 0 -19 -5l-19 -10q-10 -5 -21 -9.5t-24 -4.5h-16q-2 3 -10 5.5t-8 6.5v30q5 3 8.5 8.5t5.5 9.5l101 50l4 5q-2 28 3 45t35 17q8 0 17.5 -3t18 -8t13 -13t2.5 -18q50 -2 99 -7.5t88 -24t63.5 -54.5t24.5 -99 q0 -57 -22 -114t-63 -98l-190 -189q-14 -14 -23.5 -20t-27.5 -6q-15 0 -24.5 8.5t-9.5 23.5q0 9 6.5 16t6.5 15q0 2 -4 5t-5 4q-10 15 -11 34t-1 36v80h-2q-6 0 -19.5 3t-26.5 8.5t-23 12t-10 13.5zM226 302l40 6q17 0 32 -6t15 -26q0 -5 -6.5 -11t-14.5 -11t-17 -8.5 t-13 -1.5l-36 -6v-114l4 3q1 1 7.5 6.5l14.5 12.5l16 15q8 7 13 12l49 51q25 27 46 57.5t34.5 64t13.5 70.5q0 35 -13 59.5t-34.5 40t-50.5 22.5t-62 7q-3 0 -17.5 -1.5t-20.5 -6.5v-235z" />
<glyph unicode="&#xd1;" horiz-adv-x="445" d="M23 125q0 61 2.5 122.5t5.5 123t4.5 123t-0.5 122.5q3 11 11 16.5t19 5.5q21 0 32 -7.5t16 -20.5t6 -29l2 -32q12 -22 28.5 -42.5t29.5 -41.5q0 -1 1.5 -4.5t2.5 -3.5l15 -23l19 -28l15 -24l7 -10l4 -5l58 -84q4 -4 7 -4h2q-13 106 -21 216.5t-8 218.5v50q8 13 27 13 t28 -9t12 -22.5t3 -29t1 -28.5q0 -1 1 -3.5t2.5 -11t2.5 -25.5l4 -49q3 -31 5.5 -78t6.5 -115v-18l34 -223q1 -8 8.5 -24.5t7.5 -25.5q0 -21 -12 -34t-34 -13q-3 0 -8 2.5t-10 5.5t-9.5 6.5t-6.5 5.5l-161 229q-1 0 -2 3.5t-2 5.5q-6 9 -16 22.5t-19 27.5l-16 23 q-7 10 -7 11l-5 4q-5 -95 -8 -191.5t0 -192.5q-2 -12 -12.5 -21t-21.5 -9q-20 0 -31.5 10.5t-19.5 27.5v87zM-5 781q0 5 0.5 8.5t1.5 8.5l15 42q7 21 17.5 39.5t24 32.5t31.5 20q7 0 13 -1.5t12 -9.5l57 -72q8 -5 13.5 -12t15.5 -7q7 0 13 11t9 16q6 9 10.5 20t10 21 t12 16.5t16.5 6.5q11 0 14.5 -9t3.5 -23q0 -21 -7 -44.5t-18.5 -42.5t-25.5 -31.5t-29 -12.5q-18 -1 -34 8t-30.5 22.5t-28.5 28.5t-27 26q-10 0 -18.5 -14t-16 -30.5t-15 -30t-14.5 -13.5t-16.5 7t-9.5 19z" />
<glyph unicode="&#xd2;" horiz-adv-x="330" d="M22 177q1 6 0 32t-0.5 64.5t2 84.5t7 93t16 90.5t27.5 75.5q6 27 29 37.5t65 12.5q27 0 46 -14t32.5 -34.5t23.5 -44.5l18 -43v-5q7 -20 10.5 -59.5t5 -83t1.5 -83.5v-61q0 -30 -8 -71.5t-25.5 -78.5t-45.5 -63t-67 -26q-33 0 -58.5 17t-43 43.5t-26.5 57.5t-9 59z M119 110q2 -11 11.5 -22.5t22.5 -11.5h8q42 38 55 87.5t13 104.5q0 13 -1 40t-3.5 60.5t-6.5 70.5t-10 69.5t-14 56.5t-19 33q-1 -1 -2.5 -4t-1.5 -4q-21 -26 -38 -71t-25.5 -106.5t-7 -138t18.5 -164.5zM223 720q-11 -18 -28.5 -15t-35.5 15.5t-34.5 29t-24.5 25.5l-11 11 q-6 6 -9.5 13t-4 14t5.5 15q11 15 25 19t30 -7q15 -21 31 -33t29.5 -23.5t21.5 -25.5t5 -38z" />
<glyph unicode="&#xd3;" horiz-adv-x="330" d="M22 177q1 6 0 32t-0.5 64.5t2 84.5t7 93t16 90.5t27.5 75.5q6 27 29 37.5t65 12.5q27 0 46 -14t32.5 -34.5t23.5 -44.5l18 -43v-5q7 -20 10.5 -59.5t5 -83t1.5 -83.5v-61q0 -30 -8 -71.5t-25.5 -78.5t-45.5 -63t-67 -26q-33 0 -58.5 17t-43 43.5t-26.5 57.5t-9 59z M119 110q2 -11 11.5 -22.5t22.5 -11.5h8q42 38 55 87.5t13 104.5q0 13 -1 40t-3.5 60.5t-6.5 70.5t-10 69.5t-14 56.5t-19 33q-1 -1 -2.5 -4t-1.5 -4q-21 -26 -38 -71t-25.5 -106.5t-7 -138t18.5 -164.5zM60 715q-3 26 4.5 41t20 27t27.5 25t29 36q15 12 28 8t24 -21 q6 -9 5.5 -16.5t-4.5 -15t-9.5 -13.5t-9.5 -12l-23 -28q-15 -17 -32 -30.5t-33.5 -16.5t-26.5 16z" />
<glyph unicode="&#xd4;" horiz-adv-x="330" d="M22 177q1 6 0 32t-0.5 64.5t2 84.5t7 93t16 90.5t27.5 75.5q6 27 29 37.5t65 12.5q27 0 46 -14t32.5 -34.5t23.5 -44.5l18 -43v-5q7 -20 10.5 -59.5t5 -83t1.5 -83.5v-61q0 -30 -8 -71.5t-25.5 -78.5t-45.5 -63t-67 -26q-33 0 -58.5 17t-43 43.5t-26.5 57.5t-9 59z M119 110q2 -11 11.5 -22.5t22.5 -11.5h8q42 38 55 87.5t13 104.5q0 13 -1 40t-3.5 60.5t-6.5 70.5t-10 69.5t-14 56.5t-19 33q-1 -1 -2.5 -4t-1.5 -4q-21 -26 -38 -71t-25.5 -106.5t-7 -138t18.5 -164.5zM91 887q1 2 3.5 8.5t5.5 13.5l6 13q3 7 4 10q4 8 14.5 9.5t20.5 1.5 q8 0 14 -1.5t12 -7.5l11 -18l19 -26l19 -26q8 -12 11 -16q1 -1 4 -4.5t3 -4.5q3 -4 10 -15l15 -22l15 -23q7 -11 10 -15q3 -5 3.5 -7.5t0.5 -7.5q0 -11 -9 -15t-24 -4q-13 0 -23.5 5.5t-15.5 13.5l-67 99l-4 -3q-3 -4 -6 -11t-11 -21l-20 -37q-13 -22 -36 -58 q-2 -2 -10.5 -5t-11.5 -3q-6 0 -15.5 2.5t-17.5 6.5t-12.5 9.5t-0.5 12.5z" />
<glyph unicode="&#xd5;" horiz-adv-x="330" d="M22 177q1 6 0 32t-0.5 64.5t2 84.5t7 93t16 90.5t27.5 75.5q6 27 29 37.5t65 12.5q27 0 46 -14t32.5 -34.5t23.5 -44.5l18 -43v-5q7 -20 10.5 -59.5t5 -83t1.5 -83.5v-61q0 -30 -8 -71.5t-25.5 -78.5t-45.5 -63t-67 -26q-33 0 -58.5 17t-43 43.5t-26.5 57.5t-9 59z M119 110q2 -11 11.5 -22.5t22.5 -11.5h8q42 38 55 87.5t13 104.5q0 13 -1 40t-3.5 60.5t-6.5 70.5t-10 69.5t-14 56.5t-19 33q-1 -1 -2.5 -4t-1.5 -4q-21 -26 -38 -71t-25.5 -106.5t-7 -138t18.5 -164.5zM38 712q0 5 0.5 8.5t1.5 8.5l14 42q8 21 18.5 39.5t24 32.5t31.5 20 q7 0 13 -1.5t12 -9.5l57 -72q8 -5 13.5 -12t15.5 -7q7 0 13 11t9 16q6 9 10.5 20t10 21t12 16.5t16.5 6.5q11 0 14.5 -9t3.5 -23q0 -21 -7 -44.5t-18.5 -42.5t-25.5 -31.5t-29 -12.5q-18 -1 -34 8t-30.5 22.5t-28.5 28.5t-27 26q-10 0 -18.5 -14t-16 -30.5t-15 -30 t-14.5 -13.5t-16.5 7t-9.5 19z" />
<glyph unicode="&#xd6;" horiz-adv-x="330" d="M22 177q1 6 0 32t-0.5 64.5t2 84.5t7 93t16 90.5t27.5 75.5q6 27 29 37.5t65 12.5q27 0 46 -14t32.5 -34.5t23.5 -44.5l18 -43v-5q7 -20 10.5 -59.5t5 -83t1.5 -83.5v-61q0 -30 -8 -71.5t-25.5 -78.5t-45.5 -63t-67 -26q-33 0 -58.5 17t-43 43.5t-26.5 57.5t-9 59z M119 110q2 -11 11.5 -22.5t22.5 -11.5h8q42 38 55 87.5t13 104.5q0 13 -1 40t-3.5 60.5t-6.5 70.5t-10 69.5t-14 56.5t-19 33q-1 -1 -2.5 -4t-1.5 -4q-21 -26 -38 -71t-25.5 -106.5t-7 -138t18.5 -164.5zM47 759q0 14 10.5 26t24.5 12q17 0 27.5 -9t20.5 -20v-3 q0 -17 -11.5 -30.5t-30.5 -13.5q-13 0 -27 12t-14 26zM176 759q0 14 10.5 26t24.5 12q17 0 27.5 -9t20.5 -20v-3q0 -17 -11.5 -30.5t-30.5 -13.5q-13 0 -27 12t-14 26z" />
<glyph unicode="&#xd7;" horiz-adv-x="446" d="M102 88q0 13 11.5 26.5t25 27t23.5 28t7 29.5q-13 8 -26.5 20.5t-26.5 26.5l-25 26q-12 14 -23 25v3q0 11 8 16.5t19 5.5q16 3 29 -1.5t24.5 -14t22 -21.5t20.5 -22q2 6 7 19.5t12 29t16 29t18 19t18 0t17 -29.5v-4l-35 -106l111 -107q0 -1 1 -3t1 -3t1 -2v-1 q0 -11 -9 -16.5t-19 -5.5q-11 0 -27 8.5t-32 18.5l-30 20q-14 9 -20 9h-3q-15 -13 -22 -24l-14 -19q-6 -9 -16.5 -16t-31.5 -12q-10 0 -21 5.5t-11 15.5z" />
<glyph unicode="&#xd8;" horiz-adv-x="330" d="M22 177q1 6 0 32t-0.5 64.5t2 84.5t7 93t16 90.5t27.5 75.5q6 27 29 37.5t65 12.5q27 0 46 -14t32.5 -34.5t23.5 -44.5l18 -43v-5q7 -20 10.5 -59.5t5 -83t1.5 -83.5v-61q0 -30 -8 -71.5t-25.5 -78.5t-45.5 -63t-67 -26q-33 0 -58.5 17t-43 43.5t-26.5 57.5t-9 59z M119 110q2 -11 11.5 -22.5t22.5 -11.5h8q42 38 55 87.5t13 104.5q0 13 -1 40t-3.5 60.5t-6.5 70.5t-10 69.5t-14 56.5t-19 33q-1 -1 -2.5 -4t-1.5 -4q-21 -26 -38 -71t-25.5 -106.5t-7 -138t18.5 -164.5zM51 -59q5 41 12 77l16 77v7l136 627q2 14 10 19.5t24 5.5h2 q18 -8 23 -13.5t5 -22.5q0 -11 -3 -22t-5 -21q-1 -2 -3 -12l-5 -20l-5 -20q-3 -10 -4 -12v-4l-107 -480q-8 -48 -18 -96t-18 -96q-2 -11 -11 -15.5t-19.5 -4.5t-20 6.5t-9.5 17.5v2z" />
<glyph unicode="&#xd9;" d="M297 141q-11 -21 -26.5 -47t-36 -49.5t-44 -39.5t-50.5 -16q-34 0 -54 20t-30.5 49.5t-13.5 62t-3 58.5v26q1 8 2.5 24t4 36.5t4.5 43t4.5 43t4 36.5t2.5 24q-4 10 -2.5 20.5t7 19t14.5 14t20 5.5q3 0 10.5 -2t15.5 -6t14 -8.5t6 -8.5v-38q-14 -108 -18 -172t-3 -99.5 t6 -48.5t10 -18q12 -5 23.5 -2.5t27.5 18.5t38.5 49.5t54.5 89.5q2 3 5 11l3 11q-2 66 -0.5 133t4.5 133q4 10 13 16t19 6q4 0 12 -3t16 -8.5t14 -11.5t6 -12v-295q7 -45 11 -90.5t11 -90.5q0 -5 3 -20l5 -34l5 -33q3 -15 4 -19v-12q0 -36 -39 -39q-17 -2 -28.5 14.5 t-18.5 43t-11.5 59.5t-7.5 64t-6 56.5t-8 36.5zM286 608q-11 -18 -28.5 -15t-35.5 15.5t-34.5 29t-24.5 25.5l-11 11q-6 6 -9.5 13t-4 14t5.5 15q11 15 25 19t30 -7q15 -21 31 -33t29.5 -23.5t21.5 -25.5t5 -38z" />
<glyph unicode="&#xda;" d="M297 141q-11 -21 -26.5 -47t-36 -49.5t-44 -39.5t-50.5 -16q-34 0 -54 20t-30.5 49.5t-13.5 62t-3 58.5v26q1 8 2.5 24t4 36.5t4.5 43t4.5 43t4 36.5t2.5 24q-4 10 -2.5 20.5t7 19t14.5 14t20 5.5q3 0 10.5 -2t15.5 -6t14 -8.5t6 -8.5v-38q-14 -108 -18 -172t-3 -99.5 t6 -48.5t10 -18q12 -5 23.5 -2.5t27.5 18.5t38.5 49.5t54.5 89.5q2 3 5 11l3 11q-2 66 -0.5 133t4.5 133q4 10 13 16t19 6q4 0 12 -3t16 -8.5t14 -11.5t6 -12v-295q7 -45 11 -90.5t11 -90.5q0 -5 3 -20l5 -34l5 -33q3 -15 4 -19v-12q0 -36 -39 -39q-17 -2 -28.5 14.5 t-18.5 43t-11.5 59.5t-7.5 64t-6 56.5t-8 36.5zM140 629q-3 26 4.5 41t20 27t27.5 25t29 36q15 12 28 8t24 -21q6 -9 5.5 -16.5t-4.5 -15t-9.5 -13.5t-9.5 -12l-23 -28q-15 -17 -32 -30.5t-33.5 -16.5t-26.5 16z" />
<glyph unicode="&#xdb;" d="M297 141q-11 -21 -26.5 -47t-36 -49.5t-44 -39.5t-50.5 -16q-34 0 -54 20t-30.5 49.5t-13.5 62t-3 58.5v26q1 8 2.5 24t4 36.5t4.5 43t4.5 43t4 36.5t2.5 24q-4 10 -2.5 20.5t7 19t14.5 14t20 5.5q3 0 10.5 -2t15.5 -6t14 -8.5t6 -8.5v-38q-14 -108 -18 -172t-3 -99.5 t6 -48.5t10 -18q12 -5 23.5 -2.5t27.5 18.5t38.5 49.5t54.5 89.5q2 3 5 11l3 11q-2 66 -0.5 133t4.5 133q4 10 13 16t19 6q4 0 12 -3t16 -8.5t14 -11.5t6 -12v-295q7 -45 11 -90.5t11 -90.5q0 -5 3 -20l5 -34l5 -33q3 -15 4 -19v-12q0 -36 -39 -39q-17 -2 -28.5 14.5 t-18.5 43t-11.5 59.5t-7.5 64t-6 56.5t-8 36.5zM157 821q1 2 3.5 8.5t5.5 13.5l6 13q3 7 4 10q4 8 14.5 9.5t20.5 1.5q8 0 14 -1.5t12 -7.5l11 -18l19 -26l19 -26q8 -12 11 -16q1 -1 4 -4.5t3 -4.5q3 -4 10 -15l15 -22l15 -23q7 -11 10 -15q3 -5 3.5 -7.5t0.5 -7.5 q0 -11 -9 -15t-24 -4q-13 0 -23.5 5.5t-15.5 13.5l-67 99l-4 -3q-3 -4 -6 -11t-11 -21l-20 -37q-13 -22 -36 -58q-2 -2 -10.5 -5t-11.5 -3q-6 0 -15.5 2.5t-17.5 6.5t-12.5 9.5t-0.5 12.5z" />
<glyph unicode="&#xdc;" d="M297 141q-11 -21 -26.5 -47t-36 -49.5t-44 -39.5t-50.5 -16q-34 0 -54 20t-30.5 49.5t-13.5 62t-3 58.5v26q1 8 2.5 24t4 36.5t4.5 43t4.5 43t4 36.5t2.5 24q-4 10 -2.5 20.5t7 19t14.5 14t20 5.5q3 0 10.5 -2t15.5 -6t14 -8.5t6 -8.5v-38q-14 -108 -18 -172t-3 -99.5 t6 -48.5t10 -18q12 -5 23.5 -2.5t27.5 18.5t38.5 49.5t54.5 89.5q2 3 5 11l3 11q-2 66 -0.5 133t4.5 133q4 10 13 16t19 6q4 0 12 -3t16 -8.5t14 -11.5t6 -12v-295q7 -45 11 -90.5t11 -90.5q0 -5 3 -20l5 -34l5 -33q3 -15 4 -19v-12q0 -36 -39 -39q-17 -2 -28.5 14.5 t-18.5 43t-11.5 59.5t-7.5 64t-6 56.5t-8 36.5zM105 710q0 14 10.5 26t24.5 12q17 0 27.5 -9t20.5 -20v-3q0 -17 -11.5 -30.5t-30.5 -13.5q-13 0 -27 12t-14 26zM234 710q0 14 10.5 26t24.5 12q17 0 27.5 -9t20.5 -20v-3q0 -17 -11.5 -30.5t-30.5 -13.5q-13 0 -27 12t-14 26 z" />
<glyph unicode="&#xdd;" horiz-adv-x="424" d="M226 -6q1 5 2.5 19t3.5 29l5 30q2 13 3 19q5 45 12.5 89.5t7.5 89.5v15l-16 8q-4 2 -20 13l-36 25l-38 29q-19 14 -29 23q-6 4 -19 15l-28 26l-28 26l-18 17q-8 8 -15 18.5t-7 21.5q0 17 13 24.5t28 7.5q10 0 21 -2.5t19 -10.5q38 -42 85 -84t96 -72l4 13l42 270 q2 11 12.5 14t19.5 3q26 0 39.5 -12.5t13.5 -41.5v-2q0 -1 -1.5 -5t-3 -9t-2.5 -9.5t-1 -5.5q-3 -12 -8 -46.5t-11 -82.5l-13 -104l-14 -114l-14 -112q-7 -53 -13 -94q1 -10 1.5 -23t-3.5 -25t-12.5 -20t-23.5 -8q-19 0 -33.5 10t-20.5 28zM141 629q-3 26 4.5 41t20 27 t27.5 25t29 36q15 12 28 8t24 -21q6 -9 5.5 -16.5t-4.5 -15t-9.5 -13.5t-9.5 -12l-23 -28q-15 -17 -32 -30.5t-33.5 -16.5t-26.5 16z" />
<glyph unicode="&#xde;" horiz-adv-x="384" d="M7 431v2q0 8 5.5 16.5t11.5 14.5v51v62q0 21 -1 38t-3 38l-6 63q0 13 9 19.5t19 6.5q28 5 42.5 -3.5t20 -26t5 -40t-2 -44.5t-2 -41t6.5 -29q13 5 13.5 4.5t0 -1t2 2t18.5 14.5q22 17 51.5 21.5t55.5 4.5q61 -9 85 -37.5t21 -70t-28.5 -92t-63.5 -104t-84 -106.5l-89 -98 q1 -13 1.5 -30t0 -33.5t-2 -30.5t-5.5 -21q-5 -10 -12.5 -14.5t-15.5 -3.5t-15 8t-11 21q-3 9 -4.5 25t-2.5 36.5t-0.5 43.5t1.5 47v261zM112 354q0 -3 0.5 -14t1.5 -23.5t1.5 -23.5t0.5 -14v-10q0 -8 0.5 -16.5t0.5 -15.5v-11q11 2 31 28t41 60.5t39 69.5t27 55q4 10 8 24 t5.5 28.5t-2 26.5t-14.5 19q-18 0 -38.5 -9t-40 -23t-35 -30.5t-22.5 -31.5q-1 -5 -1.5 -17.5t-1.5 -26.5l-1 -27v-18z" />
<glyph unicode="&#xdf;" horiz-adv-x="515" d="M191 -92q-7 0 -20.5 1.5t-27.5 4.5t-24.5 8t-11.5 13l-19 260v8q-2 42 -4.5 88t-7.5 89q-4 0 -7 12.5t-4.5 29t-2.5 33t-1 23.5q0 28 16.5 51t41.5 41t54 30.5t53 20t39 10.5t13 1q7 5 20.5 2t26.5 -11t23 -19t10 -23q0 -22 -6 -40.5t-15 -36t-19 -34.5t-18 -35 q4 0 15 -1.5t23 -2.5t23 -2.5t15 -1.5q16 -3 37.5 -10t40 -19t31.5 -28.5t13 -37.5q0 -23 -8.5 -46t-20.5 -41q-4 -6 -12 -17l-16 -22l-14 -19q-7 -9 -8 -10l-183 -158l-7 89l30 26q17 14 25 19l40 34q24 20 45 42.5t35.5 46.5t14.5 47q0 15 -10 23.5t-24.5 13.5t-30 6.5 t-26.5 1.5q-21 0 -35 -5t-25.5 -13.5t-22 -20t-25.5 -24.5q-1 0 -4.5 -2t-4.5 -2l-22 119l25 27q11 13 23 30q3 6 6 16t2.5 18.5t-6.5 13t-20 0.5l-9 -9q-10 -9 -20 -20l-20 -20q-9 -10 -9 -11l4 -203l21 -174h1z" />
<glyph unicode="&#xe0;" horiz-adv-x="399" d="M256 279q-9 -16 -20 -39l-25 -48q-13 -25 -28.5 -50.5t-32 -46.5t-34.5 -35.5t-37 -17.5q-8 0 -18 1.5t-20 5t-16.5 10t-6.5 17.5q1 102 15 185.5t44 147t77 105.5t114 60q2 0 7.5 0.5t7.5 0.5q30 1 43.5 -27.5t20 -90t9 -158t10.5 -231.5q3 -11 3.5 -19t0.5 -19 q0 -15 -9 -22.5t-23 -7.5q-29 0 -41 16t-16 43q0 1 -1.5 16t-4 34.5t-4.5 39.5t-3 33v4q-2 10 -2.5 25t-2.5 29q-2 17 -3 34zM234 477q-27 -20 -53 -54t-37 -66q-5 -15 -11 -41t-10.5 -51.5t-7.5 -47t-3 -27.5q1 0 2.5 2t2.5 3q62 60 87.5 129.5t29.5 152.5zM275 608 q-11 -18 -28.5 -15t-35.5 15.5t-34.5 29t-24.5 25.5l-11 11q-6 6 -9.5 13t-4 14t5.5 15q11 15 25 19t30 -7q15 -21 31 -33t29.5 -23.5t21.5 -25.5t5 -38z" />
<glyph unicode="&#xe1;" horiz-adv-x="399" d="M256 279q-9 -16 -20 -39l-25 -48q-13 -25 -28.5 -50.5t-32 -46.5t-34.5 -35.5t-37 -17.5q-8 0 -18 1.5t-20 5t-16.5 10t-6.5 17.5q1 102 15 185.5t44 147t77 105.5t114 60q2 0 7.5 0.5t7.5 0.5q30 1 43.5 -27.5t20 -90t9 -158t10.5 -231.5q3 -11 3.5 -19t0.5 -19 q0 -15 -9 -22.5t-23 -7.5q-29 0 -41 16t-16 43q0 1 -1.5 16t-4 34.5t-4.5 39.5t-3 33v4q-2 10 -2.5 25t-2.5 29q-2 17 -3 34zM234 477q-27 -20 -53 -54t-37 -66q-5 -15 -11 -41t-10.5 -51.5t-7.5 -47t-3 -27.5q1 0 2.5 2t2.5 3q62 60 87.5 129.5t29.5 152.5zM129 629 q-3 26 4.5 41t20 27t27.5 25t29 36q15 12 28 8t24 -21q6 -9 5.5 -16.5t-4.5 -15t-9.5 -13.5t-9.5 -12l-23 -28q-15 -17 -32 -30.5t-33.5 -16.5t-26.5 16z" />
<glyph unicode="&#xe2;" horiz-adv-x="399" d="M256 279q-9 -16 -20 -39l-25 -48q-13 -25 -28.5 -50.5t-32 -46.5t-34.5 -35.5t-37 -17.5q-8 0 -18 1.5t-20 5t-16.5 10t-6.5 17.5q1 102 15 185.5t44 147t77 105.5t114 60q2 0 7.5 0.5t7.5 0.5q30 1 43.5 -27.5t20 -90t9 -158t10.5 -231.5q3 -11 3.5 -19t0.5 -19 q0 -15 -9 -22.5t-23 -7.5q-29 0 -41 16t-16 43q0 1 -1.5 16t-4 34.5t-4.5 39.5t-3 33v4q-2 10 -2.5 25t-2.5 29q-2 17 -3 34zM234 477q-27 -20 -53 -54t-37 -66q-5 -15 -11 -41t-10.5 -51.5t-7.5 -47t-3 -27.5q1 0 2.5 2t2.5 3q62 60 87.5 129.5t29.5 152.5zM145 821 q1 2 3.5 8.5t5.5 13.5l6 13q3 7 4 10q4 8 14.5 9.5t20.5 1.5q8 0 14 -1.5t12 -7.5l11 -18l19 -26l19 -26q8 -12 11 -16q1 -1 4 -4.5t3 -4.5q3 -4 10 -15l15 -22l15 -23q7 -11 10 -15q3 -5 3.5 -7.5t0.5 -7.5q0 -11 -9 -15t-24 -4q-13 0 -23.5 5.5t-15.5 13.5l-67 99l-4 -3 q-3 -4 -6 -11t-11 -21l-20 -37q-13 -22 -36 -58q-2 -2 -10.5 -5t-11.5 -3q-6 0 -15.5 2.5t-17.5 6.5t-12.5 9.5t-0.5 12.5z" />
<glyph unicode="&#xe3;" horiz-adv-x="399" d="M256 279q-9 -16 -20 -39l-25 -48q-13 -25 -28.5 -50.5t-32 -46.5t-34.5 -35.5t-37 -17.5q-8 0 -18 1.5t-20 5t-16.5 10t-6.5 17.5q1 102 15 185.5t44 147t77 105.5t114 60q2 0 7.5 0.5t7.5 0.5q30 1 43.5 -27.5t20 -90t9 -158t10.5 -231.5q3 -11 3.5 -19t0.5 -19 q0 -15 -9 -22.5t-23 -7.5q-29 0 -41 16t-16 43q0 1 -1.5 16t-4 34.5t-4.5 39.5t-3 33v4q-2 10 -2.5 25t-2.5 29q-2 17 -3 34zM234 477q-27 -20 -53 -54t-37 -66q-5 -15 -11 -41t-10.5 -51.5t-7.5 -47t-3 -27.5q1 0 2.5 2t2.5 3q62 60 87.5 129.5t29.5 152.5zM94 620 q0 5 0.5 8.5t1.5 8.5l14 42q8 21 18.5 39.5t24 32.5t31.5 20q7 0 13 -1.5t12 -9.5l57 -72q8 -5 13.5 -12t15.5 -7q7 0 13 11t9 16q6 9 10.5 20t10 21t12 16.5t16.5 6.5q11 0 14.5 -9t3.5 -23q0 -21 -7 -44.5t-18.5 -42.5t-25.5 -31.5t-29 -12.5q-18 -1 -34 8t-30.5 22.5 t-28.5 28.5t-27 26q-10 0 -18.5 -14t-16 -30.5t-15 -30t-14.5 -13.5t-16.5 7t-9.5 19z" />
<glyph unicode="&#xe4;" horiz-adv-x="399" d="M256 279q-9 -16 -20 -39l-25 -48q-13 -25 -28.5 -50.5t-32 -46.5t-34.5 -35.5t-37 -17.5q-8 0 -18 1.5t-20 5t-16.5 10t-6.5 17.5q1 102 15 185.5t44 147t77 105.5t114 60q2 0 7.5 0.5t7.5 0.5q30 1 43.5 -27.5t20 -90t9 -158t10.5 -231.5q3 -11 3.5 -19t0.5 -19 q0 -15 -9 -22.5t-23 -7.5q-29 0 -41 16t-16 43q0 1 -1.5 16t-4 34.5t-4.5 39.5t-3 33v4q-2 10 -2.5 25t-2.5 29q-2 17 -3 34zM234 477q-27 -20 -53 -54t-37 -66q-5 -15 -11 -41t-10.5 -51.5t-7.5 -47t-3 -27.5q1 0 2.5 2t2.5 3q62 60 87.5 129.5t29.5 152.5zM93 710 q0 14 10.5 26t24.5 12q17 0 27.5 -9t20.5 -20v-3q0 -17 -11.5 -30.5t-30.5 -13.5q-13 0 -27 12t-14 26zM222 710q0 14 10.5 26t24.5 12q17 0 27.5 -9t20.5 -20v-3q0 -17 -11.5 -30.5t-30.5 -13.5q-13 0 -27 12t-14 26z" />
<glyph unicode="&#xe5;" horiz-adv-x="399" d="M256 279q-9 -16 -20 -39l-25 -48q-13 -25 -28.5 -50.5t-32 -46.5t-34.5 -35.5t-37 -17.5q-8 0 -18 1.5t-20 5t-16.5 10t-6.5 17.5q1 102 15 185.5t44 147t77 105.5t114 60q2 0 7.5 0.5t7.5 0.5q30 1 43.5 -27.5t20 -90t9 -158t10.5 -231.5q3 -11 3.5 -19t0.5 -19 q0 -15 -9 -22.5t-23 -7.5q-29 0 -41 16t-16 43q0 1 -1.5 16t-4 34.5t-4.5 39.5t-3 33v4q-2 10 -2.5 25t-2.5 29q-2 17 -3 34zM234 477q-27 -20 -53 -54t-37 -66q-5 -15 -11 -41t-10.5 -51.5t-7.5 -47t-3 -27.5q1 0 2.5 2t2.5 3q62 60 87.5 129.5t29.5 152.5zM223 716 q8 0 14.5 2t15.5 2q21 0 36 -9t24.5 -21.5t13.5 -27t4 -25.5q0 -13 -10.5 -29.5t-27 -30.5t-38 -24t-43.5 -10q-23 1 -46 12.5t-30 33t10.5 53.5t75.5 74h1zM273 639q-1 25 -13.5 31.5t-27.5 0.5t-27 -20.5t-13 -31.5q5 -15 18.5 -18.5t27.5 1t25 15t10 22.5z" />
<glyph unicode="&#xe6;" horiz-adv-x="722" d="M256 279q-9 -16 -20 -39l-25 -48q-13 -25 -28.5 -50.5t-32 -46.5t-34.5 -35.5t-37 -17.5q-8 0 -18 1.5t-20 5t-16.5 10t-6.5 17.5q1 102 15 185.5t44 147t77 105.5t114 60q2 0 7.5 0.5t7.5 0.5q30 1 43.5 -27.5t20 -90t9 -158t10.5 -231.5q3 -11 3.5 -19t0.5 -19 q0 -15 -9 -22.5t-23 -7.5q-29 0 -41 16t-16 43q0 1 -1.5 16t-4 34.5t-4.5 39.5t-3 33v4q-2 10 -2.5 25t-2.5 29q-2 17 -3 34zM234 477q-27 -20 -53 -54t-37 -66q-5 -15 -11 -41t-10.5 -51.5t-7.5 -47t-3 -27.5q1 0 2.5 2t2.5 3q62 60 87.5 129.5t29.5 152.5zM708 330 q-2 -18 -4.5 -28t-8.5 -18t-17 -16l-30 -24l-47 -41t-68 -65l-33 -31q-17 -16 -35.5 -28.5t-38.5 -20.5t-42 -8q-43 0 -63 29t-20 67q0 25 1.5 42t7.5 44l-19 18q-8 7 -8 20q0 12 5.5 16t13 5.5t14.5 3.5t10 8l8 22l11 33l11 34l8 21q7 17 15.5 34.5t20 31.5t27 23t36.5 9 q12 0 29.5 -11t33.5 -26.5t27 -32.5t11 -29q0 -15 -7 -27.5t-17.5 -23t-22.5 -19.5l-22 -17q-1 0 -4 -2t-5 -3l-4 -4l-8 -8q-4 -4 -7.5 -8t-4.5 -5q-3 -3 -12 -9l-18 -14l-18 -14q-9 -7 -12 -9l-4 -8q-2 -4 -4 -17l-3 -31q-2 -17 -3.5 -34.5t-1.5 -28.5q0 -1 1 -2q2 -2 3 -2 q8 0 15 7t15 10l160 148l41 63q5 7 19.5 15.5t29.5 9t26.5 -9.5t11.5 -39zM488 408q5 4 4 12t-5.5 14t-11.5 7.5t-13 -7.5q-3 -4 -10 -16l-16 -24l-12 -22q-5 -9 -2 -7z" />
<glyph unicode="&#xe7;" horiz-adv-x="354" d="M23 120q-7 30 0.5 71t24 82.5t41 78.5t52 59t56 24.5t54.5 -25.5q0 -1 1 -5t2 -16.5t1.5 -35t0.5 -61.5q1 -2 2.5 -6.5t1.5 -6.5q-3 -11 -11.5 -20.5t-21.5 -9.5q-17 0 -27.5 5.5t-15.5 26.5q2 3 1 12.5t-3.5 21.5t-4.5 24t-2 19q-1 0 -3 -2l-2 -2q-17 -30 -31.5 -66.5 t-22 -74t-5 -74.5t21.5 -67q14 0 26 11.5t20 21.5l33 41q17 21 31 44q6 10 9 18t7.5 13t11.5 8t21 3q16 0 30 -7.5t14 -24.5q0 -23 -20.5 -57.5t-50 -66.5t-62.5 -54.5t-58 -22.5q-24 0 -46.5 9.5t-39 25.5t-26.5 38t-10 48zM106 -278q0 5 0.5 9t4.5 8q12 15 34.5 20t46 8.5 t43.5 10.5t28 28q8 18 -2.5 26t-28.5 10t-36 0.5t-25 -2.5q-14 0 -34.5 2t-40 8.5t-33 18.5t-13.5 32q6 33 20 60t31.5 45t35 25.5t30 2t16.5 -26t-6 -57.5q-6 -7 -15 -19.5t-9 -14.5v-1q26 -5 58 -3.5t62.5 -1.5t57 -17t42.5 -51q9 -42 -1 -64.5t-37 -36t-69 -24t-95 -29.5 q-2 -3 -9.5 -4t-12.5 -1q-14 0 -28.5 12t-14.5 27z" />
<glyph unicode="&#xe8;" horiz-adv-x="445" d="M441 284q-2 -18 -4.5 -28t-8.5 -18t-17 -16l-30 -24l-47 -41t-68 -65l-33 -31q-17 -16 -35.5 -28.5t-38.5 -20.5t-42 -8q-43 0 -63 29t-20 67q0 25 1.5 42t7.5 44l-19 18q-8 7 -8 20q0 12 5.5 16t13 5.5t14.5 3.5t10 8l7 22l12 33l12 34l7 21q7 17 15.5 34.5t20 31.5 t27 23t36.5 9q12 0 29.5 -11t33.5 -26.5t27 -32.5t11 -29q0 -15 -7 -27.5t-17.5 -23t-22.5 -19.5l-22 -17q-1 0 -4 -2t-5 -3l-5 -4l-7 -8q-4 -4 -7.5 -8t-4.5 -5q-3 -3 -11 -9l-19 -14l-19 -14q-8 -7 -11 -9l-4 -8q-2 -4 -3 -17l-4 -31q-2 -17 -3.5 -34.5t-1.5 -28.5 q0 -1 1 -2q2 -2 3 -2q8 0 15 7t15 10l160 148l41 63q5 7 19.5 15.5t29.5 9t26.5 -9.5t11.5 -39zM221 362q5 4 4 12t-5.5 14t-11.5 7.5t-13 -7.5q-3 -4 -11 -16l-14 -24l-13 -22q-5 -9 -2 -7zM298 608q-11 -18 -28.5 -15t-35.5 15.5t-34.5 29t-24.5 25.5l-11 11q-6 6 -9.5 13 t-4 14t5.5 15q11 15 25 19t30 -7q15 -21 31 -33t29.5 -23.5t21.5 -25.5t5 -38z" />
<glyph unicode="&#xe9;" horiz-adv-x="445" d="M441 284q-2 -18 -4.5 -28t-8.5 -18t-17 -16l-30 -24l-47 -41t-68 -65l-33 -31q-17 -16 -35.5 -28.5t-38.5 -20.5t-42 -8q-43 0 -63 29t-20 67q0 25 1.5 42t7.5 44l-19 18q-8 7 -8 20q0 12 5.5 16t13 5.5t14.5 3.5t10 8l7 22l12 33l12 34l7 21q7 17 15.5 34.5t20 31.5 t27 23t36.5 9q12 0 29.5 -11t33.5 -26.5t27 -32.5t11 -29q0 -15 -7 -27.5t-17.5 -23t-22.5 -19.5l-22 -17q-1 0 -4 -2t-5 -3l-5 -4l-7 -8q-4 -4 -7.5 -8t-4.5 -5q-3 -3 -11 -9l-19 -14l-19 -14q-8 -7 -11 -9l-4 -8q-2 -4 -3 -17l-4 -31q-2 -17 -3.5 -34.5t-1.5 -28.5 q0 -1 1 -2q2 -2 3 -2q8 0 15 7t15 10l160 148l41 63q5 7 19.5 15.5t29.5 9t26.5 -9.5t11.5 -39zM221 362q5 4 4 12t-5.5 14t-11.5 7.5t-13 -7.5q-3 -4 -11 -16l-14 -24l-13 -22q-5 -9 -2 -7zM115 527q-3 26 4.5 41t20 27t27.5 25t29 36q15 12 28 8t24 -21q6 -9 5.5 -16.5 t-4.5 -15t-9.5 -13.5t-9.5 -12l-23 -28q-15 -17 -32 -30.5t-33.5 -16.5t-26.5 16z" />
<glyph unicode="&#xea;" horiz-adv-x="445" d="M441 284q-2 -18 -4.5 -28t-8.5 -18t-17 -16l-30 -24l-47 -41t-68 -65l-33 -31q-17 -16 -35.5 -28.5t-38.5 -20.5t-42 -8q-43 0 -63 29t-20 67q0 25 1.5 42t7.5 44l-19 18q-8 7 -8 20q0 12 5.5 16t13 5.5t14.5 3.5t10 8l7 22l12 33l12 34l7 21q7 17 15.5 34.5t20 31.5 t27 23t36.5 9q12 0 29.5 -11t33.5 -26.5t27 -32.5t11 -29q0 -15 -7 -27.5t-17.5 -23t-22.5 -19.5l-22 -17q-1 0 -4 -2t-5 -3l-5 -4l-7 -8q-4 -4 -7.5 -8t-4.5 -5q-3 -3 -11 -9l-19 -14l-19 -14q-8 -7 -11 -9l-4 -8q-2 -4 -3 -17l-4 -31q-2 -17 -3.5 -34.5t-1.5 -28.5 q0 -1 1 -2q2 -2 3 -2q8 0 15 7t15 10l160 148l41 63q5 7 19.5 15.5t29.5 9t26.5 -9.5t11.5 -39zM221 362q5 4 4 12t-5.5 14t-11.5 7.5t-13 -7.5q-3 -4 -11 -16l-14 -24l-13 -22q-5 -9 -2 -7zM125 678q1 2 3.5 8.5t5.5 13.5l6 14q3 6 4 9q4 8 14.5 9.5t20.5 1.5q8 0 14 -1.5 t12 -7.5q3 -5 11 -17l19 -26l19 -26q8 -13 11 -17q1 -1 4 -4.5t3 -4.5l10 -14l15 -23l15 -23q7 -11 10 -15q3 -5 3.5 -7.5t0.5 -7.5q0 -11 -9 -15t-24 -4q-13 0 -23.5 5.5t-15.5 13.5l-67 99l-4 -3q-3 -4 -6 -11t-11 -21l-20 -36q-13 -23 -36 -59q-2 -2 -10.5 -5t-11.5 -3 q-6 0 -15.5 2.5t-17.5 6.5t-12.5 9.5t-0.5 12.5z" />
<glyph unicode="&#xeb;" horiz-adv-x="445" d="M441 284q-2 -18 -4.5 -28t-8.5 -18t-17 -16l-30 -24l-47 -41t-68 -65l-33 -31q-17 -16 -35.5 -28.5t-38.5 -20.5t-42 -8q-43 0 -63 29t-20 67q0 25 1.5 42t7.5 44l-19 18q-8 7 -8 20q0 12 5.5 16t13 5.5t14.5 3.5t10 8l7 22l12 33l12 34l7 21q7 17 15.5 34.5t20 31.5 t27 23t36.5 9q12 0 29.5 -11t33.5 -26.5t27 -32.5t11 -29q0 -15 -7 -27.5t-17.5 -23t-22.5 -19.5l-22 -17q-1 0 -4 -2t-5 -3l-5 -4l-7 -8q-4 -4 -7.5 -8t-4.5 -5q-3 -3 -11 -9l-19 -14l-19 -14q-8 -7 -11 -9l-4 -8q-2 -4 -3 -17l-4 -31q-2 -17 -3.5 -34.5t-1.5 -28.5 q0 -1 1 -2q2 -2 3 -2q8 0 15 7t15 10l160 148l41 63q5 7 19.5 15.5t29.5 9t26.5 -9.5t11.5 -39zM221 362q5 4 4 12t-5.5 14t-11.5 7.5t-13 -7.5q-3 -4 -11 -16l-14 -24l-13 -22q-5 -9 -2 -7zM67 564q0 14 10.5 26t24.5 12q17 0 27.5 -9t20.5 -20v-3q0 -17 -11.5 -30.5 t-30.5 -13.5q-13 0 -27 12t-14 26zM196 564q0 14 10.5 26t24.5 12q17 0 27.5 -9t20.5 -20v-3q0 -17 -11.5 -30.5t-30.5 -13.5q-13 0 -27 12t-14 26z" />
<glyph unicode="&#xec;" horiz-adv-x="173" d="M70 38l-17 171l-12 119q-5 48 -8.5 76.5t-5.5 43t-3 19.5t-1 6v4q0 11 9.5 18.5t19.5 7.5q15 0 32.5 -5t23.5 -21q9 -49 12.5 -99t6 -99.5t7 -99.5t16.5 -99q0 -2 1.5 -8t3 -13t2.5 -13t1 -8v-2q0 -1 1 -2q0 -12 -11 -24t-23 -10q-3 1 -14.5 3.5t-15.5 4.5q-3 1 -8 4.5 t-9.5 7.5t-7.5 9t0 9zM162 608q-11 -18 -28.5 -15t-35.5 15.5t-34.5 29t-24.5 25.5l-11 11q-6 6 -9.5 13t-4 14t5.5 15q11 15 25 19t30 -7q15 -21 31 -33t29.5 -23.5t21.5 -25.5t5 -38z" />
<glyph unicode="&#xed;" horiz-adv-x="173" d="M70 38q-3 -4 0 -9t7.5 -9t9.5 -7.5t8 -4.5q4 -2 15.5 -4.5t14.5 -3.5q12 -2 23 10t11 24q-1 1 -1 2v2q0 2 -1 8t-2.5 13t-3 13t-1.5 8q-12 49 -16.5 99t-7 99.5t-6 99.5t-12.5 99q-6 16 -23.5 21t-32.5 5q-10 0 -19.5 -7.5t-9.5 -18.5v-4q0 -1 1 -6t3 -19.5t5.5 -43 t8.5 -76.5l12 -119zM16 629q-3 26 4.5 41t20 27t27.5 25t29 36q15 12 28 8t24 -21q6 -9 5.5 -16.5t-4.5 -15t-9.5 -13.5t-9.5 -12l-23 -28q-15 -17 -32 -30.5t-33.5 -16.5t-26.5 16z" />
<glyph unicode="&#xee;" horiz-adv-x="173" d="M70 38l-17 171l-12 119q-5 48 -8.5 76.5t-5.5 43t-3 19.5t-1 6v4q0 11 9.5 18.5t19.5 7.5q15 0 32.5 -5t23.5 -21q9 -49 12.5 -99t6 -99.5t7 -99.5t16.5 -99q0 -2 1.5 -8t3 -13t2.5 -13t1 -8v-2q0 -1 1 -2q0 -12 -11 -24t-23 -10q-3 1 -14.5 3.5t-15.5 4.5q-3 1 -8 4.5 t-9.5 7.5t-7.5 9t0 9zM33 821q1 2 3.5 8.5t5.5 13.5l6 13q3 7 4 10q4 8 14.5 9.5t20.5 1.5q8 0 14 -1.5t12 -7.5l11 -18l19 -26l18 -26l12 -16q1 -1 4 -4.5t3 -4.5q3 -4 10 -15l15 -22l15 -23q7 -11 10 -15q3 -5 3.5 -7.5t0.5 -7.5q0 -11 -9 -15t-24 -4q-13 0 -23.5 5.5 t-15.5 13.5l-67 99l-4 -3q-3 -4 -6 -11t-11 -21l-20 -37q-13 -22 -36 -58q-2 -2 -10.5 -5t-11.5 -3q-6 0 -15.5 2.5t-17.5 6.5t-12.5 9.5t-0.5 12.5z" />
<glyph unicode="&#xef;" horiz-adv-x="173" d="M70 38l-17 171l-12 119q-5 48 -8.5 76.5t-5.5 43t-3 19.5t-1 6v4q0 11 9.5 18.5t19.5 7.5q15 0 32.5 -5t23.5 -21q9 -49 12.5 -99t6 -99.5t7 -99.5t16.5 -99q0 -2 1.5 -8t3 -13t2.5 -13t1 -8v-2q0 -1 1 -2q0 -12 -11 -24t-23 -10q-3 1 -14.5 3.5t-15.5 4.5q-3 1 -8 4.5 t-9.5 7.5t-7.5 9t0 9zM-19 710q0 14 10.5 26t24.5 12q17 0 27.5 -9t20.5 -20v-3q0 -17 -11.5 -30.5t-30.5 -13.5q-13 0 -27 12t-14 26zM110 710q0 14 10.5 26t24.5 12q17 0 27.5 -9t20.5 -20v-3q0 -17 -11.5 -30.5t-30.5 -13.5q-13 0 -27 12t-14 26z" />
<glyph unicode="&#xf0;" horiz-adv-x="371" d="M201 1q-37 7 -68.5 25t-54.5 42t-36 52.5t-13 57.5q0 18 9 36t37 18q64 2 105 -26t60 -73l-69 200l-56 -21q-8 12 -11 30.5t-8 26.5q-1 2 5 4t13.5 4t13.5 4.5t3 4.5q-21 32 -21 56.5t12.5 32t32 -7t36.5 -60.5l61 33l33 -52q2 -3 -8.5 -6.5t-24 -7t-24 -7t-8.5 -6.5 q24 -35 46 -74.5t36.5 -79t19.5 -76t-5 -65t-38 -46t-78 -19.5zM175 129q-22 31 -42 35.5t-29.5 -6.5t-6 -32t29.5 -39q15 -11 33.5 -14.5t29.5 1.5t10 18.5t-25 36.5z" />
<glyph unicode="&#xf1;" horiz-adv-x="414" d="M308 34q-14 20 -23.5 55.5t-18 75t-15.5 77t-14.5 60t-16.5 25.5t-21 -27l-87 -268q-5 -14 -12 -19.5t-23 -5.5q-8 0 -17 2.5t-17 7.5t-13.5 12t-6.5 16q3 12 5.5 44t3.5 74t1.5 88.5t0 87t-1.5 70t-2 38.5q0 10 0.5 20.5t3 19.5t9 14.5t20.5 5.5q19 0 35.5 -16t16.5 -34 q0 -26 -2.5 -51.5t-2.5 -51.5v-27q0 -11 4 -27l10 28q7 20 16 42l15 42l10 27q7 20 21 38.5t37 20.5q15 1 27.5 -8t21.5 -23.5t15 -30t9 -26.5l54 -249l42 -114q1 -1 1 -5v-7q0 -12 -5.5 -23.5t-19.5 -11.5q-17 0 -35 9.5t-25 24.5zM48 591q0 5 0.5 8.5t1.5 8.5l14 42 q8 21 18.5 39.5t24 32.5t31.5 20q7 0 13 -1.5t12 -9.5l57 -72q8 -5 13.5 -12t15.5 -7q7 0 13 11t9 16q6 9 10.5 20t10 21t12 16.5t16.5 6.5q11 0 14.5 -9t3.5 -23q0 -21 -7 -44.5t-18.5 -42.5t-25.5 -31.5t-29 -12.5q-18 -1 -34 8t-30.5 22.5t-28.5 28.5t-27 26 q-10 0 -18.5 -14t-16 -30.5t-15 -30t-14.5 -13.5t-16.5 7t-9.5 19z" />
<glyph unicode="&#xf2;" horiz-adv-x="338" d="M26 153l37 257q2 13 11.5 19t21.5 6q22 0 35 -12.5t22 -30.5h1q12 0 21.5 4.5t23.5 4.5q32 0 54.5 -20t36.5 -48.5t20.5 -61.5t6.5 -58q0 -30 -15.5 -67t-41 -70t-57.5 -55t-65 -22q-30 0 -51.5 14t-35 35.5t-19.5 48.5t-6 53v3zM110 147q2 -10 4 -23t6 -23.5t11.5 -16 t21.5 -0.5l28 27q15 15 28.5 32t22.5 36t9 40q4 34 -5 62.5t-25.5 41t-37.5 3t-42 -51.5q-12 -26 -16.5 -60.5t-4.5 -63.5v-3zM228 511q-11 -18 -28.5 -15t-35.5 15.5t-34.5 29t-24.5 25.5l-11 11q-6 6 -9.5 13t-4 14t5.5 15q11 15 25 19t30 -7q15 -21 31 -33t29.5 -23.5 t21.5 -25.5t5 -38z" />
<glyph unicode="&#xf3;" horiz-adv-x="338" d="M26 153l37 257q2 13 11.5 19t21.5 6q22 0 35 -12.5t22 -30.5h1q12 0 21.5 4.5t23.5 4.5q32 0 54.5 -20t36.5 -48.5t20.5 -61.5t6.5 -58q0 -30 -15.5 -67t-41 -70t-57.5 -55t-65 -22q-30 0 -51.5 14t-35 35.5t-19.5 48.5t-6 53v3zM110 147q2 -10 4 -23t6 -23.5t11.5 -16 t21.5 -0.5l28 27q15 15 28.5 32t22.5 36t9 40q4 34 -5 62.5t-25.5 41t-37.5 3t-42 -51.5q-12 -26 -16.5 -60.5t-4.5 -63.5v-3zM98 535q-3 26 4.5 41t20 27t27.5 25t29 36q15 12 28 8t24 -21q6 -9 5.5 -16.5t-4.5 -15t-9.5 -13.5t-9.5 -12l-23 -28q-15 -17 -32 -30.5 t-33.5 -16.5t-26.5 16z" />
<glyph unicode="&#xf4;" horiz-adv-x="338" d="M26 153l37 257q2 13 11.5 19t21.5 6q22 0 35 -12.5t22 -30.5h1q12 0 21.5 4.5t23.5 4.5q32 0 54.5 -20t36.5 -48.5t20.5 -61.5t6.5 -58q0 -30 -15.5 -67t-41 -70t-57.5 -55t-65 -22q-30 0 -51.5 14t-35 35.5t-19.5 48.5t-6 53v3zM110 147q2 -10 4 -23t6 -23.5t11.5 -16 t21.5 -0.5l28 27q15 15 28.5 32t22.5 36t9 40q4 34 -5 62.5t-25.5 41t-37.5 3t-42 -51.5q-12 -26 -16.5 -60.5t-4.5 -63.5v-3zM121 692q1 2 3.5 8.5t5.5 13.5l6 14q3 6 4 9q4 8 14.5 9.5t20.5 1.5q8 0 14 -1.5t12 -7.5q3 -5 11 -17l19 -26l19 -26q8 -13 11 -17q1 -1 4 -4.5 t3 -4.5l10 -14l15 -23l15 -23q7 -11 10 -15q3 -5 3.5 -7.5t0.5 -7.5q0 -11 -9 -15t-24 -4q-13 0 -23.5 5.5t-15.5 13.5l-67 99l-4 -3q-3 -4 -6 -11t-11 -21l-20 -36q-13 -23 -36 -59q-2 -2 -10.5 -5t-11.5 -3q-6 0 -15.5 2.5t-17.5 6.5t-12.5 9.5t-0.5 12.5z" />
<glyph unicode="&#xf5;" horiz-adv-x="338" d="M26 153l37 257q2 13 11.5 19t21.5 6q22 0 35 -12.5t22 -30.5h1q12 0 21.5 4.5t23.5 4.5q32 0 54.5 -20t36.5 -48.5t20.5 -61.5t6.5 -58q0 -30 -15.5 -67t-41 -70t-57.5 -55t-65 -22q-30 0 -51.5 14t-35 35.5t-19.5 48.5t-6 53v3zM110 147q2 -10 4 -23t6 -23.5t11.5 -16 t21.5 -0.5l28 27q15 15 28.5 32t22.5 36t9 40q4 34 -5 62.5t-25.5 41t-37.5 3t-42 -51.5q-12 -26 -16.5 -60.5t-4.5 -63.5v-3zM25 502q0 5 0.5 8.5t1.5 8.5l15 42q7 21 17.5 39.5t24 32.5t31.5 20q7 0 13 -1.5t12 -9.5l57 -72q8 -5 13.5 -12t15.5 -7q7 0 13 11t9 16 q6 9 10.5 20t10 21t12 16.5t16.5 6.5q11 0 14.5 -9t3.5 -23q0 -21 -7 -44.5t-18.5 -42.5t-25.5 -31.5t-29 -12.5q-18 -1 -34 8t-30.5 22.5t-28.5 28.5t-27 26q-10 0 -18.5 -14t-16 -30.5t-15 -30t-14.5 -13.5t-16.5 7t-9.5 19z" />
<glyph unicode="&#xf6;" horiz-adv-x="338" d="M26 153l37 257q2 13 11.5 19t21.5 6q22 0 35 -12.5t22 -30.5h1q12 0 21.5 4.5t23.5 4.5q32 0 54.5 -20t36.5 -48.5t20.5 -61.5t6.5 -58q0 -30 -15.5 -67t-41 -70t-57.5 -55t-65 -22q-30 0 -51.5 14t-35 35.5t-19.5 48.5t-6 53v3zM110 147q2 -10 4 -23t6 -23.5t11.5 -16 t21.5 -0.5l28 27q15 15 28.5 32t22.5 36t9 40q4 34 -5 62.5t-25.5 41t-37.5 3t-42 -51.5q-12 -26 -16.5 -60.5t-4.5 -63.5v-3zM66 527q0 14 10.5 26t24.5 12q17 0 27.5 -9t20.5 -20v-3q0 -17 -11.5 -30.5t-30.5 -13.5q-13 0 -27 12t-14 26zM195 527q0 14 10.5 26t24.5 12 q17 0 27.5 -9t20.5 -20v-3q0 -17 -11.5 -30.5t-30.5 -13.5q-13 0 -27 12t-14 26z" />
<glyph unicode="&#xf7;" horiz-adv-x="376" d="M113 154q0 14 8.5 27.5t22.5 13.5q9 0 19.5 -4t19.5 -11t14 -16.5t4 -20.5q-2 -14 -15 -22t-24 -8q-18 0 -33.5 10.5t-15.5 30.5zM117 358q-2 20 16 29t34 9q4 0 9.5 -4.5t11 -11t9.5 -13t4 -9.5q4 -14 -9 -23.5t-25 -9.5q-14 0 -31 8t-19 25zM14 252q0 17 12 24.5 t26 10.5l251 25q17 0 32 -6t15 -26q0 -5 -6.5 -11t-14.5 -11t-17 -8.5t-13 -1.5l-247 -27q-13 0 -25.5 8.5t-12.5 22.5z" />
<glyph unicode="&#xf8;" horiz-adv-x="338" d="M26 153l37 257q2 13 11.5 19t21.5 6q22 0 35 -12.5t22 -30.5h1q12 0 21.5 4.5t23.5 4.5q32 0 54.5 -20t36.5 -48.5t20.5 -61.5t6.5 -58q0 -30 -15.5 -67t-41 -70t-57.5 -55t-65 -22q-30 0 -51.5 14t-35 35.5t-19.5 48.5t-6 53v3zM110 147q2 -10 4 -23t6 -23.5t11.5 -16 t21.5 -0.5l28 27q15 15 28.5 32t22.5 36t9 40q4 34 -5 62.5t-25.5 41t-37.5 3t-42 -51.5q-12 -26 -16.5 -60.5t-4.5 -63.5v-3zM92 -41q4 28 11 52l14 52v5l117 425q2 10 8.5 13.5t20.5 3.5h2q15 -5 19.5 -9t4.5 -15q0 -7 -2.5 -14.5t-3.5 -14.5q-1 -2 -3 -8l-5 -14l-4 -14 q-2 -6 -3 -8v-2l-92 -326l-16.5 -64.5t-14.5 -65.5q-3 -7 -10.5 -10.5t-16.5 -3.5t-17.5 4.5t-8.5 12.5v1z" />
<glyph unicode="&#xf9;" horiz-adv-x="350" d="M221 95q-7 -15 -14 -32.5t-16 -31.5t-22 -23.5t-33 -9.5q-35 0 -58 17.5t-37.5 44t-20.5 57.5t-6 58l8 242q-1 7 3.5 14.5t12 14t17 10.5t17.5 4q23 0 39 -14.5t16 -37.5v-10q-11 -18 -19 -47t-12.5 -62.5t-5.5 -68.5t2.5 -64t11.5 -49.5t21 -24.5q5 0 15.5 5t22.5 19 t25 39.5t23 67.5t15 102t3 144q4 11 11.5 12t15.5 1q9 0 15 -0.5t13 -7.5q5 -5 11 -15t6 -11l17 -443q0 -15 -8 -25t-23 -10q-5 0 -12 1t-14 4t-12.5 7.5t-6.5 10.5l-17 100zM250 608q-11 -18 -28.5 -15t-35.5 15.5t-34.5 29t-24.5 25.5l-11 11q-6 6 -9.5 13t-4 14t5.5 15 q11 15 25 19t30 -7q15 -21 31 -33t29.5 -23.5t21.5 -25.5t5 -38z" />
<glyph unicode="&#xfa;" horiz-adv-x="350" d="M221 95q-7 -15 -14 -32.5t-16 -31.5t-22 -23.5t-33 -9.5q-35 0 -58 17.5t-37.5 44t-20.5 57.5t-6 58l8 242q-1 7 3.5 14.5t12 14t17 10.5t17.5 4q23 0 39 -14.5t16 -37.5v-10q-11 -18 -19 -47t-12.5 -62.5t-5.5 -68.5t2.5 -64t11.5 -49.5t21 -24.5q5 0 15.5 5t22.5 19 t25 39.5t23 67.5t15 102t3 144q4 11 11.5 12t15.5 1q9 0 15 -0.5t13 -7.5q5 -5 11 -15t6 -11l17 -443q0 -15 -8 -25t-23 -10q-5 0 -12 1t-14 4t-12.5 7.5t-6.5 10.5l-17 100zM104 629q-3 26 4.5 41t20 27t27.5 25t29 36q15 12 28 8t24 -21q6 -9 5.5 -16.5t-4.5 -15 t-9.5 -13.5t-9.5 -12l-23 -28q-15 -17 -32 -30.5t-33.5 -16.5t-26.5 16z" />
<glyph unicode="&#xfb;" horiz-adv-x="350" d="M221 95q-7 -15 -14 -32.5t-16 -31.5t-22 -23.5t-33 -9.5q-35 0 -58 17.5t-37.5 44t-20.5 57.5t-6 58l8 242q-1 7 3.5 14.5t12 14t17 10.5t17.5 4q23 0 39 -14.5t16 -37.5v-10q-11 -18 -19 -47t-12.5 -62.5t-5.5 -68.5t2.5 -64t11.5 -49.5t21 -24.5q5 0 15.5 5t22.5 19 t25 39.5t23 67.5t15 102t3 144q4 11 11.5 12t15.5 1q9 0 15 -0.5t13 -7.5q5 -5 11 -15t6 -11l17 -443q0 -15 -8 -25t-23 -10q-5 0 -12 1t-14 4t-12.5 7.5t-6.5 10.5l-17 100zM121 821q1 2 3.5 8.5t5.5 13.5l6 13q3 7 4 10q4 8 14.5 9.5t20.5 1.5q8 0 14 -1.5t12 -7.5l11 -18 l19 -26l19 -26q8 -12 11 -16q1 -1 4 -4.5t3 -4.5q3 -4 10 -15l15 -22l15 -23q7 -11 10 -15q3 -5 3.5 -7.5t0.5 -7.5q0 -11 -9 -15t-24 -4q-13 0 -23.5 5.5t-15.5 13.5l-67 99l-4 -3q-3 -4 -6 -11t-11 -21l-20 -37q-13 -22 -36 -58q-2 -2 -10.5 -5t-11.5 -3q-6 0 -15.5 2.5 t-17.5 6.5t-12.5 9.5t-0.5 12.5z" />
<glyph unicode="&#xfc;" horiz-adv-x="350" d="M221 95q-7 -15 -14 -32.5t-16 -31.5t-22 -23.5t-33 -9.5q-35 0 -58 17.5t-37.5 44t-20.5 57.5t-6 58l8 242q-1 7 3.5 14.5t12 14t17 10.5t17.5 4q23 0 39 -14.5t16 -37.5v-10q-11 -18 -19 -47t-12.5 -62.5t-5.5 -68.5t2.5 -64t11.5 -49.5t21 -24.5q5 0 15.5 5t22.5 19 t25 39.5t23 67.5t15 102t3 144q4 11 11.5 12t15.5 1q9 0 15 -0.5t13 -7.5q5 -5 11 -15t6 -11l17 -443q0 -15 -8 -25t-23 -10q-5 0 -12 1t-14 4t-12.5 7.5t-6.5 10.5l-17 100zM69 710q0 14 10.5 26t24.5 12q17 0 27.5 -9t20.5 -20v-3q0 -17 -11.5 -30.5t-30.5 -13.5 q-13 0 -27 12t-14 26zM198 710q0 14 10.5 26t24.5 12q17 0 27.5 -9t20.5 -20v-3q0 -17 -11.5 -30.5t-30.5 -13.5q-13 0 -27 12t-14 26z" />
<glyph unicode="&#xfd;" horiz-adv-x="342" d="M223 -275q-2 21 -2.5 51t-0.5 63t0.5 67t2.5 62v36q-5 7 -12 14.5t-24.5 30t-49.5 67.5l-86 124q-21 22 -27 36.5t-4 23.5t10.5 13t16.5 4q20 0 36 -9t29 -23t24 -31l20 -31l15 -23l18 -28l15 -23l7 -10l12 -13v105q0 50 -2 97.5t-2 96.5q0 14 10 23t24 8q17 -2 25.5 -6 t17.5 -16q8 -11 7.5 -26t0.5 -29q4 -95 6.5 -189.5t2.5 -189.5q-1 -9 -1 -36.5v-62.5l2 -73v-70q1 -31 1.5 -51.5t1.5 -19.5q0 -15 -10.5 -22t-25.5 -7q-20 0 -29.5 5.5t-14.5 15t-7 21.5t-7 25zM100 629q-3 26 4.5 41t20 27t27.5 25t29 36q15 12 28 8t24 -21 q6 -9 5.5 -16.5t-4.5 -15t-9.5 -13.5t-9.5 -12l-23 -28q-15 -17 -32 -30.5t-33.5 -16.5t-26.5 16z" />
<glyph unicode="&#xfe;" horiz-adv-x="394" d="M31 336q-19 7 -34.5 17t-15.5 33q0 6 3 8t5 6q2 3 8 11l13 18l13 18l8 11q-3 11 -7 34t-7 51t-2.5 56t6.5 49t19 31t37 2q6 0 10 -21t7.5 -46t7.5 -46t10 -21h4q41 32 84.5 56.5t97.5 24.5q35 0 57.5 -20.5t22.5 -57.5q0 -46 -21 -95t-52.5 -95.5t-68 -87.5t-66.5 -71 q-3 -4 -9 -8.5t-11 -9.5q-6 -5 -13 -12v-119q0 -9 -0.5 -19t-4 -18.5t-10 -14t-18.5 -5.5q-6 0 -16 2.5t-19 7.5t-15.5 12t-6.5 16zM124 273h4q1 0 6 6l13 14l15 17q8 8 12 13q30 22 55 55t40.5 66.5t19 60.5t-9 37.5t-43 -2.5t-82.5 -60q-12 -10 -22 -23t-12 -29z" />
<glyph unicode="&#xff;" horiz-adv-x="342" d="M223 -275q-2 21 -2.5 51t-0.5 63t0.5 67t2.5 62v36q-5 7 -12 14.5t-24.5 30t-49.5 67.5l-86 124q-21 22 -27 36.5t-4 23.5t10.5 13t16.5 4q20 0 36 -9t29 -23t24 -31l20 -31l15 -23l18 -28l15 -23l7 -10l12 -13v105q0 50 -2 97.5t-2 96.5q0 14 10 23t24 8q17 -2 25.5 -6 t17.5 -16q8 -11 7.5 -26t0.5 -29q4 -95 6.5 -189.5t2.5 -189.5q-1 -9 -1 -36.5v-62.5l2 -73v-70q1 -31 1.5 -51.5t1.5 -19.5q0 -15 -10.5 -22t-25.5 -7q-20 0 -29.5 5.5t-14.5 15t-7 21.5t-7 25zM65 710q0 14 10.5 26t24.5 12q17 0 27.5 -9t20.5 -20v-3q0 -17 -11.5 -30.5 t-30.5 -13.5q-13 0 -27 12t-14 26zM194 710q0 14 10.5 26t24.5 12q17 0 27.5 -9t20.5 -20v-3q0 -17 -11.5 -30.5t-30.5 -13.5q-13 0 -27 12t-14 26z" />
<glyph unicode="&#x152;" horiz-adv-x="638" d="M22 177q1 6 0 32t-0.5 64.5t2 84.5t7 93t16 90.5t27.5 75.5q6 27 29 37.5t65 12.5q27 0 46 -14t32.5 -34.5t23.5 -44.5l18 -43v-5q7 -20 10.5 -59.5t5 -83t1.5 -83.5v-61q0 -30 -8 -71.5t-25.5 -78.5t-45.5 -63t-67 -26q-33 0 -58.5 17t-43 43.5t-26.5 57.5t-9 59z M119 110q2 -11 11.5 -22.5t22.5 -11.5h8q42 38 55 87.5t13 104.5q0 13 -1 40t-3.5 60.5t-6.5 70.5t-10 69.5t-14 56.5t-19 33q-1 -1 -2.5 -4t-1.5 -4q-21 -26 -38 -71t-25.5 -106.5t-7 -138t18.5 -164.5zM293 25q-10 40 -15 75.5t-7 75.5q-1 23 0 39.5t-4 36.5q-1 4 -4.5 6 t-7 5t-6.5 7.5t-3 14.5q0 8 4 14l6 11q4 6 7.5 12.5t3.5 15.5v15q0 10 -2 34t-4 51t-3.5 51t-2.5 33q-1 17 -9 30t-8 30q0 32 13 45t46 13q7 0 11.5 -6t10.5 -6h4q3 1 9 2.5t8 1.5l131 56q47 20 71 29t32.5 10t14.5 -2q12 -2 16.5 -7.5t4.5 -16.5q0 -10 -3 -20t-14 -15 l-131 -63l-4 -4l-110 -47q-6 -2 -7 -10t-1 -13q0 -8 2 -29l4 -44q2 -22 4.5 -39.5t3.5 -17.5h1l1 1q11 8 35 28l49 39l44 35q19 16 20 16q11 0 20 -11t9 -23t-5 -27t-16 -23l-156 -139v-5q0 -5 -0.5 -11t-0.5 -13v-10q0 -36 5 -71.5t5 -71.5h4q1 0 9 8t12 13q2 3 10 13 l25 33l48 61l77 96l12 12q7 8 9 8q3 3 12.5 2.5t13.5 -2.5q5 -2 13 -11t8 -17q0 -12 -12.5 -31.5t-29.5 -40.5l-34 -41q-17 -19 -26 -31l-34 -53q-19 -32 -42 -60.5t-50.5 -49t-58.5 -20.5q-15 0 -21.5 5t-16.5 18z" />
<glyph unicode="&#x153;" horiz-adv-x="679" d="M658 273q-2 -18 -4.5 -28t-8.5 -18t-17 -16l-30 -24l-47 -41t-68 -65l-33 -31q-17 -16 -35.5 -28.5t-38.5 -20.5t-42 -8q-37 0 -57 21t-25 52q-24 -29 -54 -48t-60 -19t-51.5 14t-35 35.5t-19.5 48.5t-6 53v3l37 257q2 13 11.5 19t21.5 6q22 0 35 -12.5t22 -30.5h1 q12 0 21.5 4.5t23.5 4.5q38 0 61.5 -26.5t37.5 -62.5l9 27l7 17q7 17 15.5 34.5t20 31.5t27 23t36.5 9q12 0 29.5 -11t33.5 -26.5t27 -32.5t11 -29q0 -15 -7 -27.5t-17.5 -23t-22.5 -19.5l-22 -17q-1 0 -4 -2t-5 -3l-4 -4l-8 -8q-4 -4 -7.5 -8t-4.5 -5q-3 -3 -12 -10 l-18 -14l-18 -14l-12 -8l-4 -8q-2 -4 -4 -17l-3 -31q-2 -17 -3.5 -34.5t-1.5 -28.5q0 -1 1 -2q2 -2 3 -2q8 0 15 7t15 10l160 148l41 63q5 7 19.5 15.5t29.5 9t26.5 -9.5t11.5 -39zM110 147q2 -10 4 -23t6 -23.5t11.5 -16t21.5 -0.5l24 23q13 12 25 26.5t21.5 30t14.5 32.5 q12 17 14.5 40t-3 45t-17.5 38t-28 19t-35 -11t-38 -53q-13 -26 -17 -60.5t-4 -63.5v-3zM438 351q5 4 4 12t-5.5 14t-11.5 7.5t-13 -7.5q-3 -4 -10 -16l-15 -24l-13 -22q-5 -9 -2 -7z" />
<glyph unicode="&#x178;" horiz-adv-x="424" d="M226 -6q1 5 2.5 19t3.5 29l5 30q2 13 3 19q5 45 12.5 89.5t7.5 89.5v15l-16 8q-4 2 -20 13l-36 25l-38 29q-19 14 -29 23q-6 4 -19 15l-28 26l-28 26l-18 17q-8 8 -15 18.5t-7 21.5q0 17 13 24.5t28 7.5q10 0 21 -2.5t19 -10.5q38 -42 85 -84t96 -72l4 13l42 270 q2 11 12.5 14t19.5 3q26 0 39.5 -12.5t13.5 -41.5v-2q0 -1 -1.5 -5t-3 -9t-2.5 -9.5t-1 -5.5q-3 -12 -8 -46.5t-11 -82.5l-13 -104l-14 -114l-14 -112q-7 -53 -13 -94q1 -10 1.5 -23t-3.5 -25t-12.5 -20t-23.5 -8q-19 0 -33.5 10t-20.5 28zM71 710q0 14 10.5 26t24.5 12 q17 0 27.5 -9t20.5 -20v-3q0 -17 -11.5 -30.5t-30.5 -13.5q-13 0 -27 12t-14 26zM200 710q0 14 10.5 26t24.5 12q17 0 27.5 -9t20.5 -20v-3q0 -17 -11.5 -30.5t-30.5 -13.5q-13 0 -27 12t-14 26z" />
<glyph unicode="&#x2c6;" horiz-adv-x="354" d="M115 821q1 2 3.5 8.5t5.5 13.5l6 13q3 7 4 10q4 8 14.5 9.5t20.5 1.5q8 0 14 -1.5t12 -7.5l11 -18l19 -26l18 -26l12 -16q1 -1 4 -4.5t3 -4.5q3 -4 10 -15l15 -22l15 -23q7 -11 10 -15q3 -5 3.5 -7.5t0.5 -7.5q0 -11 -9 -15t-24 -4q-13 0 -23.5 5.5t-15.5 13.5l-67 99 l-4 -3q-3 -4 -6 -11t-11 -21l-20 -37q-13 -22 -36 -58q-2 -2 -10.5 -5t-11.5 -3q-6 0 -15.5 2.5t-17.5 6.5t-12.5 9.5t-0.5 12.5z" />
<glyph unicode="&#x2da;" horiz-adv-x="279" d="M137 747q8 0 14.5 2t15.5 2q21 0 36 -9t24.5 -21.5t13.5 -27t4 -25.5q0 -13 -10.5 -29.5t-27 -30.5t-38 -24t-43.5 -10q-23 1 -46 12.5t-30 33t10.5 53.5t75.5 74h1zM187 670q-1 25 -13.5 31.5t-27.5 0.5t-27 -20.5t-13 -31.5q5 -15 18.5 -18.5t27.5 1t25 15t10 22.5z " />
<glyph unicode="&#x2dc;" horiz-adv-x="408" d="M39 502q0 5 0.5 8.5t1.5 8.5l15 42q7 21 17.5 39.5t24 32.5t31.5 20q7 0 13 -1.5t12 -9.5l57 -72q8 -5 13.5 -12t15.5 -7q7 0 13 11t9 16q6 9 10.5 20t10 21t12 16.5t16.5 6.5q11 0 14.5 -9t3.5 -23q0 -21 -7 -44.5t-18.5 -42.5t-25.5 -31.5t-29 -12.5q-18 -1 -34 8 t-30.5 22.5t-28.5 28.5t-27 26q-10 0 -18.5 -14t-16 -30.5t-15 -30t-14.5 -13.5t-16.5 7t-9.5 19z" />
<glyph unicode="&#x2000;" horiz-adv-x="497" />
<glyph unicode="&#x2001;" horiz-adv-x="995" />
<glyph unicode="&#x2002;" horiz-adv-x="497" />
<glyph unicode="&#x2003;" horiz-adv-x="995" />
<glyph unicode="&#x2004;" horiz-adv-x="331" />
<glyph unicode="&#x2005;" horiz-adv-x="248" />
<glyph unicode="&#x2006;" horiz-adv-x="165" />
<glyph unicode="&#x2007;" horiz-adv-x="165" />
<glyph unicode="&#x2008;" horiz-adv-x="124" />
<glyph unicode="&#x2009;" horiz-adv-x="199" />
<glyph unicode="&#x200a;" horiz-adv-x="55" />
<glyph unicode="&#x2010;" horiz-adv-x="409" d="M54 253q0 17 12 24.5t26 10.5l251 25q17 0 32 -6t15 -26q0 -5 -6.5 -11t-14.5 -11t-17 -8.5t-13 -1.5l-247 -27q-13 0 -25.5 8.5t-12.5 22.5z" />
<glyph unicode="&#x2011;" horiz-adv-x="409" d="M54 253q0 17 12 24.5t26 10.5l251 25q17 0 32 -6t15 -26q0 -5 -6.5 -11t-14.5 -11t-17 -8.5t-13 -1.5l-247 -27q-13 0 -25.5 8.5t-12.5 22.5z" />
<glyph unicode="&#x2012;" horiz-adv-x="409" d="M54 253q0 17 12 24.5t26 10.5l251 25q17 0 32 -6t15 -26q0 -5 -6.5 -11t-14.5 -11t-17 -8.5t-13 -1.5l-247 -27q-13 0 -25.5 8.5t-12.5 22.5z" />
<glyph unicode="&#x2013;" horiz-adv-x="409" d="M54 253q0 17 12 24.5t26 10.5l251 25q17 0 32 -6t15 -26q0 -5 -6.5 -11t-14.5 -11t-17 -8.5t-13 -1.5l-247 -27q-13 0 -25.5 8.5t-12.5 22.5z" />
<glyph unicode="&#x2014;" horiz-adv-x="621" d="M54 253q0 17 12 24.5t26 10.5l391 31q17 0 32 -6t15 -26q0 -5 -6.5 -11t-14.5 -11t-17 -8.5t-13 -1.5l-387 -33q-13 0 -25.5 8.5t-12.5 22.5z" />
<glyph unicode="&#x2018;" horiz-adv-x="129" d="M23 505q0 7 1.5 25t3 38t2.5 38t1 26q7 25 32 25q22 0 31 -12.5t9 -32.5q0 -6 -0.5 -23.5t-2.5 -40t-4.5 -47t-6.5 -44.5t-10 -33t-13 -12q-14 2 -22 10.5t-13 19.5t-6.5 23.5t-1.5 23.5v16z" />
<glyph unicode="&#x2019;" horiz-adv-x="129" d="M23 505q0 7 1.5 25t3 38t2.5 38t1 26q7 25 32 25q22 0 31 -12.5t9 -32.5q0 -6 -0.5 -23.5t-2.5 -40t-4.5 -47t-6.5 -44.5t-10 -33t-13 -12q-14 2 -22 10.5t-13 19.5t-6.5 23.5t-1.5 23.5v16z" />
<glyph unicode="&#x201a;" horiz-adv-x="129" d="M17 84q0 7 1.5 25t3 38t2.5 38t1 26q7 25 32 25q22 0 31 -12.5t9 -32.5q0 -6 -0.5 -23.5t-2.5 -40t-4.5 -47t-6.5 -44.5t-10 -33t-13 -12q-14 2 -22 10.5t-13 19.5t-6.5 23.5t-1.5 23.5v16z" />
<glyph unicode="&#x201c;" horiz-adv-x="253" d="M147 676q-4 16 6.5 23t23.5 7q17 0 26 -11.5t12 -26.5q1 -12 2.5 -40t3.5 -59l4 -60q2 -29 2 -40v-23q0 -10 -0.5 -15.5t-2.5 -9.5t-7 -7.5t-14 -7.5h-3q-18 0 -26 15t-11 35.5t-2.5 40.5t-0.5 30q-1 9 -2.5 30t-3.5 44.5t-4 44.5t-3 30zM43 506q1 17 3 43l4 51l3 43 q2 18 2 19l8 25q0 1 6 1.5t9 0.5q29 0 35 -16t6 -42q0 -50 -4 -101t-10 -100q-1 -18 -19 -18q-13 0 -21.5 9.5t-13 22t-6.5 26.5t-2 23v13z" />
<glyph unicode="&#x201d;" horiz-adv-x="253" d="M147 676q-4 16 6.5 23t23.5 7q17 0 26 -11.5t12 -26.5q1 -12 2.5 -40t3.5 -59l4 -60q2 -29 2 -40v-23q0 -10 -0.5 -15.5t-2.5 -9.5t-7 -7.5t-14 -7.5h-3q-18 0 -26 15t-11 35.5t-2.5 40.5t-0.5 30q-1 9 -2.5 30t-3.5 44.5t-4 44.5t-3 30zM43 506q1 17 3 43l4 51l3 43 q2 18 2 19l8 25q0 1 6 1.5t9 0.5q29 0 35 -16t6 -42q0 -50 -4 -101t-10 -100q-1 -18 -19 -18q-13 0 -21.5 9.5t-13 22t-6.5 26.5t-2 23v13z" />
<glyph unicode="&#x201e;" horiz-adv-x="253" d="M139 247q-4 16 6.5 23t23.5 7q17 0 26 -11.5t12 -26.5q1 -12 2.5 -40t3.5 -59l4 -60q2 -29 2 -40v-23q0 -10 -0.5 -15.5t-2.5 -9.5t-7 -7.5t-14 -7.5h-3q-18 0 -26 15t-11 35.5t-2.5 40.5t-0.5 30q-1 9 -2.5 30t-3.5 44.5t-4 44.5t-3 30zM35 77q1 17 3 43l4 51l3 43 q2 18 2 19l8 25q0 1 6 1.5t9 0.5q29 0 35 -16t6 -42q0 -50 -4 -101t-10 -100q-1 -18 -19 -18q-13 0 -21.5 9.5t-13 22t-6.5 26.5t-2 23v13z" />
<glyph unicode="&#x2022;" horiz-adv-x="265" d="M51 294q0 14 6 28.5t16 26t23 18.5t27 7q34 0 56.5 -18.5t42.5 -42.5v-6q0 -18 -6.5 -34.5t-17.5 -29.5t-27.5 -21t-35.5 -8q-13 0 -28 7t-27.5 18.5t-20.5 26t-8 28.5z" />
<glyph unicode="&#x2026;" horiz-adv-x="387" d="M22 38q0 14 10.5 26t24.5 12q17 0 27.5 -9t20.5 -20v-3q0 -17 -11.5 -30.5t-30.5 -13.5q-13 0 -27 12t-14 26zM151 38q0 14 10.5 26t24.5 12q17 0 27.5 -9t20.5 -20v-3q0 -17 -11.5 -30.5t-30.5 -13.5q-13 0 -27 12t-14 26zM280 38q0 14 10.5 26t24.5 12q17 0 27.5 -9 t20.5 -20v-3q0 -17 -11.5 -30.5t-30.5 -13.5q-13 0 -27 12t-14 26z" />
<glyph unicode="&#x202f;" horiz-adv-x="199" />
<glyph unicode="&#x2039;" horiz-adv-x="453" d="M190 119q-3 0 -13.5 -0.5t-23.5 -1.5t-23.5 -1.5t-13.5 -0.5h-30q-12 0 -25 1.5t-23.5 6t-17.5 13.5t-7 25q0 14 8.5 22.5t17.5 19.5l12 15l18 23l18 22q8 11 11 16q3 10 10.5 16.5t11.5 16.5l105 165q6 9 9.5 20.5t8 21.5t11.5 16.5t21 6.5q22 0 35.5 -16t15.5 -36 q1 -2 -0.5 -6.5t-3.5 -6.5l-126 -198q-5 -11 -15 -23l-20 -22q-10 -12 -17.5 -24t-7.5 -23q65 0 127 -3.5t127 -10.5q3 -6 9 -9l13 -8q6 -3 10.5 -8t4.5 -15q0 -40 -41 -40q-14 0 -22.5 5t-20.5 7q-38 8 -76 11t-77 3z" />
<glyph unicode="&#x203a;" horiz-adv-x="431" d="M106 109q0 7 4.5 14t11 13t13.5 11t13 8l160 224q4 6 4 11v3l-274 105q-2 0 -5.5 4.5t-6.5 10.5l-7 12q-3 5 -3 7q-1 7 5.5 12.5t15 9t17.5 5t12 1.5q39 -23 80.5 -39t83.5 -30l86 -29q43 -14 85 -33q7 -9 10 -14.5t3 -13.5q0 -20 -13.5 -34t-24.5 -30l-45 -65l-41 -62 q-21 -31 -45.5 -61t-55.5 -61q-2 -3 -11.5 -9t-13.5 -8q-8 -2 -18 0t-19 7t-15 13t-6 18z" />
<glyph unicode="&#x205f;" horiz-adv-x="248" />
<glyph unicode="&#x20ac;" horiz-adv-x="535" d="M7 336q-2 19 9 26.5t25 11.5q24 9 50.5 16.5t66.5 16.5q1 5 1.5 8t0.5 5v2l19 67q10 36 26.5 67t42.5 52t67 21q18 0 32.5 -2.5t27.5 -8.5t25.5 -14.5t26.5 -20.5q10 -9 11.5 -11t1.5 -12q0 -13 -9 -25t-26 -12q-14 0 -23 6.5t-17.5 15t-18 15t-24.5 6.5q-16 0 -28 -8.5 t-20.5 -21.5t-13 -29t-6.5 -30l-8 -51q20 5 43 10l51 11h5q4 0 9.5 -2t11 -5.5t9.5 -7.5t4 -8q0 -13 -7 -24.5t-18 -16.5q-30 -11 -60 -19l-59 -17l-8 -52q27 8 55 21q22 7 33.5 9.5t28.5 2.5q13 0 29 -5t18 -20q-1 -4 -5.5 -15.5t-6.5 -13.5t-9.5 -7t-11.5 -7 q-37 -6 -72 -21l-72 -31l-7 -51q0 -2 -0.5 -9.5t-0.5 -11.5v-17q0 -11 2 -21.5t7 -18t15 -7.5q3 0 5 1.5t6 2.5q62 17 106.5 43t74.5 50t47 41t26 17q14 0 27 -12t13 -28v-2q1 -5 -23.5 -34.5t-68.5 -63t-104 -60.5t-131 -27h-5q-45 17 -60.5 50.5t-15.5 78.5v24l3 27 q-6 -2 -12.5 -2.5t-12.5 -1.5q-17 0 -34.5 10.5t-17.5 29.5q18 18 40 30.5t48 21.5q2 17 3.5 31t3.5 26q-20 -5 -39.5 -10.5t-39.5 -12.5q-7 0 -17.5 2t-20 6t-16.5 10.5t-8 15.5z" />
<glyph unicode="&#x2122;" horiz-adv-x="1034" d="M483 30q-2 111 -5.5 221.5t-3.5 221.5v18v26q0 14 0.5 30t0.5 30l-182 -46v-9q0 -31 5.5 -61t3.5 -60l34 -309v-22q0 -12 -0.5 -24.5t-4 -22.5t-11.5 -16.5t-24 -6.5q-12 0 -25.5 10t-14.5 24l-38 397v8l-2 21l-3 24l-3 19l-1 8h-8l-114 -34q-5 -8 -16 -8h-18 q-14 0 -28.5 12.5t-14.5 27.5q0 11 7.5 21.5t18.5 14.5l161 51q3 11 11.5 22.5t22.5 11.5t23.5 -7t21.5 -11q9 1 30 6l45 11l44 10l29 7q12 2 18 5t19 3q15 0 31 -8q8 5 20 5q17 0 30 -10.5t21 -24.5l144 -278q1 -2 7 -12t9 -14q1 -1 3 -2t2 -2l4 9l85 299q9 14 13.5 31.5 t10 34.5t14 32t25.5 25h8q27 0 40 -15.5t18 -38t4.5 -47t0.5 -42.5q0 -7 2 -27l3 -47q2 -27 4 -57.5t3.5 -57.5t3 -47t1.5 -26v-4q1 -9 4 -30l7 -44l6 -45q3 -21 5 -29q1 -5 3.5 -15t6.5 -21l6 -22q3 -10 5 -14q-4 -23 -11.5 -35.5t-32.5 -12.5q-3 0 -9 0.5t-7 0.5 q-3 2 -11.5 10t-9.5 11l-16 55l-30 228v9q-1 18 -1 38.5t-0.5 41.5t-2.5 42t-8 39l-5 -6l-72 -290q-1 -11 -2 -23.5t-5 -24t-12 -19.5t-23 -9q-6 -1 -13 2t-14 8t-12.5 11.5t-6.5 12.5l-127 202l-21 42v-86q0 -61 2.5 -119.5t2.5 -119.5v-18q0 -12 -0.5 -26t-0.5 -26v-18 q-4 -12 -11.5 -21t-21.5 -9q-19 0 -29.5 6.5t-17.5 23.5z" />
<glyph unicode="&#xe000;" horiz-adv-x="500" d="M0 500h500v-500h-500v500z" />
<glyph unicode="&#xfb01;" horiz-adv-x="466" d="M66 216q-22 -4 -34.5 3.5t-17.5 19t-4.5 23t4.5 14.5q3 1 13.5 8t12.5 9q1 0 2 1l3 3v18q0 56 -6.5 110.5t-6.5 109.5q0 36 1.5 75t13 72t36.5 54t72 21h19q11 0 20.5 -2.5t16.5 -9t7 -18.5q0 -18 -8.5 -23.5t-21.5 -7t-27 -4t-24 -15.5q-2 -2 -5 -10.5t-3 -11.5 q-2 -7 -4 -19t-3.5 -24t-3 -21.5t-1.5 -10.5v-8q0 -6 -0.5 -15t-0.5 -19v-15v-39q0 -18 1 -35.5t3 -35.5t5 -40h8l135 80q14 3 25 10t25 7t29 -7t15 -22q0 -11 -5 -16t-8 -14q-4 -1 -15 -6t-15 -7l-25 -16l-37 -22l-35 -21l-21 -13l-17 -12l-20 -14l-16 -14l-7 -5v-10 l26 -85q-1 -3 -0.5 -6.5t4.5 -5.5l47 -143q5 -18 -7.5 -30t-28.5 -12q-18 0 -35 9.5t-22 28.5l-55 181zM363 38l-17 171l-12 119q-5 48 -8.5 76.5t-5.5 43t-3 19.5t-1 6v4q0 11 9.5 18.5t19.5 7.5q15 0 32.5 -5t23.5 -21q9 -49 12.5 -99t6 -99.5t7 -99.5t16.5 -99 q0 -2 1.5 -8t3 -13t2.5 -13t1 -8v-2q0 -1 1 -2q0 -12 -11 -24t-23 -10q-3 1 -14.5 3.5t-15.5 4.5q-3 1 -8 4.5t-9.5 7.5t-7.5 9t0 9zM307 767q0 7 11.5 12.5t17.5 5.5q15 0 33.5 -8.5t18.5 -25.5t-4.5 -23t-21.5 -6q-18 0 -36.5 12t-18.5 33z" />
<glyph unicode="&#xfb02;" horiz-adv-x="446" d="M66 216q-22 -4 -34.5 3.5t-17.5 19t-4.5 23t4.5 14.5q3 1 13.5 8t12.5 9q1 0 2 1l3 3v18q0 56 -6.5 110.5t-6.5 109.5q0 36 1.5 75t13 72t36.5 54t72 21h19q11 0 20.5 -2.5t16.5 -9t7 -18.5q0 -18 -8.5 -23.5t-21.5 -7t-27 -4t-24 -15.5q-2 -2 -5 -10.5t-3 -11.5 q-2 -7 -4 -19t-3.5 -24t-3 -21.5t-1.5 -10.5v-8q0 -6 -0.5 -15t-0.5 -19v-15v-39q0 -18 1 -35.5t3 -35.5t5 -40h8l135 80q14 3 25 10t25 7t29 -7t15 -22q0 -11 -5 -16t-8 -14q-4 -1 -15 -6t-15 -7l-25 -16l-37 -22l-35 -21l-21 -13l-17 -12l-20 -14l-16 -14l-7 -5v-10 l26 -85q-1 -3 -0.5 -6.5t4.5 -5.5l47 -143q5 -18 -7.5 -30t-28.5 -12q-18 0 -35 9.5t-22 28.5l-55 181zM324 70q0 42 2 82t2 82q-3 114 -2 223.5t-10 224.5q0 19 9 25.5t27 6.5q23 0 39.5 -13.5t17.5 -37.5q-2 -142 3.5 -281.5t5.5 -282.5v-77q-6 -8 -17 -16t-22 -6 q-29 5 -42 23.5t-13 46.5z" />
<glyph unicode="&#xfb03;" horiz-adv-x="759" d="M656 38l-17 171l-12 119q-5 48 -8.5 76.5t-5.5 43t-3 19.5t-1 6v4q0 11 9.5 18.5t19.5 7.5q15 0 32.5 -5t23.5 -21q9 -49 12.5 -99t6 -99.5t7 -99.5t16.5 -99q0 -2 1.5 -8t3 -13t2.5 -13t1 -8v-2q0 -1 1 -2q0 -12 -11 -24t-23 -10q-3 1 -14.5 3.5t-15.5 4.5q-3 1 -8 4.5 t-9.5 7.5t-7.5 9t0 9zM600 767q0 7 11.5 12.5t17.5 5.5q15 0 33.5 -8.5t18.5 -25.5t-4.5 -23t-21.5 -6q-18 0 -36.5 12t-18.5 33zM359 216q-22 -4 -34.5 3.5t-17.5 19t-4.5 23t4.5 14.5q3 1 13.5 8t12.5 9q1 0 3 1l2 3v18q0 56 -6.5 110.5t-6.5 109.5q0 36 1.5 75t13 72 t36.5 54t72 21h19q11 0 20.5 -2.5t16.5 -9t7 -18.5q0 -18 -8.5 -23.5t-21.5 -7t-27 -4t-24 -15.5q-2 -2 -5 -10.5t-3 -11.5q-2 -7 -4 -19t-3.5 -24t-3 -21.5t-1.5 -10.5v-8q0 -6 -0.5 -15t-0.5 -19v-15v-39q0 -18 1 -35.5t3 -35.5t5 -40h8l135 80q14 3 25 10t25 7t29 -7 t15 -22q0 -11 -5 -16t-8 -14q-4 -1 -15 -6t-15 -7l-26 -16l-36 -22l-35 -21l-21 -13l-17 -12q-10 -7 -19 -14l-17 -14l-7 -5v-10l26 -85q-1 -3 -0.5 -6.5t4.5 -5.5l47 -143q5 -18 -7.5 -30t-28.5 -12q-18 0 -35 9.5t-22 28.5l-55 181zM66 216q-22 -4 -34.5 3.5t-17.5 19 t-4.5 23t4.5 14.5q3 1 13.5 8t12.5 9q1 0 2 1l3 3v18q0 56 -6.5 110.5t-6.5 109.5q0 36 1.5 75t13 72t36.5 54t72 21h19q11 0 20.5 -2.5t16.5 -9t7 -18.5q0 -18 -8.5 -23.5t-21.5 -7t-27 -4t-24 -15.5q-2 -2 -5 -10.5t-3 -11.5q-2 -7 -4 -19t-3.5 -24t-3 -21.5t-1.5 -10.5 v-8q0 -6 -0.5 -15t-0.5 -19v-15v-39q0 -18 1 -35.5t3 -35.5t5 -40h8l135 80q14 3 25 10t25 7t29 -7t15 -22q0 -11 -5 -16t-8 -14q-4 -1 -15 -6t-15 -7l-25 -16l-37 -22l-35 -21l-21 -13l-17 -12l-20 -14l-16 -14l-7 -5v-10l26 -85q-1 -3 -0.5 -6.5t4.5 -5.5l47 -143 q5 -18 -7.5 -30t-28.5 -12q-18 0 -35 9.5t-22 28.5l-55 181z" />
<glyph unicode="&#xfb04;" horiz-adv-x="739" d="M617 70q0 42 2 82t2 82q-3 114 -2 223.5t-10 224.5q0 19 9 25.5t27 6.5q23 0 39.5 -13.5t17.5 -37.5q-2 -142 3.5 -281.5t5.5 -282.5v-77q-6 -8 -17 -16t-22 -6q-29 5 -42 23.5t-13 46.5zM359 216q-22 -4 -34.5 3.5t-17.5 19t-4.5 23t4.5 14.5q3 1 13.5 8t12.5 9q1 0 3 1 l2 3v18q0 56 -6.5 110.5t-6.5 109.5q0 36 1.5 75t13 72t36.5 54t72 21h19q11 0 20.5 -2.5t16.5 -9t7 -18.5q0 -18 -8.5 -23.5t-21.5 -7t-27 -4t-24 -15.5q-2 -2 -5 -10.5t-3 -11.5q-2 -7 -4 -19t-3.5 -24t-3 -21.5t-1.5 -10.5v-8q0 -6 -0.5 -15t-0.5 -19v-15v-39 q0 -18 1 -35.5t3 -35.5t5 -40h8l135 80q14 3 25 10t25 7t29 -7t15 -22q0 -11 -5 -16t-8 -14q-4 -1 -15 -6t-15 -7l-26 -16l-36 -22l-35 -21l-21 -13l-17 -12q-10 -7 -19 -14l-17 -14l-7 -5v-10l26 -85q-1 -3 -0.5 -6.5t4.5 -5.5l47 -143q5 -18 -7.5 -30t-28.5 -12 q-18 0 -35 9.5t-22 28.5l-55 181zM66 216q-22 -4 -34.5 3.5t-17.5 19t-4.5 23t4.5 14.5q3 1 13.5 8t12.5 9q1 0 2 1l3 3v18q0 56 -6.5 110.5t-6.5 109.5q0 36 1.5 75t13 72t36.5 54t72 21h19q11 0 20.5 -2.5t16.5 -9t7 -18.5q0 -18 -8.5 -23.5t-21.5 -7t-27 -4t-24 -15.5 q-2 -2 -5 -10.5t-3 -11.5q-2 -7 -4 -19t-3.5 -24t-3 -21.5t-1.5 -10.5v-8q0 -6 -0.5 -15t-0.5 -19v-15v-39q0 -18 1 -35.5t3 -35.5t5 -40h8l135 80q14 3 25 10t25 7t29 -7t15 -22q0 -11 -5 -16t-8 -14q-4 -1 -15 -6t-15 -7l-25 -16l-37 -22l-35 -21l-21 -13l-17 -12l-20 -14 l-16 -14l-7 -5v-10l26 -85q-1 -3 -0.5 -6.5t4.5 -5.5l47 -143q5 -18 -7.5 -30t-28.5 -12q-18 0 -35 9.5t-22 28.5l-55 181z" />
</font>
</defs>
</svg>
